<?xml version="1.0"?>
<!-- Generated by SVGo -->
<svg width="335.752mm" height="125.252mm"
     viewBox="0.000 0.000 335.752 125.252"
     xmlns="http://www.w3.org/2000/svg" 
     xmlns:xlink="http://www.w3.org/1999/xlink">
<polygon points="325.752,5.001 326.144,5.016 326.534,5.062 326.919,5.139 327.297,5.245 327.665,5.381 328.021,5.545 328.364,5.737 328.690,5.955 328.999,6.198 329.287,6.465 329.554,6.753 329.797,7.062 330.015,7.388 330.207,7.731 330.371,8.087 330.507,8.455 330.613,8.833 330.690,9.218 330.736,9.608 330.751,10.001 330.752,115.251 330.736,115.644 330.690,116.034 330.613,116.419 330.507,116.797 330.371,117.165 330.207,117.521 330.015,117.864 329.797,118.190 329.554,118.499 329.287,118.787 328.999,119.054 328.690,119.297 328.364,119.515 328.021,119.707 327.665,119.871 327.297,120.007 326.919,120.113 326.534,120.190 326.144,120.236 325.752,120.252 10.001,120.251 9.608,120.236 9.218,120.190 8.833,120.113 8.455,120.007 8.087,119.871 7.731,119.707 7.388,119.515 7.062,119.297 6.753,119.054 6.465,118.787 6.198,118.499 5.955,118.190 5.737,117.864 5.545,117.521 5.381,117.165 5.245,116.797 5.139,116.419 5.062,116.034 5.016,115.644 5.000,115.251 5.001,10.001 5.016,9.608 5.062,9.218 5.139,8.833 5.245,8.455 5.381,8.087 5.545,7.731 5.737,7.388 5.955,7.062 6.198,6.753 6.465,6.465 6.753,6.198 7.062,5.955 7.388,5.737 7.731,5.545 8.087,5.381 8.455,5.245 8.833,5.139 9.218,5.062 9.608,5.016 10.001,5.000" style="fill:none;stroke-width:0.050000mm;stroke:black"/>
<polygon points="148.969,93.726 148.969,94.726 148.169,94.726 148.169,97.825 148.969,97.825 148.969,98.426 109.344,98.426 109.344,95.196 102.594,95.196 102.594,98.426 101.769,98.426 101.769,101.226 102.594,101.226 102.594,107.495 104.319,107.495 104.319,108.696 107.619,108.696 107.619,107.495 109.344,107.495 109.344,103.025 148.969,103.025 148.969,103.626 148.169,103.626 148.169,106.726 148.969,106.726 148.969,107.726 162.969,107.726 162.969,106.726 163.769,106.726 163.769,103.626 162.969,103.626 162.969,103.025 202.594,103.025 202.594,107.495 204.319,107.495 204.319,108.696 207.619,108.696 207.619,107.495 209.344,107.495 209.344,101.226 210.169,101.226 210.169,98.426 209.344,98.426 209.344,95.196 202.594,95.196 202.594,98.426 162.969,98.426 162.969,97.825 163.769,97.825 163.769,94.726 162.969,94.726 162.969,93.726" style="fill:none;stroke-width:0.050000mm;stroke:black"/>
<polygon points="29.907,93.726 29.907,94.726 29.107,94.726 29.107,97.825 29.907,97.825 29.907,103.626 29.107,103.626 29.107,106.726 29.907,106.726 29.907,107.726 43.907,107.726 43.907,106.726 44.707,106.726 44.707,103.626 43.907,103.626 43.907,97.825 44.707,97.825 44.707,94.726 43.907,94.726 43.907,93.726" style="fill:none;stroke-width:0.050000mm;stroke:black"/>
<polygon points="53.719,93.726 53.719,94.726 52.919,94.726 52.919,97.825 53.719,97.825 53.719,103.626 52.919,103.626 52.919,106.726 53.719,106.726 53.719,107.726 67.719,107.726 67.719,106.726 68.519,106.726 68.519,103.626 67.719,103.626 67.719,97.825 68.519,97.825 68.519,94.726 67.719,94.726 67.719,93.726" style="fill:none;stroke-width:0.050000mm;stroke:black"/>
<polygon points="77.532,93.726 77.532,94.726 76.732,94.726 76.732,97.825 77.532,97.825 77.532,103.626 76.732,103.626 76.732,106.726 77.532,106.726 77.532,107.726 91.532,107.726 91.532,106.726 92.332,106.726 92.332,103.626 91.532,103.626 91.532,97.825 92.332,97.825 92.332,94.726 91.532,94.726 91.532,93.726" style="fill:none;stroke-width:0.050000mm;stroke:black"/>
<polygon points="218.026,93.726 218.026,94.726 217.226,94.726 217.226,97.825 218.026,97.825 218.026,103.626 217.226,103.626 217.226,106.726 218.026,106.726 218.026,107.726 232.026,107.726 232.026,106.726 232.826,106.726 232.826,103.626 232.026,103.626 232.026,97.825 232.826,97.825 232.826,94.726 232.026,94.726 232.026,93.726" style="fill:none;stroke-width:0.050000mm;stroke:black"/>
<polygon points="237.076,93.726 237.076,94.726 236.276,94.726 236.276,97.825 237.076,97.825 237.076,103.626 236.276,103.626 236.276,106.726 237.076,106.726 237.076,107.726 251.076,107.726 251.076,106.726 251.876,106.726 251.876,103.626 251.076,103.626 251.076,97.825 251.876,97.825 251.876,94.726 251.076,94.726 251.076,93.726" style="fill:none;stroke-width:0.050000mm;stroke:black"/>
<polygon points="256.126,93.726 256.126,94.726 255.326,94.726 255.326,97.825 256.126,97.825 256.126,103.626 255.326,103.626 255.326,106.726 256.126,106.726 256.126,107.726 270.126,107.726 270.126,106.726 270.926,106.726 270.926,103.626 270.126,103.626 270.126,97.825 270.926,97.825 270.926,94.726 270.126,94.726 270.126,93.726" style="fill:none;stroke-width:0.050000mm;stroke:black"/>
<polygon points="275.176,93.726 275.176,94.726 274.376,94.726 274.376,97.825 275.176,97.825 275.176,103.626 274.376,103.626 274.376,106.726 275.176,106.726 275.176,107.726 289.176,107.726 289.176,106.726 289.976,106.726 289.976,103.626 289.176,103.626 289.176,97.825 289.976,97.825 289.976,94.726 289.176,94.726 289.176,93.726" style="fill:none;stroke-width:0.050000mm;stroke:black"/>
<polygon points="294.226,93.726 294.226,94.726 293.426,94.726 293.426,97.825 294.226,97.825 294.226,103.626 293.426,103.626 293.426,106.726 294.226,106.726 294.226,107.726 308.226,107.726 308.226,106.726 309.026,106.726 309.026,103.626 308.226,103.626 308.226,97.825 309.026,97.825 309.026,94.726 308.226,94.726 308.226,93.726" style="fill:none;stroke-width:0.050000mm;stroke:black"/>
<polygon points="39.432,74.676 39.432,75.676 38.632,75.676 38.632,78.775 39.432,78.775 39.432,79.376 37.907,79.376 37.907,76.146 31.157,76.146 31.157,79.376 30.332,79.376 30.332,82.176 31.157,82.176 31.157,88.446 32.882,88.446 32.882,89.646 36.182,89.646 36.182,88.446 37.907,88.446 37.907,83.976 39.432,83.976 39.432,84.576 38.632,84.576 38.632,87.676 39.432,87.676 39.432,88.676 53.432,88.676 53.432,87.676 54.232,87.676 54.232,84.576 53.432,84.576 53.432,83.976 54.957,83.976 54.957,88.446 56.682,88.446 56.682,89.646 59.982,89.646 59.982,88.446 61.707,88.446 61.707,82.176 62.532,82.176 62.532,79.376 61.707,79.376 61.707,76.146 54.957,76.146 54.957,79.376 53.432,79.376 53.432,78.775 54.232,78.775 54.232,75.676 53.432,75.676 53.432,74.676" style="fill:none;stroke-width:0.050000mm;stroke:black"/>
<polygon points="70.388,74.676 70.388,75.676 69.588,75.676 69.588,78.775 70.388,78.775 70.388,84.576 69.588,84.576 69.588,87.676 70.388,87.676 70.388,88.676 84.388,88.676 84.388,87.676 85.188,87.676 85.188,84.576 84.388,84.576 84.388,78.775 85.188,78.775 85.188,75.676 84.388,75.676 84.388,74.676" style="fill:none;stroke-width:0.050000mm;stroke:black"/>
<polygon points="89.438,74.676 89.438,75.676 88.638,75.676 88.638,78.775 89.438,78.775 89.438,84.576 88.638,84.576 88.638,87.676 89.438,87.676 89.438,88.676 103.438,88.676 103.438,87.676 104.238,87.676 104.238,84.576 103.438,84.576 103.438,78.775 104.238,78.775 104.238,75.676 103.438,75.676 103.438,74.676" style="fill:none;stroke-width:0.050000mm;stroke:black"/>
<polygon points="108.488,74.676 108.488,75.676 107.688,75.676 107.688,78.775 108.488,78.775 108.488,84.576 107.688,84.576 107.688,87.676 108.488,87.676 108.488,88.676 122.488,88.676 122.488,87.676 123.288,87.676 123.288,84.576 122.488,84.576 122.488,78.775 123.288,78.775 123.288,75.676 122.488,75.676 122.488,74.676" style="fill:none;stroke-width:0.050000mm;stroke:black"/>
<polygon points="127.538,74.676 127.538,75.676 126.738,75.676 126.738,78.775 127.538,78.775 127.538,84.576 126.738,84.576 126.738,87.676 127.538,87.676 127.538,88.676 141.538,88.676 141.538,87.676 142.338,87.676 142.338,84.576 141.538,84.576 141.538,78.775 142.338,78.775 142.338,75.676 141.538,75.676 141.538,74.676" style="fill:none;stroke-width:0.050000mm;stroke:black"/>
<polygon points="146.588,74.676 146.588,75.676 145.788,75.676 145.788,78.775 146.588,78.775 146.588,84.576 145.788,84.576 145.788,87.676 146.588,87.676 146.588,88.676 160.588,88.676 160.588,87.676 161.388,87.676 161.388,84.576 160.588,84.576 160.588,78.775 161.388,78.775 161.388,75.676 160.588,75.676 160.588,74.676" style="fill:none;stroke-width:0.050000mm;stroke:black"/>
<polygon points="165.638,74.676 165.638,75.676 164.838,75.676 164.838,78.775 165.638,78.775 165.638,84.576 164.838,84.576 164.838,87.676 165.638,87.676 165.638,88.676 179.638,88.676 179.638,87.676 180.438,87.676 180.438,84.576 179.638,84.576 179.638,78.775 180.438,78.775 180.438,75.676 179.638,75.676 179.638,74.676" style="fill:none;stroke-width:0.050000mm;stroke:black"/>
<polygon points="184.688,74.676 184.688,75.676 183.888,75.676 183.888,78.775 184.688,78.775 184.688,84.576 183.888,84.576 183.888,87.676 184.688,87.676 184.688,88.676 198.688,88.676 198.688,87.676 199.488,87.676 199.488,84.576 198.688,84.576 198.688,78.775 199.488,78.775 199.488,75.676 198.688,75.676 198.688,74.676" style="fill:none;stroke-width:0.050000mm;stroke:black"/>
<polygon points="203.738,74.676 203.738,75.676 202.938,75.676 202.938,78.775 203.738,78.775 203.738,84.576 202.938,84.576 202.938,87.676 203.738,87.676 203.738,88.676 217.738,88.676 217.738,87.676 218.538,87.676 218.538,84.576 217.738,84.576 217.738,78.775 218.538,78.775 218.538,75.676 217.738,75.676 217.738,74.676" style="fill:none;stroke-width:0.050000mm;stroke:black"/>
<polygon points="222.788,74.676 222.788,75.676 221.988,75.676 221.988,78.775 222.788,78.775 222.788,84.576 221.988,84.576 221.988,87.676 222.788,87.676 222.788,88.676 236.788,88.676 236.788,87.676 237.588,87.676 237.588,84.576 236.788,84.576 236.788,78.775 237.588,78.775 237.588,75.676 236.788,75.676 236.788,74.676" style="fill:none;stroke-width:0.050000mm;stroke:black"/>
<polygon points="248.982,74.676 248.982,75.676 248.182,75.676 248.182,78.775 248.982,78.775 248.982,84.576 248.182,84.576 248.182,87.676 248.982,87.676 248.982,88.676 262.982,88.676 262.982,87.676 263.782,87.676 263.782,84.576 262.982,84.576 262.982,78.775 263.782,78.775 263.782,75.676 262.982,75.676 262.982,74.676" style="fill:none;stroke-width:0.050000mm;stroke:black"/>
<polygon points="275.176,74.676 275.176,75.676 274.376,75.676 274.376,78.775 275.176,78.775 275.176,84.576 274.376,84.576 274.376,87.676 275.176,87.676 275.176,88.676 289.176,88.676 289.176,87.676 289.976,87.676 289.976,84.576 289.176,84.576 289.176,78.775 289.976,78.775 289.976,75.676 289.176,75.676 289.176,74.676" style="fill:none;stroke-width:0.050000mm;stroke:black"/>
<polygon points="294.226,74.676 294.226,75.676 293.426,75.676 293.426,78.775 294.226,78.775 294.226,84.576 293.426,84.576 293.426,87.676 294.226,87.676 294.226,88.676 308.226,88.676 308.226,87.676 309.026,87.676 309.026,84.576 308.226,84.576 308.226,78.775 309.026,78.775 309.026,75.676 308.226,75.676 308.226,74.676" style="fill:none;stroke-width:0.050000mm;stroke:black"/>
<polygon points="282.319,55.626 282.319,56.626 281.519,56.626 281.519,59.726 282.319,59.726 282.319,60.326 280.794,60.326 280.794,57.096 274.044,57.096 274.044,60.326 273.219,60.326 273.219,63.126 274.044,63.126 274.044,69.396 275.769,69.396 275.769,70.596 279.069,70.596 279.069,69.396 280.794,69.396 280.794,64.926 282.319,64.926 282.319,65.526 281.519,65.526 281.519,68.626 282.319,68.626 282.319,69.626 296.319,69.626 296.319,68.626 297.119,68.626 297.119,65.526 296.319,65.526 296.319,64.926 297.844,64.926 297.844,69.396 299.569,69.396 299.569,70.596 302.869,70.596 302.869,69.396 304.594,69.396 304.594,63.126 305.419,63.126 305.419,60.326 304.594,60.326 304.594,57.096 297.844,57.096 297.844,60.326 296.319,60.326 296.319,59.726 297.119,59.726 297.119,56.626 296.319,56.626 296.319,55.626" style="fill:none;stroke-width:0.050000mm;stroke:black"/>
<polygon points="34.669,55.626 34.669,56.626 33.869,56.626 33.869,59.726 34.669,59.726 34.669,65.526 33.869,65.526 33.869,68.626 34.669,68.626 34.669,69.626 48.669,69.626 48.669,68.626 49.469,68.626 49.469,65.526 48.669,65.526 48.669,59.726 49.469,59.726 49.469,56.626 48.669,56.626 48.669,55.626" style="fill:none;stroke-width:0.050000mm;stroke:black"/>
<polygon points="60.863,55.626 60.863,56.626 60.063,56.626 60.063,59.726 60.863,59.726 60.863,65.526 60.063,65.526 60.063,68.626 60.863,68.626 60.863,69.626 74.863,69.626 74.863,68.626 75.663,68.626 75.663,65.526 74.863,65.526 74.863,59.726 75.663,59.726 75.663,56.626 74.863,56.626 74.863,55.626" style="fill:none;stroke-width:0.050000mm;stroke:black"/>
<polygon points="79.913,55.626 79.913,56.626 79.113,56.626 79.113,59.726 79.913,59.726 79.913,65.526 79.113,65.526 79.113,68.626 79.913,68.626 79.913,69.626 93.913,69.626 93.913,68.626 94.713,68.626 94.713,65.526 93.913,65.526 93.913,59.726 94.713,59.726 94.713,56.626 93.913,56.626 93.913,55.626" style="fill:none;stroke-width:0.050000mm;stroke:black"/>
<polygon points="98.963,55.626 98.963,56.626 98.163,56.626 98.163,59.726 98.963,59.726 98.963,65.526 98.163,65.526 98.163,68.626 98.963,68.626 98.963,69.626 112.963,69.626 112.963,68.626 113.763,68.626 113.763,65.526 112.963,65.526 112.963,59.726 113.763,59.726 113.763,56.626 112.963,56.626 112.963,55.626" style="fill:none;stroke-width:0.050000mm;stroke:black"/>
<polygon points="118.013,55.626 118.013,56.626 117.213,56.626 117.213,59.726 118.013,59.726 118.013,65.526 117.213,65.526 117.213,68.626 118.013,68.626 118.013,69.626 132.013,69.626 132.013,68.626 132.813,68.626 132.813,65.526 132.013,65.526 132.013,59.726 132.813,59.726 132.813,56.626 132.013,56.626 132.013,55.626" style="fill:none;stroke-width:0.050000mm;stroke:black"/>
<polygon points="137.063,55.626 137.063,56.626 136.263,56.626 136.263,59.726 137.063,59.726 137.063,65.526 136.263,65.526 136.263,68.626 137.063,68.626 137.063,69.626 151.063,69.626 151.063,68.626 151.863,68.626 151.863,65.526 151.063,65.526 151.063,59.726 151.863,59.726 151.863,56.626 151.063,56.626 151.063,55.626" style="fill:none;stroke-width:0.050000mm;stroke:black"/>
<polygon points="156.113,55.626 156.113,56.626 155.313,56.626 155.313,59.726 156.113,59.726 156.113,65.526 155.313,65.526 155.313,68.626 156.113,68.626 156.113,69.626 170.113,69.626 170.113,68.626 170.913,68.626 170.913,65.526 170.113,65.526 170.113,59.726 170.913,59.726 170.913,56.626 170.113,56.626 170.113,55.626" style="fill:none;stroke-width:0.050000mm;stroke:black"/>
<polygon points="175.163,55.626 175.163,56.626 174.363,56.626 174.363,59.726 175.163,59.726 175.163,65.526 174.363,65.526 174.363,68.626 175.163,68.626 175.163,69.626 189.163,69.626 189.163,68.626 189.963,68.626 189.963,65.526 189.163,65.526 189.163,59.726 189.963,59.726 189.963,56.626 189.163,56.626 189.163,55.626" style="fill:none;stroke-width:0.050000mm;stroke:black"/>
<polygon points="194.213,55.626 194.213,56.626 193.413,56.626 193.413,59.726 194.213,59.726 194.213,65.526 193.413,65.526 193.413,68.626 194.213,68.626 194.213,69.626 208.213,69.626 208.213,68.626 209.013,68.626 209.013,65.526 208.213,65.526 208.213,59.726 209.013,59.726 209.013,56.626 208.213,56.626 208.213,55.626" style="fill:none;stroke-width:0.050000mm;stroke:black"/>
<polygon points="213.263,55.626 213.263,56.626 212.463,56.626 212.463,59.726 213.263,59.726 213.263,65.526 212.463,65.526 212.463,68.626 213.263,68.626 213.263,69.626 227.263,69.626 227.263,68.626 228.063,68.626 228.063,65.526 227.263,65.526 227.263,59.726 228.063,59.726 228.063,56.626 227.263,56.626 227.263,55.626" style="fill:none;stroke-width:0.050000mm;stroke:black"/>
<polygon points="232.313,55.626 232.313,56.626 231.513,56.626 231.513,59.726 232.313,59.726 232.313,65.526 231.513,65.526 231.513,68.626 232.313,68.626 232.313,69.626 246.313,69.626 246.313,68.626 247.113,68.626 247.113,65.526 246.313,65.526 246.313,59.726 247.113,59.726 247.113,56.626 246.313,56.626 246.313,55.626" style="fill:none;stroke-width:0.050000mm;stroke:black"/>
<polygon points="251.363,55.626 251.363,56.626 250.563,56.626 250.563,59.726 251.363,59.726 251.363,65.526 250.563,65.526 250.563,68.626 251.363,68.626 251.363,69.626 265.363,69.626 265.363,68.626 266.163,68.626 266.163,65.526 265.363,65.526 265.363,59.726 266.163,59.726 266.163,56.626 265.363,56.626 265.363,55.626" style="fill:none;stroke-width:0.050000mm;stroke:black"/>
<polygon points="32.288,36.576 32.288,37.576 31.488,37.576 31.488,40.676 32.288,40.676 32.288,46.476 31.488,46.476 31.488,49.576 32.288,49.576 32.288,50.576 46.288,50.576 46.288,49.576 47.088,49.576 47.088,46.476 46.288,46.476 46.288,40.676 47.088,40.676 47.088,37.576 46.288,37.576 46.288,36.576" style="fill:none;stroke-width:0.050000mm;stroke:black"/>
<polygon points="56.101,36.576 56.101,37.576 55.301,37.576 55.301,40.676 56.101,40.676 56.101,46.476 55.301,46.476 55.301,49.576 56.101,49.576 56.101,50.576 70.101,50.576 70.101,49.576 70.901,49.576 70.901,46.476 70.101,46.476 70.101,40.676 70.901,40.676 70.901,37.576 70.101,37.576 70.101,36.576" style="fill:none;stroke-width:0.050000mm;stroke:black"/>
<polygon points="75.151,36.576 75.151,37.576 74.351,37.576 74.351,40.676 75.151,40.676 75.151,46.476 74.351,46.476 74.351,49.576 75.151,49.576 75.151,50.576 89.151,50.576 89.151,49.576 89.951,49.576 89.951,46.476 89.151,46.476 89.151,40.676 89.951,40.676 89.951,37.576 89.151,37.576 89.151,36.576" style="fill:none;stroke-width:0.050000mm;stroke:black"/>
<polygon points="94.201,36.576 94.201,37.576 93.401,37.576 93.401,40.676 94.201,40.676 94.201,46.476 93.401,46.476 93.401,49.576 94.201,49.576 94.201,50.576 108.201,50.576 108.201,49.576 109.001,49.576 109.001,46.476 108.201,46.476 108.201,40.676 109.001,40.676 109.001,37.576 108.201,37.576 108.201,36.576" style="fill:none;stroke-width:0.050000mm;stroke:black"/>
<polygon points="113.251,36.576 113.251,37.576 112.451,37.576 112.451,40.676 113.251,40.676 113.251,46.476 112.451,46.476 112.451,49.576 113.251,49.576 113.251,50.576 127.251,50.576 127.251,49.576 128.051,49.576 128.051,46.476 127.251,46.476 127.251,40.676 128.051,40.676 128.051,37.576 127.251,37.576 127.251,36.576" style="fill:none;stroke-width:0.050000mm;stroke:black"/>
<polygon points="132.301,36.576 132.301,37.576 131.501,37.576 131.501,40.676 132.301,40.676 132.301,46.476 131.501,46.476 131.501,49.576 132.301,49.576 132.301,50.576 146.301,50.576 146.301,49.576 147.101,49.576 147.101,46.476 146.301,46.476 146.301,40.676 147.101,40.676 147.101,37.576 146.301,37.576 146.301,36.576" style="fill:none;stroke-width:0.050000mm;stroke:black"/>
<polygon points="151.351,36.576 151.351,37.576 150.551,37.576 150.551,40.676 151.351,40.676 151.351,46.476 150.551,46.476 150.551,49.576 151.351,49.576 151.351,50.576 165.351,50.576 165.351,49.576 166.151,49.576 166.151,46.476 165.351,46.476 165.351,40.676 166.151,40.676 166.151,37.576 165.351,37.576 165.351,36.576" style="fill:none;stroke-width:0.050000mm;stroke:black"/>
<polygon points="170.401,36.576 170.401,37.576 169.601,37.576 169.601,40.676 170.401,40.676 170.401,46.476 169.601,46.476 169.601,49.576 170.401,49.576 170.401,50.576 184.401,50.576 184.401,49.576 185.201,49.576 185.201,46.476 184.401,46.476 184.401,40.676 185.201,40.676 185.201,37.576 184.401,37.576 184.401,36.576" style="fill:none;stroke-width:0.050000mm;stroke:black"/>
<polygon points="189.451,36.576 189.451,37.576 188.651,37.576 188.651,40.676 189.451,40.676 189.451,46.476 188.651,46.476 188.651,49.576 189.451,49.576 189.451,50.576 203.451,50.576 203.451,49.576 204.251,49.576 204.251,46.476 203.451,46.476 203.451,40.676 204.251,40.676 204.251,37.576 203.451,37.576 203.451,36.576" style="fill:none;stroke-width:0.050000mm;stroke:black"/>
<polygon points="208.501,36.576 208.501,37.576 207.701,37.576 207.701,40.676 208.501,40.676 208.501,46.476 207.701,46.476 207.701,49.576 208.501,49.576 208.501,50.576 222.501,50.576 222.501,49.576 223.301,49.576 223.301,46.476 222.501,46.476 222.501,40.676 223.301,40.676 223.301,37.576 222.501,37.576 222.501,36.576" style="fill:none;stroke-width:0.050000mm;stroke:black"/>
<polygon points="227.551,36.576 227.551,37.576 226.751,37.576 226.751,40.676 227.551,40.676 227.551,46.476 226.751,46.476 226.751,49.576 227.551,49.576 227.551,50.576 241.551,50.576 241.551,49.576 242.351,49.576 242.351,46.476 241.551,46.476 241.551,40.676 242.351,40.676 242.351,37.576 241.551,37.576 241.551,36.576" style="fill:none;stroke-width:0.050000mm;stroke:black"/>
<polygon points="246.601,36.576 246.601,37.576 245.801,37.576 245.801,40.676 246.601,40.676 246.601,46.476 245.801,46.476 245.801,49.576 246.601,49.576 246.601,50.576 260.601,50.576 260.601,49.576 261.400,49.576 261.400,46.476 260.601,46.476 260.601,40.676 261.400,40.676 261.400,37.576 260.601,37.576 260.601,36.576" style="fill:none;stroke-width:0.050000mm;stroke:black"/>
<polygon points="265.651,36.576 265.651,37.576 264.851,37.576 264.851,40.676 265.651,40.676 265.651,46.476 264.851,46.476 264.851,49.576 265.651,49.576 265.651,50.576 279.651,50.576 279.651,49.576 280.451,49.576 280.451,46.476 279.651,46.476 279.651,40.676 280.451,40.676 280.451,37.576 279.651,37.576 279.651,36.576" style="fill:none;stroke-width:0.050000mm;stroke:black"/>
<polygon points="289.463,36.576 289.463,37.576 288.663,37.576 288.663,40.676 289.463,40.676 289.463,46.476 288.663,46.476 288.663,49.576 289.463,49.576 289.463,50.576 303.463,50.576 303.463,49.576 304.263,49.576 304.263,46.476 303.463,46.476 303.463,40.676 304.263,40.676 304.263,37.576 303.463,37.576 303.463,36.576" style="fill:none;stroke-width:0.050000mm;stroke:black"/>
<polygon points="27.526,17.526 27.526,18.526 26.725,18.526 26.725,21.626 27.526,21.626 27.526,27.425 26.725,27.425 26.725,30.526 27.526,30.526 27.526,31.526 41.526,31.526 41.526,30.526 42.325,30.526 42.325,27.425 41.526,27.425 41.526,21.626 42.325,21.626 42.325,18.526 41.526,18.526 41.526,17.526" style="fill:none;stroke-width:0.050000mm;stroke:black"/>
<polygon points="46.576,17.526 46.576,18.526 45.776,18.526 45.776,21.626 46.576,21.626 46.576,27.425 45.776,27.425 45.776,30.526 46.576,30.526 46.576,31.526 60.576,31.526 60.576,30.526 61.376,30.526 61.376,27.425 60.576,27.425 60.576,21.626 61.376,21.626 61.376,18.526 60.576,18.526 60.576,17.526" style="fill:none;stroke-width:0.050000mm;stroke:black"/>
<polygon points="65.626,17.526 65.626,18.526 64.826,18.526 64.826,21.626 65.626,21.626 65.626,27.425 64.826,27.425 64.826,30.526 65.626,30.526 65.626,31.526 79.626,31.526 79.626,30.526 80.426,30.526 80.426,27.425 79.626,27.425 79.626,21.626 80.426,21.626 80.426,18.526 79.626,18.526 79.626,17.526" style="fill:none;stroke-width:0.050000mm;stroke:black"/>
<polygon points="84.676,17.526 84.676,18.526 83.876,18.526 83.876,21.626 84.676,21.626 84.676,27.425 83.876,27.425 83.876,30.526 84.676,30.526 84.676,31.526 98.676,31.526 98.676,30.526 99.476,30.526 99.476,27.425 98.676,27.425 98.676,21.626 99.476,21.626 99.476,18.526 98.676,18.526 98.676,17.526" style="fill:none;stroke-width:0.050000mm;stroke:black"/>
<polygon points="103.726,17.526 103.726,18.526 102.926,18.526 102.926,21.626 103.726,21.626 103.726,27.425 102.926,27.425 102.926,30.526 103.726,30.526 103.726,31.526 117.726,31.526 117.726,30.526 118.525,30.526 118.525,27.425 117.726,27.425 117.726,21.626 118.525,21.626 118.525,18.526 117.726,18.526 117.726,17.526" style="fill:none;stroke-width:0.050000mm;stroke:black"/>
<polygon points="122.776,17.526 122.776,18.526 121.976,18.526 121.976,21.626 122.776,21.626 122.776,27.425 121.976,27.425 121.976,30.526 122.776,30.526 122.776,31.526 136.776,31.526 136.776,30.526 137.576,30.526 137.576,27.425 136.776,27.425 136.776,21.626 137.576,21.626 137.576,18.526 136.776,18.526 136.776,17.526" style="fill:none;stroke-width:0.050000mm;stroke:black"/>
<polygon points="141.826,17.526 141.826,18.526 141.026,18.526 141.026,21.626 141.826,21.626 141.826,27.425 141.026,27.425 141.026,30.526 141.826,30.526 141.826,31.526 155.826,31.526 155.826,30.526 156.626,30.526 156.626,27.425 155.826,27.425 155.826,21.626 156.626,21.626 156.626,18.526 155.826,18.526 155.826,17.526" style="fill:none;stroke-width:0.050000mm;stroke:black"/>
<polygon points="160.876,17.526 160.876,18.526 160.076,18.526 160.076,21.626 160.876,21.626 160.876,27.425 160.076,27.425 160.076,30.526 160.876,30.526 160.876,31.526 174.876,31.526 174.876,30.526 175.676,30.526 175.676,27.425 174.876,27.425 174.876,21.626 175.676,21.626 175.676,18.526 174.876,18.526 174.876,17.526" style="fill:none;stroke-width:0.050000mm;stroke:black"/>
<polygon points="179.926,17.526 179.926,18.526 179.126,18.526 179.126,21.626 179.926,21.626 179.926,27.425 179.126,27.425 179.126,30.526 179.926,30.526 179.926,31.526 193.926,31.526 193.926,30.526 194.726,30.526 194.726,27.425 193.926,27.425 193.926,21.626 194.726,21.626 194.726,18.526 193.926,18.526 193.926,17.526" style="fill:none;stroke-width:0.050000mm;stroke:black"/>
<polygon points="198.976,17.526 198.976,18.526 198.176,18.526 198.176,21.626 198.976,21.626 198.976,27.425 198.176,27.425 198.176,30.526 198.976,30.526 198.976,31.526 212.976,31.526 212.976,30.526 213.776,30.526 213.776,27.425 212.976,27.425 212.976,21.626 213.776,21.626 213.776,18.526 212.976,18.526 212.976,17.526" style="fill:none;stroke-width:0.050000mm;stroke:black"/>
<polygon points="218.026,17.526 218.026,18.526 217.226,18.526 217.226,21.626 218.026,21.626 218.026,27.425 217.226,27.425 217.226,30.526 218.026,30.526 218.026,31.526 232.026,31.526 232.026,30.526 232.826,30.526 232.826,27.425 232.026,27.425 232.026,21.626 232.826,21.626 232.826,18.526 232.026,18.526 232.026,17.526" style="fill:none;stroke-width:0.050000mm;stroke:black"/>
<polygon points="237.076,17.526 237.076,18.526 236.276,18.526 236.276,21.626 237.076,21.626 237.076,27.425 236.276,27.425 236.276,30.526 237.076,30.526 237.076,31.526 251.076,31.526 251.076,30.526 251.876,30.526 251.876,27.425 251.076,27.425 251.076,21.626 251.876,21.626 251.876,18.526 251.076,18.526 251.076,17.526" style="fill:none;stroke-width:0.050000mm;stroke:black"/>
<polygon points="256.126,17.526 256.126,18.526 255.326,18.526 255.326,21.626 256.126,21.626 256.126,27.425 255.326,27.425 255.326,30.526 256.126,30.526 256.126,31.526 270.126,31.526 270.126,30.526 270.926,30.526 270.926,27.425 270.126,27.425 270.126,21.626 270.926,21.626 270.926,18.526 270.126,18.526 270.126,17.526" style="fill:none;stroke-width:0.050000mm;stroke:black"/>
<polygon points="275.176,17.526 275.176,18.526 274.376,18.526 274.376,21.626 275.176,21.626 275.176,27.425 274.376,27.425 274.376,30.526 275.176,30.526 275.176,31.526 289.176,31.526 289.176,30.526 289.976,30.526 289.976,27.425 289.176,27.425 289.176,21.626 289.976,21.626 289.976,18.526 289.176,18.526 289.176,17.526" style="fill:none;stroke-width:0.050000mm;stroke:black"/>
<polygon points="294.226,17.526 294.226,18.526 293.426,18.526 293.426,21.626 294.226,21.626 294.226,27.425 293.426,27.425 293.426,30.526 294.226,30.526 294.226,31.526 308.226,31.526 308.226,30.526 309.026,30.526 309.026,27.425 308.226,27.425 308.226,21.626 309.026,21.626 309.026,18.526 308.226,18.526 308.226,17.526" style="fill:none;stroke-width:0.050000mm;stroke:black"/>
</svg>
