<?xml version="1.0"?>
<!-- Generated by SVGo -->
<svg width="345.752mm" height="125.252mm"
     viewBox="0.000 0.000 345.752 125.252"
     xmlns="http://www.w3.org/2000/svg" 
     xmlns:xlink="http://www.w3.org/1999/xlink">
<polygon points="330.752,5.001 331.536,5.031 332.316,5.124 333.086,5.277 333.842,5.490 334.578,5.762 335.291,6.090 335.976,6.474 336.629,6.910 337.246,7.396 337.823,7.929 338.356,8.506 338.842,9.123 339.278,9.776 339.662,10.461 339.990,11.174 340.262,11.910 340.475,12.666 340.628,13.436 340.721,14.216 340.752,15.001 340.752,110.251 340.721,111.036 340.628,111.816 340.475,112.586 340.262,113.342 339.990,114.078 339.662,114.791 339.278,115.476 338.842,116.129 338.356,116.746 337.823,117.323 337.246,117.856 336.629,118.342 335.976,118.778 335.291,119.162 334.578,119.490 333.842,119.762 333.086,119.975 332.316,120.128 331.536,120.221 330.752,120.252 15.001,120.251 14.216,120.221 13.436,120.128 12.666,119.975 11.910,119.762 11.174,119.490 10.461,119.162 9.776,118.778 9.123,118.342 8.506,117.856 7.929,117.323 7.396,116.746 6.910,116.129 6.474,115.476 6.090,114.791 5.762,114.078 5.490,113.342 5.277,112.586 5.124,111.816 5.031,111.036 5.000,110.251 5.001,15.001 5.031,14.216 5.124,13.436 5.277,12.666 5.490,11.910 5.762,11.174 6.090,10.461 6.474,9.776 6.910,9.123 7.396,8.506 7.929,7.929 8.506,7.396 9.123,6.910 9.776,6.474 10.461,6.090 11.174,5.762 11.910,5.490 12.666,5.277 13.436,5.124 14.216,5.031 15.001,5.000" style="fill:none;stroke-width:0.050000mm;stroke:black"/>
<polygon points="153.969,93.726 153.969,94.726 153.169,94.726 153.169,97.825 153.969,97.825 153.969,98.426 114.344,98.426 114.344,95.196 107.594,95.196 107.594,98.426 106.769,98.426 106.769,101.226 107.594,101.226 107.594,107.495 109.319,107.495 109.319,108.696 112.619,108.696 112.619,107.495 114.344,107.495 114.344,103.025 153.969,103.025 153.969,103.626 153.169,103.626 153.169,106.726 153.969,106.726 153.969,107.726 167.969,107.726 167.969,106.726 168.769,106.726 168.769,103.626 167.969,103.626 167.969,103.025 207.594,103.025 207.594,107.495 209.319,107.495 209.319,108.696 212.619,108.696 212.619,107.495 214.344,107.495 214.344,101.226 215.169,101.226 215.169,98.426 214.344,98.426 214.344,95.196 207.594,95.196 207.594,98.426 167.969,98.426 167.969,97.825 168.769,97.825 168.769,94.726 167.969,94.726 167.969,93.726" style="fill:none;stroke-width:0.050000mm;stroke:black"/>
<polygon points="34.907,93.726 34.907,94.726 34.107,94.726 34.107,97.825 34.907,97.825 34.907,103.626 34.107,103.626 34.107,106.726 34.907,106.726 34.907,107.726 48.907,107.726 48.907,106.726 49.707,106.726 49.707,103.626 48.907,103.626 48.907,97.825 49.707,97.825 49.707,94.726 48.907,94.726 48.907,93.726" style="fill:none;stroke-width:0.050000mm;stroke:black"/>
<polygon points="58.719,93.726 58.719,94.726 57.919,94.726 57.919,97.825 58.719,97.825 58.719,103.626 57.919,103.626 57.919,106.726 58.719,106.726 58.719,107.726 72.719,107.726 72.719,106.726 73.519,106.726 73.519,103.626 72.719,103.626 72.719,97.825 73.519,97.825 73.519,94.726 72.719,94.726 72.719,93.726" style="fill:none;stroke-width:0.050000mm;stroke:black"/>
<polygon points="82.532,93.726 82.532,94.726 81.732,94.726 81.732,97.825 82.532,97.825 82.532,103.626 81.732,103.626 81.732,106.726 82.532,106.726 82.532,107.726 96.532,107.726 96.532,106.726 97.332,106.726 97.332,103.626 96.532,103.626 96.532,97.825 97.332,97.825 97.332,94.726 96.532,94.726 96.532,93.726" style="fill:none;stroke-width:0.050000mm;stroke:black"/>
<polygon points="223.026,93.726 223.026,94.726 222.226,94.726 222.226,97.825 223.026,97.825 223.026,103.626 222.226,103.626 222.226,106.726 223.026,106.726 223.026,107.726 237.026,107.726 237.026,106.726 237.826,106.726 237.826,103.626 237.026,103.626 237.026,97.825 237.826,97.825 237.826,94.726 237.026,94.726 237.026,93.726" style="fill:none;stroke-width:0.050000mm;stroke:black"/>
<polygon points="242.076,93.726 242.076,94.726 241.276,94.726 241.276,97.825 242.076,97.825 242.076,103.626 241.276,103.626 241.276,106.726 242.076,106.726 242.076,107.726 256.076,107.726 256.076,106.726 256.876,106.726 256.876,103.626 256.076,103.626 256.076,97.825 256.876,97.825 256.876,94.726 256.076,94.726 256.076,93.726" style="fill:none;stroke-width:0.050000mm;stroke:black"/>
<polygon points="261.126,93.726 261.126,94.726 260.326,94.726 260.326,97.825 261.126,97.825 261.126,103.626 260.326,103.626 260.326,106.726 261.126,106.726 261.126,107.726 275.126,107.726 275.126,106.726 275.926,106.726 275.926,103.626 275.126,103.626 275.126,97.825 275.926,97.825 275.926,94.726 275.126,94.726 275.126,93.726" style="fill:none;stroke-width:0.050000mm;stroke:black"/>
<polygon points="280.176,93.726 280.176,94.726 279.376,94.726 279.376,97.825 280.176,97.825 280.176,103.626 279.376,103.626 279.376,106.726 280.176,106.726 280.176,107.726 294.176,107.726 294.176,106.726 294.976,106.726 294.976,103.626 294.176,103.626 294.176,97.825 294.976,97.825 294.976,94.726 294.176,94.726 294.176,93.726" style="fill:none;stroke-width:0.050000mm;stroke:black"/>
<polygon points="299.226,93.726 299.226,94.726 298.426,94.726 298.426,97.825 299.226,97.825 299.226,103.626 298.426,103.626 298.426,106.726 299.226,106.726 299.226,107.726 313.226,107.726 313.226,106.726 314.026,106.726 314.026,103.626 313.226,103.626 313.226,97.825 314.026,97.825 314.026,94.726 313.226,94.726 313.226,93.726" style="fill:none;stroke-width:0.050000mm;stroke:black"/>
<polygon points="44.432,74.676 44.432,75.676 43.632,75.676 43.632,78.775 44.432,78.775 44.432,79.376 42.907,79.376 42.907,76.146 36.157,76.146 36.157,79.376 35.332,79.376 35.332,82.176 36.157,82.176 36.157,88.446 37.882,88.446 37.882,89.646 41.182,89.646 41.182,88.446 42.907,88.446 42.907,83.976 44.432,83.976 44.432,84.576 43.632,84.576 43.632,87.676 44.432,87.676 44.432,88.676 58.432,88.676 58.432,87.676 59.232,87.676 59.232,84.576 58.432,84.576 58.432,83.976 59.957,83.976 59.957,88.446 61.682,88.446 61.682,89.646 64.981,89.646 64.981,88.446 66.707,88.446 66.707,82.176 67.532,82.176 67.532,79.376 66.707,79.376 66.707,76.146 59.957,76.146 59.957,79.376 58.432,79.376 58.432,78.775 59.232,78.775 59.232,75.676 58.432,75.676 58.432,74.676" style="fill:none;stroke-width:0.050000mm;stroke:black"/>
<polygon points="75.388,74.676 75.388,75.676 74.588,75.676 74.588,78.775 75.388,78.775 75.388,84.576 74.588,84.576 74.588,87.676 75.388,87.676 75.388,88.676 89.388,88.676 89.388,87.676 90.188,87.676 90.188,84.576 89.388,84.576 89.388,78.775 90.188,78.775 90.188,75.676 89.388,75.676 89.388,74.676" style="fill:none;stroke-width:0.050000mm;stroke:black"/>
<polygon points="94.438,74.676 94.438,75.676 93.638,75.676 93.638,78.775 94.438,78.775 94.438,84.576 93.638,84.576 93.638,87.676 94.438,87.676 94.438,88.676 108.438,88.676 108.438,87.676 109.238,87.676 109.238,84.576 108.438,84.576 108.438,78.775 109.238,78.775 109.238,75.676 108.438,75.676 108.438,74.676" style="fill:none;stroke-width:0.050000mm;stroke:black"/>
<polygon points="113.488,74.676 113.488,75.676 112.688,75.676 112.688,78.775 113.488,78.775 113.488,84.576 112.688,84.576 112.688,87.676 113.488,87.676 113.488,88.676 127.488,88.676 127.488,87.676 128.288,87.676 128.288,84.576 127.488,84.576 127.488,78.775 128.288,78.775 128.288,75.676 127.488,75.676 127.488,74.676" style="fill:none;stroke-width:0.050000mm;stroke:black"/>
<polygon points="132.538,74.676 132.538,75.676 131.738,75.676 131.738,78.775 132.538,78.775 132.538,84.576 131.738,84.576 131.738,87.676 132.538,87.676 132.538,88.676 146.538,88.676 146.538,87.676 147.338,87.676 147.338,84.576 146.538,84.576 146.538,78.775 147.338,78.775 147.338,75.676 146.538,75.676 146.538,74.676" style="fill:none;stroke-width:0.050000mm;stroke:black"/>
<polygon points="151.588,74.676 151.588,75.676 150.788,75.676 150.788,78.775 151.588,78.775 151.588,84.576 150.788,84.576 150.788,87.676 151.588,87.676 151.588,88.676 165.588,88.676 165.588,87.676 166.388,87.676 166.388,84.576 165.588,84.576 165.588,78.775 166.388,78.775 166.388,75.676 165.588,75.676 165.588,74.676" style="fill:none;stroke-width:0.050000mm;stroke:black"/>
<polygon points="170.638,74.676 170.638,75.676 169.838,75.676 169.838,78.775 170.638,78.775 170.638,84.576 169.838,84.576 169.838,87.676 170.638,87.676 170.638,88.676 184.638,88.676 184.638,87.676 185.438,87.676 185.438,84.576 184.638,84.576 184.638,78.775 185.438,78.775 185.438,75.676 184.638,75.676 184.638,74.676" style="fill:none;stroke-width:0.050000mm;stroke:black"/>
<polygon points="189.688,74.676 189.688,75.676 188.888,75.676 188.888,78.775 189.688,78.775 189.688,84.576 188.888,84.576 188.888,87.676 189.688,87.676 189.688,88.676 203.688,88.676 203.688,87.676 204.488,87.676 204.488,84.576 203.688,84.576 203.688,78.775 204.488,78.775 204.488,75.676 203.688,75.676 203.688,74.676" style="fill:none;stroke-width:0.050000mm;stroke:black"/>
<polygon points="208.738,74.676 208.738,75.676 207.938,75.676 207.938,78.775 208.738,78.775 208.738,84.576 207.938,84.576 207.938,87.676 208.738,87.676 208.738,88.676 222.738,88.676 222.738,87.676 223.538,87.676 223.538,84.576 222.738,84.576 222.738,78.775 223.538,78.775 223.538,75.676 222.738,75.676 222.738,74.676" style="fill:none;stroke-width:0.050000mm;stroke:black"/>
<polygon points="227.788,74.676 227.788,75.676 226.988,75.676 226.988,78.775 227.788,78.775 227.788,84.576 226.988,84.576 226.988,87.676 227.788,87.676 227.788,88.676 241.788,88.676 241.788,87.676 242.588,87.676 242.588,84.576 241.788,84.576 241.788,78.775 242.588,78.775 242.588,75.676 241.788,75.676 241.788,74.676" style="fill:none;stroke-width:0.050000mm;stroke:black"/>
<polygon points="253.982,74.676 253.982,75.676 253.182,75.676 253.182,78.775 253.982,78.775 253.982,84.576 253.182,84.576 253.182,87.676 253.982,87.676 253.982,88.676 267.982,88.676 267.982,87.676 268.782,87.676 268.782,84.576 267.982,84.576 267.982,78.775 268.782,78.775 268.782,75.676 267.982,75.676 267.982,74.676" style="fill:none;stroke-width:0.050000mm;stroke:black"/>
<polygon points="280.176,74.676 280.176,75.676 279.376,75.676 279.376,78.775 280.176,78.775 280.176,84.576 279.376,84.576 279.376,87.676 280.176,87.676 280.176,88.676 294.176,88.676 294.176,87.676 294.976,87.676 294.976,84.576 294.176,84.576 294.176,78.775 294.976,78.775 294.976,75.676 294.176,75.676 294.176,74.676" style="fill:none;stroke-width:0.050000mm;stroke:black"/>
<polygon points="299.226,74.676 299.226,75.676 298.426,75.676 298.426,78.775 299.226,78.775 299.226,84.576 298.426,84.576 298.426,87.676 299.226,87.676 299.226,88.676 313.226,88.676 313.226,87.676 314.026,87.676 314.026,84.576 313.226,84.576 313.226,78.775 314.026,78.775 314.026,75.676 313.226,75.676 313.226,74.676" style="fill:none;stroke-width:0.050000mm;stroke:black"/>
<polygon points="287.319,55.626 287.319,56.626 286.519,56.626 286.519,59.726 287.319,59.726 287.319,60.326 285.794,60.326 285.794,57.096 279.044,57.096 279.044,60.326 278.219,60.326 278.219,63.126 279.044,63.126 279.044,69.396 280.769,69.396 280.769,70.596 284.069,70.596 284.069,69.396 285.794,69.396 285.794,64.926 287.319,64.926 287.319,65.526 286.519,65.526 286.519,68.626 287.319,68.626 287.319,69.626 301.319,69.626 301.319,68.626 302.119,68.626 302.119,65.526 301.319,65.526 301.319,64.926 302.844,64.926 302.844,69.396 304.569,69.396 304.569,70.596 307.869,70.596 307.869,69.396 309.594,69.396 309.594,63.126 310.419,63.126 310.419,60.326 309.594,60.326 309.594,57.096 302.844,57.096 302.844,60.326 301.319,60.326 301.319,59.726 302.119,59.726 302.119,56.626 301.319,56.626 301.319,55.626" style="fill:none;stroke-width:0.050000mm;stroke:black"/>
<polygon points="39.669,55.626 39.669,56.626 38.869,56.626 38.869,59.726 39.669,59.726 39.669,65.526 38.869,65.526 38.869,68.626 39.669,68.626 39.669,69.626 53.669,69.626 53.669,68.626 54.469,68.626 54.469,65.526 53.669,65.526 53.669,59.726 54.469,59.726 54.469,56.626 53.669,56.626 53.669,55.626" style="fill:none;stroke-width:0.050000mm;stroke:black"/>
<polygon points="65.863,55.626 65.863,56.626 65.063,56.626 65.063,59.726 65.863,59.726 65.863,65.526 65.063,65.526 65.063,68.626 65.863,68.626 65.863,69.626 79.863,69.626 79.863,68.626 80.663,68.626 80.663,65.526 79.863,65.526 79.863,59.726 80.663,59.726 80.663,56.626 79.863,56.626 79.863,55.626" style="fill:none;stroke-width:0.050000mm;stroke:black"/>
<polygon points="84.913,55.626 84.913,56.626 84.113,56.626 84.113,59.726 84.913,59.726 84.913,65.526 84.113,65.526 84.113,68.626 84.913,68.626 84.913,69.626 98.913,69.626 98.913,68.626 99.713,68.626 99.713,65.526 98.913,65.526 98.913,59.726 99.713,59.726 99.713,56.626 98.913,56.626 98.913,55.626" style="fill:none;stroke-width:0.050000mm;stroke:black"/>
<polygon points="103.963,55.626 103.963,56.626 103.163,56.626 103.163,59.726 103.963,59.726 103.963,65.526 103.163,65.526 103.163,68.626 103.963,68.626 103.963,69.626 117.963,69.626 117.963,68.626 118.763,68.626 118.763,65.526 117.963,65.526 117.963,59.726 118.763,59.726 118.763,56.626 117.963,56.626 117.963,55.626" style="fill:none;stroke-width:0.050000mm;stroke:black"/>
<polygon points="123.013,55.626 123.013,56.626 122.213,56.626 122.213,59.726 123.013,59.726 123.013,65.526 122.213,65.526 122.213,68.626 123.013,68.626 123.013,69.626 137.013,69.626 137.013,68.626 137.813,68.626 137.813,65.526 137.013,65.526 137.013,59.726 137.813,59.726 137.813,56.626 137.013,56.626 137.013,55.626" style="fill:none;stroke-width:0.050000mm;stroke:black"/>
<polygon points="142.063,55.626 142.063,56.626 141.263,56.626 141.263,59.726 142.063,59.726 142.063,65.526 141.263,65.526 141.263,68.626 142.063,68.626 142.063,69.626 156.063,69.626 156.063,68.626 156.863,68.626 156.863,65.526 156.063,65.526 156.063,59.726 156.863,59.726 156.863,56.626 156.063,56.626 156.063,55.626" style="fill:none;stroke-width:0.050000mm;stroke:black"/>
<polygon points="161.113,55.626 161.113,56.626 160.313,56.626 160.313,59.726 161.113,59.726 161.113,65.526 160.313,65.526 160.313,68.626 161.113,68.626 161.113,69.626 175.113,69.626 175.113,68.626 175.913,68.626 175.913,65.526 175.113,65.526 175.113,59.726 175.913,59.726 175.913,56.626 175.113,56.626 175.113,55.626" style="fill:none;stroke-width:0.050000mm;stroke:black"/>
<polygon points="180.163,55.626 180.163,56.626 179.363,56.626 179.363,59.726 180.163,59.726 180.163,65.526 179.363,65.526 179.363,68.626 180.163,68.626 180.163,69.626 194.163,69.626 194.163,68.626 194.963,68.626 194.963,65.526 194.163,65.526 194.163,59.726 194.963,59.726 194.963,56.626 194.163,56.626 194.163,55.626" style="fill:none;stroke-width:0.050000mm;stroke:black"/>
<polygon points="199.213,55.626 199.213,56.626 198.413,56.626 198.413,59.726 199.213,59.726 199.213,65.526 198.413,65.526 198.413,68.626 199.213,68.626 199.213,69.626 213.213,69.626 213.213,68.626 214.013,68.626 214.013,65.526 213.213,65.526 213.213,59.726 214.013,59.726 214.013,56.626 213.213,56.626 213.213,55.626" style="fill:none;stroke-width:0.050000mm;stroke:black"/>
<polygon points="218.263,55.626 218.263,56.626 217.463,56.626 217.463,59.726 218.263,59.726 218.263,65.526 217.463,65.526 217.463,68.626 218.263,68.626 218.263,69.626 232.263,69.626 232.263,68.626 233.063,68.626 233.063,65.526 232.263,65.526 232.263,59.726 233.063,59.726 233.063,56.626 232.263,56.626 232.263,55.626" style="fill:none;stroke-width:0.050000mm;stroke:black"/>
<polygon points="237.313,55.626 237.313,56.626 236.513,56.626 236.513,59.726 237.313,59.726 237.313,65.526 236.513,65.526 236.513,68.626 237.313,68.626 237.313,69.626 251.313,69.626 251.313,68.626 252.113,68.626 252.113,65.526 251.313,65.526 251.313,59.726 252.113,59.726 252.113,56.626 251.313,56.626 251.313,55.626" style="fill:none;stroke-width:0.050000mm;stroke:black"/>
<polygon points="256.363,55.626 256.363,56.626 255.563,56.626 255.563,59.726 256.363,59.726 256.363,65.526 255.563,65.526 255.563,68.626 256.363,68.626 256.363,69.626 270.363,69.626 270.363,68.626 271.163,68.626 271.163,65.526 270.363,65.526 270.363,59.726 271.163,59.726 271.163,56.626 270.363,56.626 270.363,55.626" style="fill:none;stroke-width:0.050000mm;stroke:black"/>
<polygon points="37.288,36.576 37.288,37.576 36.488,37.576 36.488,40.676 37.288,40.676 37.288,46.476 36.488,46.476 36.488,49.576 37.288,49.576 37.288,50.576 51.288,50.576 51.288,49.576 52.088,49.576 52.088,46.476 51.288,46.476 51.288,40.676 52.088,40.676 52.088,37.576 51.288,37.576 51.288,36.576" style="fill:none;stroke-width:0.050000mm;stroke:black"/>
<polygon points="61.100,36.576 61.100,37.576 60.301,37.576 60.301,40.676 61.100,40.676 61.100,46.476 60.301,46.476 60.301,49.576 61.100,49.576 61.100,50.576 75.101,50.576 75.101,49.576 75.900,49.576 75.900,46.476 75.101,46.476 75.101,40.676 75.900,40.676 75.900,37.576 75.101,37.576 75.101,36.576" style="fill:none;stroke-width:0.050000mm;stroke:black"/>
<polygon points="80.150,36.576 80.150,37.576 79.351,37.576 79.351,40.676 80.150,40.676 80.150,46.476 79.351,46.476 79.351,49.576 80.150,49.576 80.150,50.576 94.150,50.576 94.150,49.576 94.950,49.576 94.950,46.476 94.150,46.476 94.150,40.676 94.950,40.676 94.950,37.576 94.150,37.576 94.150,36.576" style="fill:none;stroke-width:0.050000mm;stroke:black"/>
<polygon points="99.200,36.576 99.200,37.576 98.400,37.576 98.400,40.676 99.200,40.676 99.200,46.476 98.400,46.476 98.400,49.576 99.200,49.576 99.200,50.576 113.200,50.576 113.200,49.576 114.000,49.576 114.000,46.476 113.200,46.476 113.200,40.676 114.000,40.676 114.000,37.576 113.200,37.576 113.200,36.576" style="fill:none;stroke-width:0.050000mm;stroke:black"/>
<polygon points="118.250,36.576 118.250,37.576 117.450,37.576 117.450,40.676 118.250,40.676 118.250,46.476 117.450,46.476 117.450,49.576 118.250,49.576 118.250,50.576 132.251,50.576 132.251,49.576 133.050,49.576 133.050,46.476 132.251,46.476 132.251,40.676 133.050,40.676 133.050,37.576 132.251,37.576 132.251,36.576" style="fill:none;stroke-width:0.050000mm;stroke:black"/>
<polygon points="137.300,36.576 137.300,37.576 136.500,37.576 136.500,40.676 137.300,40.676 137.300,46.476 136.500,46.476 136.500,49.576 137.300,49.576 137.300,50.576 151.300,50.576 151.300,49.576 152.101,49.576 152.101,46.476 151.300,46.476 151.300,40.676 152.101,40.676 152.101,37.576 151.300,37.576 151.300,36.576" style="fill:none;stroke-width:0.050000mm;stroke:black"/>
<polygon points="156.351,36.576 156.351,37.576 155.550,37.576 155.550,40.676 156.351,40.676 156.351,46.476 155.550,46.476 155.550,49.576 156.351,49.576 156.351,50.576 170.351,50.576 170.351,49.576 171.151,49.576 171.151,46.476 170.351,46.476 170.351,40.676 171.151,40.676 171.151,37.576 170.351,37.576 170.351,36.576" style="fill:none;stroke-width:0.050000mm;stroke:black"/>
<polygon points="175.401,36.576 175.401,37.576 174.601,37.576 174.601,40.676 175.401,40.676 175.401,46.476 174.601,46.476 174.601,49.576 175.401,49.576 175.401,50.576 189.401,50.576 189.401,49.576 190.201,49.576 190.201,46.476 189.401,46.476 189.401,40.676 190.201,40.676 190.201,37.576 189.401,37.576 189.401,36.576" style="fill:none;stroke-width:0.050000mm;stroke:black"/>
<polygon points="194.451,36.576 194.451,37.576 193.651,37.576 193.651,40.676 194.451,40.676 194.451,46.476 193.651,46.476 193.651,49.576 194.451,49.576 194.451,50.576 208.451,50.576 208.451,49.576 209.251,49.576 209.251,46.476 208.451,46.476 208.451,40.676 209.251,40.676 209.251,37.576 208.451,37.576 208.451,36.576" style="fill:none;stroke-width:0.050000mm;stroke:black"/>
<polygon points="213.501,36.576 213.501,37.576 212.701,37.576 212.701,40.676 213.501,40.676 213.501,46.476 212.701,46.476 212.701,49.576 213.501,49.576 213.501,50.576 227.501,50.576 227.501,49.576 228.301,49.576 228.301,46.476 227.501,46.476 227.501,40.676 228.301,40.676 228.301,37.576 227.501,37.576 227.501,36.576" style="fill:none;stroke-width:0.050000mm;stroke:black"/>
<polygon points="232.551,36.576 232.551,37.576 231.751,37.576 231.751,40.676 232.551,40.676 232.551,46.476 231.751,46.476 231.751,49.576 232.551,49.576 232.551,50.576 246.551,50.576 246.551,49.576 247.351,49.576 247.351,46.476 246.551,46.476 246.551,40.676 247.351,40.676 247.351,37.576 246.551,37.576 246.551,36.576" style="fill:none;stroke-width:0.050000mm;stroke:black"/>
<polygon points="251.601,36.576 251.601,37.576 250.801,37.576 250.801,40.676 251.601,40.676 251.601,46.476 250.801,46.476 250.801,49.576 251.601,49.576 251.601,50.576 265.601,50.576 265.601,49.576 266.401,49.576 266.401,46.476 265.601,46.476 265.601,40.676 266.401,40.676 266.401,37.576 265.601,37.576 265.601,36.576" style="fill:none;stroke-width:0.050000mm;stroke:black"/>
<polygon points="270.651,36.576 270.651,37.576 269.851,37.576 269.851,40.676 270.651,40.676 270.651,46.476 269.851,46.476 269.851,49.576 270.651,49.576 270.651,50.576 284.651,50.576 284.651,49.576 285.451,49.576 285.451,46.476 284.651,46.476 284.651,40.676 285.451,40.676 285.451,37.576 284.651,37.576 284.651,36.576" style="fill:none;stroke-width:0.050000mm;stroke:black"/>
<polygon points="294.463,36.576 294.463,37.576 293.663,37.576 293.663,40.676 294.463,40.676 294.463,46.476 293.663,46.476 293.663,49.576 294.463,49.576 294.463,50.576 308.463,50.576 308.463,49.576 309.263,49.576 309.263,46.476 308.463,46.476 308.463,40.676 309.263,40.676 309.263,37.576 308.463,37.576 308.463,36.576" style="fill:none;stroke-width:0.050000mm;stroke:black"/>
<polygon points="32.526,17.526 32.526,18.526 31.725,18.526 31.725,21.626 32.526,21.626 32.526,27.425 31.725,27.425 31.725,30.526 32.526,30.526 32.526,31.526 46.526,31.526 46.526,30.526 47.325,30.526 47.325,27.425 46.526,27.425 46.526,21.626 47.325,21.626 47.325,18.526 46.526,18.526 46.526,17.526" style="fill:none;stroke-width:0.050000mm;stroke:black"/>
<polygon points="51.576,17.526 51.576,18.526 50.776,18.526 50.776,21.626 51.576,21.626 51.576,27.425 50.776,27.425 50.776,30.526 51.576,30.526 51.576,31.526 65.576,31.526 65.576,30.526 66.376,30.526 66.376,27.425 65.576,27.425 65.576,21.626 66.376,21.626 66.376,18.526 65.576,18.526 65.576,17.526" style="fill:none;stroke-width:0.050000mm;stroke:black"/>
<polygon points="70.626,17.526 70.626,18.526 69.826,18.526 69.826,21.626 70.626,21.626 70.626,27.425 69.826,27.425 69.826,30.526 70.626,30.526 70.626,31.526 84.626,31.526 84.626,30.526 85.426,30.526 85.426,27.425 84.626,27.425 84.626,21.626 85.426,21.626 85.426,18.526 84.626,18.526 84.626,17.526" style="fill:none;stroke-width:0.050000mm;stroke:black"/>
<polygon points="89.676,17.526 89.676,18.526 88.876,18.526 88.876,21.626 89.676,21.626 89.676,27.425 88.876,27.425 88.876,30.526 89.676,30.526 89.676,31.526 103.676,31.526 103.676,30.526 104.476,30.526 104.476,27.425 103.676,27.425 103.676,21.626 104.476,21.626 104.476,18.526 103.676,18.526 103.676,17.526" style="fill:none;stroke-width:0.050000mm;stroke:black"/>
<polygon points="108.726,17.526 108.726,18.526 107.926,18.526 107.926,21.626 108.726,21.626 108.726,27.425 107.926,27.425 107.926,30.526 108.726,30.526 108.726,31.526 122.726,31.526 122.726,30.526 123.525,30.526 123.525,27.425 122.726,27.425 122.726,21.626 123.525,21.626 123.525,18.526 122.726,18.526 122.726,17.526" style="fill:none;stroke-width:0.050000mm;stroke:black"/>
<polygon points="127.776,17.526 127.776,18.526 126.976,18.526 126.976,21.626 127.776,21.626 127.776,27.425 126.976,27.425 126.976,30.526 127.776,30.526 127.776,31.526 141.776,31.526 141.776,30.526 142.576,30.526 142.576,27.425 141.776,27.425 141.776,21.626 142.576,21.626 142.576,18.526 141.776,18.526 141.776,17.526" style="fill:none;stroke-width:0.050000mm;stroke:black"/>
<polygon points="146.826,17.526 146.826,18.526 146.026,18.526 146.026,21.626 146.826,21.626 146.826,27.425 146.026,27.425 146.026,30.526 146.826,30.526 146.826,31.526 160.826,31.526 160.826,30.526 161.626,30.526 161.626,27.425 160.826,27.425 160.826,21.626 161.626,21.626 161.626,18.526 160.826,18.526 160.826,17.526" style="fill:none;stroke-width:0.050000mm;stroke:black"/>
<polygon points="165.876,17.526 165.876,18.526 165.076,18.526 165.076,21.626 165.876,21.626 165.876,27.425 165.076,27.425 165.076,30.526 165.876,30.526 165.876,31.526 179.876,31.526 179.876,30.526 180.676,30.526 180.676,27.425 179.876,27.425 179.876,21.626 180.676,21.626 180.676,18.526 179.876,18.526 179.876,17.526" style="fill:none;stroke-width:0.050000mm;stroke:black"/>
<polygon points="184.926,17.526 184.926,18.526 184.126,18.526 184.126,21.626 184.926,21.626 184.926,27.425 184.126,27.425 184.126,30.526 184.926,30.526 184.926,31.526 198.926,31.526 198.926,30.526 199.726,30.526 199.726,27.425 198.926,27.425 198.926,21.626 199.726,21.626 199.726,18.526 198.926,18.526 198.926,17.526" style="fill:none;stroke-width:0.050000mm;stroke:black"/>
<polygon points="203.976,17.526 203.976,18.526 203.176,18.526 203.176,21.626 203.976,21.626 203.976,27.425 203.176,27.425 203.176,30.526 203.976,30.526 203.976,31.526 217.976,31.526 217.976,30.526 218.776,30.526 218.776,27.425 217.976,27.425 217.976,21.626 218.776,21.626 218.776,18.526 217.976,18.526 217.976,17.526" style="fill:none;stroke-width:0.050000mm;stroke:black"/>
<polygon points="223.026,17.526 223.026,18.526 222.226,18.526 222.226,21.626 223.026,21.626 223.026,27.425 222.226,27.425 222.226,30.526 223.026,30.526 223.026,31.526 237.026,31.526 237.026,30.526 237.826,30.526 237.826,27.425 237.026,27.425 237.026,21.626 237.826,21.626 237.826,18.526 237.026,18.526 237.026,17.526" style="fill:none;stroke-width:0.050000mm;stroke:black"/>
<polygon points="242.076,17.526 242.076,18.526 241.276,18.526 241.276,21.626 242.076,21.626 242.076,27.425 241.276,27.425 241.276,30.526 242.076,30.526 242.076,31.526 256.076,31.526 256.076,30.526 256.876,30.526 256.876,27.425 256.076,27.425 256.076,21.626 256.876,21.626 256.876,18.526 256.076,18.526 256.076,17.526" style="fill:none;stroke-width:0.050000mm;stroke:black"/>
<polygon points="261.126,17.526 261.126,18.526 260.326,18.526 260.326,21.626 261.126,21.626 261.126,27.425 260.326,27.425 260.326,30.526 261.126,30.526 261.126,31.526 275.126,31.526 275.126,30.526 275.926,30.526 275.926,27.425 275.126,27.425 275.126,21.626 275.926,21.626 275.926,18.526 275.126,18.526 275.126,17.526" style="fill:none;stroke-width:0.050000mm;stroke:black"/>
<polygon points="280.176,17.526 280.176,18.526 279.376,18.526 279.376,21.626 280.176,21.626 280.176,27.425 279.376,27.425 279.376,30.526 280.176,30.526 280.176,31.526 294.176,31.526 294.176,30.526 294.976,30.526 294.976,27.425 294.176,27.425 294.176,21.626 294.976,21.626 294.976,18.526 294.176,18.526 294.176,17.526" style="fill:none;stroke-width:0.050000mm;stroke:black"/>
<polygon points="299.226,17.526 299.226,18.526 298.426,18.526 298.426,21.626 299.226,21.626 299.226,27.425 298.426,27.425 298.426,30.526 299.226,30.526 299.226,31.526 313.226,31.526 313.226,30.526 314.026,30.526 314.026,27.425 313.226,27.425 313.226,21.626 314.026,21.626 314.026,18.526 313.226,18.526 313.226,17.526" style="fill:none;stroke-width:0.050000mm;stroke:black"/>
</svg>
