  0
SECTION
  2
HEADER
  9
$ACADVER
  1
AC1009
  9
$FILLMODE
 70
 0
  9
$SPLFRAME
 70
 1
  9
$EXTMIN
 10
0
 20
0
 30
0.0
  9
$EXTMAX
 10
1058.33
 20
1058.33
 30
0.0
  0
ENDSEC
  0
SECTION
  2
TABLES
  0
TABLE
  2
LAYER
 70
1
  0
LAYER
  2
0
 70
     0
 62
     7
  6
CONTINUOUS
  0
ENDTAB
  0
ENDSEC
  0
SECTION
  2
ENTITIES
  0
LINE
  8
0
 62
     0
 10
320.846
 20
115.616
 30
0.0
 11
321.239
 21
115.601
 31
0.0
  0
LINE
  8
0
 62
     0
 10
321.239
 20
115.601
 30
0.0
 11
321.629
 21
115.554
 31
0.0
  0
LINE
  8
0
 62
     0
 10
321.629
 20
115.554
 30
0.0
 11
322.013
 21
115.478
 31
0.0
  0
LINE
  8
0
 62
     0
 10
322.013
 20
115.478
 30
0.0
 11
322.392
 21
115.372
 31
0.0
  0
LINE
  8
0
 62
     0
 10
322.392
 20
115.372
 30
0.0
 11
322.76
 21
115.236
 31
0.0
  0
LINE
  8
0
 62
     0
 10
322.76
 20
115.236
 30
0.0
 11
323.116
 21
115.072
 31
0.0
  0
LINE
  8
0
 62
     0
 10
323.116
 20
115.072
 30
0.0
 11
323.459
 21
114.88
 31
0.0
  0
LINE
  8
0
 62
     0
 10
323.459
 20
114.88
 30
0.0
 11
323.784
 21
114.661
 31
0.0
  0
LINE
  8
0
 62
     0
 10
323.784
 20
114.661
 30
0.0
 11
324.094
 21
114.419
 31
0.0
  0
LINE
  8
0
 62
     0
 10
324.094
 20
114.419
 30
0.0
 11
324.382
 21
114.151
 31
0.0
  0
LINE
  8
0
 62
     0
 10
324.382
 20
114.151
 30
0.0
 11
324.648
 21
113.863
 31
0.0
  0
LINE
  8
0
 62
     0
 10
324.648
 20
113.863
 30
0.0
 11
324.892
 21
113.555
 31
0.0
  0
LINE
  8
0
 62
     0
 10
324.892
 20
113.555
 30
0.0
 11
325.109
 21
113.229
 31
0.0
  0
LINE
  8
0
 62
     0
 10
325.109
 20
113.229
 30
0.0
 11
325.301
 21
112.886
 31
0.0
  0
LINE
  8
0
 62
     0
 10
325.301
 20
112.886
 30
0.0
 11
325.465
 21
112.529
 31
0.0
  0
LINE
  8
0
 62
     0
 10
325.465
 20
112.529
 30
0.0
 11
325.602
 21
112.161
 31
0.0
  0
LINE
  8
0
 62
     0
 10
325.602
 20
112.161
 30
0.0
 11
325.708
 21
111.784
 31
0.0
  0
LINE
  8
0
 62
     0
 10
325.708
 20
111.784
 30
0.0
 11
325.785
 21
111.399
 31
0.0
  0
LINE
  8
0
 62
     0
 10
325.785
 20
111.399
 30
0.0
 11
325.83
 21
111.009
 31
0.0
  0
LINE
  8
0
 62
     0
 10
325.83
 20
111.009
 30
0.0
 11
325.845
 21
110.615
 31
0.0
  0
LINE
  8
0
 62
     0
 10
325.845
 20
110.615
 30
0.0
 11
325.847
 21
5.36607
 31
0.0
  0
LINE
  8
0
 62
     0
 10
325.847
 20
5.36607
 30
0.0
 11
325.83
 21
4.97198
 31
0.0
  0
LINE
  8
0
 62
     0
 10
325.83
 20
4.97198
 30
0.0
 11
325.785
 21
4.58198
 31
0.0
  0
LINE
  8
0
 62
     0
 10
325.785
 20
4.58198
 30
0.0
 11
325.708
 21
4.19749
 31
0.0
  0
LINE
  8
0
 62
     0
 10
325.708
 20
4.19749
 30
0.0
 11
325.602
 21
3.81991
 31
0.0
  0
LINE
  8
0
 62
     0
 10
325.602
 20
3.81991
 30
0.0
 11
325.465
 21
3.45199
 31
0.0
  0
LINE
  8
0
 62
     0
 10
325.465
 20
3.45199
 30
0.0
 11
325.301
 21
3.09507
 31
0.0
  0
LINE
  8
0
 62
     0
 10
325.301
 20
3.09507
 30
0.0
 11
325.109
 21
2.75194
 31
0.0
  0
LINE
  8
0
 62
     0
 10
325.109
 20
2.75194
 30
0.0
 11
324.892
 21
2.42673
 31
0.0
  0
LINE
  8
0
 62
     0
 10
324.892
 20
2.42673
 30
0.0
 11
324.648
 21
2.11805
 31
0.0
  0
LINE
  8
0
 62
     0
 10
324.648
 20
2.11805
 30
0.0
 11
324.382
 21
1.83003
 31
0.0
  0
LINE
  8
0
 62
     0
 10
324.382
 20
1.83003
 30
0.0
 11
324.094
 21
1.5627
 31
0.0
  0
LINE
  8
0
 62
     0
 10
324.094
 20
1.5627
 30
0.0
 11
323.784
 21
1.32016
 31
0.0
  0
LINE
  8
0
 62
     0
 10
323.784
 20
1.32016
 30
0.0
 11
323.459
 21
1.10105
 31
0.0
  0
LINE
  8
0
 62
     0
 10
323.459
 20
1.10105
 30
0.0
 11
323.116
 21
0.909507
 31
0.0
  0
LINE
  8
0
 62
     0
 10
323.116
 20
0.909507
 30
0.0
 11
322.76
 21
0.745518
 31
0.0
  0
LINE
  8
0
 62
     0
 10
322.76
 20
0.745518
 30
0.0
 11
322.392
 21
0.609092
 31
0.0
  0
LINE
  8
0
 62
     0
 10
322.392
 20
0.609092
 30
0.0
 11
322.013
 21
0.502984
 31
0.0
  0
LINE
  8
0
 62
     0
 10
322.013
 20
0.502984
 30
0.0
 11
321.629
 21
0.427193
 31
0.0
  0
LINE
  8
0
 62
     0
 10
321.629
 20
0.427193
 30
0.0
 11
321.239
 21
0.38034
 31
0.0
  0
LINE
  8
0
 62
     0
 10
321.239
 20
0.38034
 30
0.0
 11
320.846
 21
0.365181
 31
0.0
  0
LINE
  8
0
 62
     0
 10
320.846
 20
0.365181
 30
0.0
 11
5.09598
 21
0.365181
 31
0.0
  0
LINE
  8
0
 62
     0
 10
5.09598
 20
0.365181
 30
0.0
 11
4.70186
 21
0.38034
 31
0.0
  0
LINE
  8
0
 62
     0
 10
4.70186
 20
0.38034
 30
0.0
 11
4.3119
 21
0.427193
 31
0.0
  0
LINE
  8
0
 62
     0
 10
4.3119
 20
0.427193
 30
0.0
 11
3.9274
 21
0.502984
 31
0.0
  0
LINE
  8
0
 62
     0
 10
3.9274
 20
0.502984
 30
0.0
 11
3.54983
 21
0.609092
 31
0.0
  0
LINE
  8
0
 62
     0
 10
3.54983
 20
0.609092
 30
0.0
 11
3.18189
 21
0.745518
 31
0.0
  0
LINE
  8
0
 62
     0
 10
3.18189
 20
0.745518
 30
0.0
 11
2.82498
 21
0.909507
 31
0.0
  0
LINE
  8
0
 62
     0
 10
2.82498
 20
0.909507
 30
0.0
 11
2.48185
 21
1.10105
 31
0.0
  0
LINE
  8
0
 62
     0
 10
2.48185
 20
1.10105
 30
0.0
 11
2.15663
 21
1.32016
 31
0.0
  0
LINE
  8
0
 62
     0
 10
2.15663
 20
1.32016
 30
0.0
 11
1.84795
 21
1.5627
 31
0.0
  0
LINE
  8
0
 62
     0
 10
1.84795
 20
1.5627
 30
0.0
 11
1.55994
 21
1.83003
 31
0.0
  0
LINE
  8
0
 62
     0
 10
1.55994
 20
1.83003
 30
0.0
 11
1.2926
 21
2.11805
 31
0.0
  0
LINE
  8
0
 62
     0
 10
1.2926
 20
2.11805
 30
0.0
 11
1.05006
 21
2.42673
 31
0.0
  0
LINE
  8
0
 62
     0
 10
1.05006
 20
2.42673
 30
0.0
 11
0.830957
 21
2.75194
 31
0.0
  0
LINE
  8
0
 62
     0
 10
0.830957
 20
2.75194
 30
0.0
 11
0.63941
 21
3.09507
 31
0.0
  0
LINE
  8
0
 62
     0
 10
0.63941
 20
3.09507
 30
0.0
 11
0.475424
 21
3.45199
 31
0.0
  0
LINE
  8
0
 62
     0
 10
0.475424
 20
3.45199
 30
0.0
 11
0.338998
 21
3.81991
 31
0.0
  0
LINE
  8
0
 62
     0
 10
0.338998
 20
3.81991
 30
0.0
 11
0.232888
 21
4.19749
 31
0.0
  0
LINE
  8
0
 62
     0
 10
0.232888
 20
4.19749
 30
0.0
 11
0.157097
 21
4.58198
 31
0.0
  0
LINE
  8
0
 62
     0
 10
0.157097
 20
4.58198
 30
0.0
 11
0.110243
 21
4.97198
 31
0.0
  0
LINE
  8
0
 62
     0
 10
0.110243
 20
4.97198
 30
0.0
 11
0.0950846
 21
5.36607
 31
0.0
  0
LINE
  8
0
 62
     0
 10
0.0950846
 20
5.36607
 30
0.0
 11
0.0950846
 21
110.615
 31
0.0
  0
LINE
  8
0
 62
     0
 10
0.0950846
 20
110.615
 30
0.0
 11
0.110243
 21
111.009
 31
0.0
  0
LINE
  8
0
 62
     0
 10
0.110243
 20
111.009
 30
0.0
 11
0.157097
 21
111.399
 31
0.0
  0
LINE
  8
0
 62
     0
 10
0.157097
 20
111.399
 30
0.0
 11
0.232888
 21
111.784
 31
0.0
  0
LINE
  8
0
 62
     0
 10
0.232888
 20
111.784
 30
0.0
 11
0.338998
 21
112.161
 31
0.0
  0
LINE
  8
0
 62
     0
 10
0.338998
 20
112.161
 30
0.0
 11
0.475424
 21
112.529
 31
0.0
  0
LINE
  8
0
 62
     0
 10
0.475424
 20
112.529
 30
0.0
 11
0.63941
 21
112.886
 31
0.0
  0
LINE
  8
0
 62
     0
 10
0.63941
 20
112.886
 30
0.0
 11
0.830957
 21
113.229
 31
0.0
  0
LINE
  8
0
 62
     0
 10
0.830957
 20
113.229
 30
0.0
 11
1.05006
 21
113.555
 31
0.0
  0
LINE
  8
0
 62
     0
 10
1.05006
 20
113.555
 30
0.0
 11
1.2926
 21
113.863
 31
0.0
  0
LINE
  8
0
 62
     0
 10
1.2926
 20
113.863
 30
0.0
 11
1.55994
 21
114.151
 31
0.0
  0
LINE
  8
0
 62
     0
 10
1.55994
 20
114.151
 30
0.0
 11
1.84795
 21
114.419
 31
0.0
  0
LINE
  8
0
 62
     0
 10
1.84795
 20
114.419
 30
0.0
 11
2.15663
 21
114.661
 31
0.0
  0
LINE
  8
0
 62
     0
 10
2.15663
 20
114.661
 30
0.0
 11
2.48185
 21
114.88
 31
0.0
  0
LINE
  8
0
 62
     0
 10
2.48185
 20
114.88
 30
0.0
 11
2.82498
 21
115.072
 31
0.0
  0
LINE
  8
0
 62
     0
 10
2.82498
 20
115.072
 30
0.0
 11
3.18189
 21
115.236
 31
0.0
  0
LINE
  8
0
 62
     0
 10
3.18189
 20
115.236
 30
0.0
 11
3.54983
 21
115.372
 31
0.0
  0
LINE
  8
0
 62
     0
 10
3.54983
 20
115.372
 30
0.0
 11
3.9274
 21
115.478
 31
0.0
  0
LINE
  8
0
 62
     0
 10
3.9274
 20
115.478
 30
0.0
 11
4.3119
 21
115.554
 31
0.0
  0
LINE
  8
0
 62
     0
 10
4.3119
 20
115.554
 30
0.0
 11
4.70186
 21
115.601
 31
0.0
  0
LINE
  8
0
 62
     0
 10
4.70186
 20
115.601
 30
0.0
 11
5.09598
 21
115.616
 31
0.0
  0
LINE
  8
0
 62
     0
 10
5.09598
 20
115.616
 30
0.0
 11
320.846
 21
115.616
 31
0.0
  0
LINE
  8
0
 62
     0
 10
144.063
 20
26.8911
 30
0.0
 11
144.063
 21
25.8906
 31
0.0
  0
LINE
  8
0
 62
     0
 10
144.063
 20
25.8906
 30
0.0
 11
143.264
 21
25.8906
 31
0.0
  0
LINE
  8
0
 62
     0
 10
143.264
 20
25.8906
 30
0.0
 11
143.264
 21
22.7914
 31
0.0
  0
LINE
  8
0
 62
     0
 10
143.264
 20
22.7914
 30
0.0
 11
144.063
 21
22.7914
 31
0.0
  0
LINE
  8
0
 62
     0
 10
144.063
 20
22.7914
 30
0.0
 11
144.063
 21
22.1905
 31
0.0
  0
LINE
  8
0
 62
     0
 10
144.063
 20
22.1905
 30
0.0
 11
104.439
 21
22.1905
 31
0.0
  0
LINE
  8
0
 62
     0
 10
104.439
 20
22.1905
 30
0.0
 11
104.439
 21
25.4207
 31
0.0
  0
LINE
  8
0
 62
     0
 10
104.439
 20
25.4207
 30
0.0
 11
97.6891
 21
25.4207
 31
0.0
  0
LINE
  8
0
 62
     0
 10
97.6891
 20
25.4207
 30
0.0
 11
97.6891
 21
22.1905
 31
0.0
  0
LINE
  8
0
 62
     0
 10
97.6891
 20
22.1905
 30
0.0
 11
96.8636
 21
22.1905
 31
0.0
  0
LINE
  8
0
 62
     0
 10
96.8636
 20
22.1905
 30
0.0
 11
96.8636
 21
19.3904
 31
0.0
  0
LINE
  8
0
 62
     0
 10
96.8636
 20
19.3904
 30
0.0
 11
97.6891
 21
19.3904
 31
0.0
  0
LINE
  8
0
 62
     0
 10
97.6891
 20
19.3904
 30
0.0
 11
97.6891
 21
13.1217
 31
0.0
  0
LINE
  8
0
 62
     0
 10
97.6891
 20
13.1217
 30
0.0
 11
99.4131
 21
13.1217
 31
0.0
  0
LINE
  8
0
 62
     0
 10
99.4131
 20
13.1217
 30
0.0
 11
99.4131
 21
11.92
 31
0.0
  0
LINE
  8
0
 62
     0
 10
99.4131
 20
11.92
 30
0.0
 11
102.713
 21
11.92
 31
0.0
  0
LINE
  8
0
 62
     0
 10
102.713
 20
11.92
 30
0.0
 11
102.713
 21
13.1217
 31
0.0
  0
LINE
  8
0
 62
     0
 10
102.713
 20
13.1217
 30
0.0
 11
104.439
 21
13.1217
 31
0.0
  0
LINE
  8
0
 62
     0
 10
104.439
 20
13.1217
 30
0.0
 11
104.439
 21
17.592
 31
0.0
  0
LINE
  8
0
 62
     0
 10
104.439
 20
17.592
 30
0.0
 11
144.063
 21
17.592
 31
0.0
  0
LINE
  8
0
 62
     0
 10
144.063
 20
17.592
 30
0.0
 11
144.063
 21
16.9912
 31
0.0
  0
LINE
  8
0
 62
     0
 10
144.063
 20
16.9912
 30
0.0
 11
143.264
 21
16.9912
 31
0.0
  0
LINE
  8
0
 62
     0
 10
143.264
 20
16.9912
 30
0.0
 11
143.264
 21
13.8906
 31
0.0
  0
LINE
  8
0
 62
     0
 10
143.264
 20
13.8906
 30
0.0
 11
144.063
 21
13.8906
 31
0.0
  0
LINE
  8
0
 62
     0
 10
144.063
 20
13.8906
 30
0.0
 11
144.063
 21
12.8902
 31
0.0
  0
LINE
  8
0
 62
     0
 10
144.063
 20
12.8902
 30
0.0
 11
158.064
 21
12.8902
 31
0.0
  0
LINE
  8
0
 62
     0
 10
158.064
 20
12.8902
 30
0.0
 11
158.064
 21
13.8906
 31
0.0
  0
LINE
  8
0
 62
     0
 10
158.064
 20
13.8906
 30
0.0
 11
158.863
 21
13.8906
 31
0.0
  0
LINE
  8
0
 62
     0
 10
158.863
 20
13.8906
 30
0.0
 11
158.863
 21
16.9912
 31
0.0
  0
LINE
  8
0
 62
     0
 10
158.863
 20
16.9912
 30
0.0
 11
158.064
 21
16.9912
 31
0.0
  0
LINE
  8
0
 62
     0
 10
158.064
 20
16.9912
 30
0.0
 11
158.064
 21
17.592
 31
0.0
  0
LINE
  8
0
 62
     0
 10
158.064
 20
17.592
 30
0.0
 11
197.688
 21
17.592
 31
0.0
  0
LINE
  8
0
 62
     0
 10
197.688
 20
17.592
 30
0.0
 11
197.688
 21
13.1217
 31
0.0
  0
LINE
  8
0
 62
     0
 10
197.688
 20
13.1217
 30
0.0
 11
199.413
 21
13.1217
 31
0.0
  0
LINE
  8
0
 62
     0
 10
199.413
 20
13.1217
 30
0.0
 11
199.413
 21
11.92
 31
0.0
  0
LINE
  8
0
 62
     0
 10
199.413
 20
11.92
 30
0.0
 11
202.714
 21
11.92
 31
0.0
  0
LINE
  8
0
 62
     0
 10
202.714
 20
11.92
 30
0.0
 11
202.714
 21
13.1217
 31
0.0
  0
LINE
  8
0
 62
     0
 10
202.714
 20
13.1217
 30
0.0
 11
204.439
 21
13.1217
 31
0.0
  0
LINE
  8
0
 62
     0
 10
204.439
 20
13.1217
 30
0.0
 11
204.439
 21
19.3904
 31
0.0
  0
LINE
  8
0
 62
     0
 10
204.439
 20
19.3904
 30
0.0
 11
205.263
 21
19.3904
 31
0.0
  0
LINE
  8
0
 62
     0
 10
205.263
 20
19.3904
 30
0.0
 11
205.263
 21
22.1905
 31
0.0
  0
LINE
  8
0
 62
     0
 10
205.263
 20
22.1905
 30
0.0
 11
204.439
 21
22.1905
 31
0.0
  0
LINE
  8
0
 62
     0
 10
204.439
 20
22.1905
 30
0.0
 11
204.439
 21
25.4207
 31
0.0
  0
LINE
  8
0
 62
     0
 10
204.439
 20
25.4207
 30
0.0
 11
197.688
 21
25.4207
 31
0.0
  0
LINE
  8
0
 62
     0
 10
197.688
 20
25.4207
 30
0.0
 11
197.688
 21
22.1905
 31
0.0
  0
LINE
  8
0
 62
     0
 10
197.688
 20
22.1905
 30
0.0
 11
158.064
 21
22.1905
 31
0.0
  0
LINE
  8
0
 62
     0
 10
158.064
 20
22.1905
 30
0.0
 11
158.064
 21
22.7914
 31
0.0
  0
LINE
  8
0
 62
     0
 10
158.064
 20
22.7914
 30
0.0
 11
158.863
 21
22.7914
 31
0.0
  0
LINE
  8
0
 62
     0
 10
158.863
 20
22.7914
 30
0.0
 11
158.863
 21
25.8906
 31
0.0
  0
LINE
  8
0
 62
     0
 10
158.863
 20
25.8906
 30
0.0
 11
158.064
 21
25.8906
 31
0.0
  0
LINE
  8
0
 62
     0
 10
158.064
 20
25.8906
 30
0.0
 11
158.064
 21
26.8911
 31
0.0
  0
LINE
  8
0
 62
     0
 10
158.064
 20
26.8911
 30
0.0
 11
144.063
 21
26.8911
 31
0.0
  0
LINE
  8
0
 62
     0
 10
25.0017
 20
26.8911
 30
0.0
 11
25.0017
 21
25.8906
 31
0.0
  0
LINE
  8
0
 62
     0
 10
25.0017
 20
25.8906
 30
0.0
 11
24.2011
 21
25.8906
 31
0.0
  0
LINE
  8
0
 62
     0
 10
24.2011
 20
25.8906
 30
0.0
 11
24.2011
 21
22.7914
 31
0.0
  0
LINE
  8
0
 62
     0
 10
24.2011
 20
22.7914
 30
0.0
 11
25.0017
 21
22.7914
 31
0.0
  0
LINE
  8
0
 62
     0
 10
25.0017
 20
22.7914
 30
0.0
 11
25.0017
 21
16.9912
 31
0.0
  0
LINE
  8
0
 62
     0
 10
25.0017
 20
16.9912
 30
0.0
 11
24.2011
 21
16.9912
 31
0.0
  0
LINE
  8
0
 62
     0
 10
24.2011
 20
16.9912
 30
0.0
 11
24.2011
 21
13.8906
 31
0.0
  0
LINE
  8
0
 62
     0
 10
24.2011
 20
13.8906
 30
0.0
 11
25.0017
 21
13.8906
 31
0.0
  0
LINE
  8
0
 62
     0
 10
25.0017
 20
13.8906
 30
0.0
 11
25.0017
 21
12.8902
 31
0.0
  0
LINE
  8
0
 62
     0
 10
25.0017
 20
12.8902
 30
0.0
 11
39.0013
 21
12.8902
 31
0.0
  0
LINE
  8
0
 62
     0
 10
39.0013
 20
12.8902
 30
0.0
 11
39.0013
 21
13.8906
 31
0.0
  0
LINE
  8
0
 62
     0
 10
39.0013
 20
13.8906
 30
0.0
 11
39.8018
 21
13.8906
 31
0.0
  0
LINE
  8
0
 62
     0
 10
39.8018
 20
13.8906
 30
0.0
 11
39.8018
 21
16.9912
 31
0.0
  0
LINE
  8
0
 62
     0
 10
39.8018
 20
16.9912
 30
0.0
 11
39.0013
 21
16.9912
 31
0.0
  0
LINE
  8
0
 62
     0
 10
39.0013
 20
16.9912
 30
0.0
 11
39.0013
 21
22.7914
 31
0.0
  0
LINE
  8
0
 62
     0
 10
39.0013
 20
22.7914
 30
0.0
 11
39.8018
 21
22.7914
 31
0.0
  0
LINE
  8
0
 62
     0
 10
39.8018
 20
22.7914
 30
0.0
 11
39.8018
 21
25.8906
 31
0.0
  0
LINE
  8
0
 62
     0
 10
39.8018
 20
25.8906
 30
0.0
 11
39.0013
 21
25.8906
 31
0.0
  0
LINE
  8
0
 62
     0
 10
39.0013
 20
25.8906
 30
0.0
 11
39.0013
 21
26.8911
 31
0.0
  0
LINE
  8
0
 62
     0
 10
39.0013
 20
26.8911
 30
0.0
 11
25.0017
 21
26.8911
 31
0.0
  0
LINE
  8
0
 62
     0
 10
48.8128
 20
26.8911
 30
0.0
 11
48.8128
 21
25.8906
 31
0.0
  0
LINE
  8
0
 62
     0
 10
48.8128
 20
25.8906
 30
0.0
 11
48.0138
 21
25.8906
 31
0.0
  0
LINE
  8
0
 62
     0
 10
48.0138
 20
25.8906
 30
0.0
 11
48.0138
 21
22.7914
 31
0.0
  0
LINE
  8
0
 62
     0
 10
48.0138
 20
22.7914
 30
0.0
 11
48.8128
 21
22.7914
 31
0.0
  0
LINE
  8
0
 62
     0
 10
48.8128
 20
22.7914
 30
0.0
 11
48.8128
 21
16.9912
 31
0.0
  0
LINE
  8
0
 62
     0
 10
48.8128
 20
16.9912
 30
0.0
 11
48.0138
 21
16.9912
 31
0.0
  0
LINE
  8
0
 62
     0
 10
48.0138
 20
16.9912
 30
0.0
 11
48.0138
 21
13.8906
 31
0.0
  0
LINE
  8
0
 62
     0
 10
48.0138
 20
13.8906
 30
0.0
 11
48.8128
 21
13.8906
 31
0.0
  0
LINE
  8
0
 62
     0
 10
48.8128
 20
13.8906
 30
0.0
 11
48.8128
 21
12.8902
 31
0.0
  0
LINE
  8
0
 62
     0
 10
48.8128
 20
12.8902
 30
0.0
 11
62.8138
 21
12.8902
 31
0.0
  0
LINE
  8
0
 62
     0
 10
62.8138
 20
12.8902
 30
0.0
 11
62.8138
 21
13.8906
 31
0.0
  0
LINE
  8
0
 62
     0
 10
62.8138
 20
13.8906
 30
0.0
 11
63.6129
 21
13.8906
 31
0.0
  0
LINE
  8
0
 62
     0
 10
63.6129
 20
13.8906
 30
0.0
 11
63.6129
 21
16.9912
 31
0.0
  0
LINE
  8
0
 62
     0
 10
63.6129
 20
16.9912
 30
0.0
 11
62.8138
 21
16.9912
 31
0.0
  0
LINE
  8
0
 62
     0
 10
62.8138
 20
16.9912
 30
0.0
 11
62.8138
 21
22.7914
 31
0.0
  0
LINE
  8
0
 62
     0
 10
62.8138
 20
22.7914
 30
0.0
 11
63.6129
 21
22.7914
 31
0.0
  0
LINE
  8
0
 62
     0
 10
63.6129
 20
22.7914
 30
0.0
 11
63.6129
 21
25.8906
 31
0.0
  0
LINE
  8
0
 62
     0
 10
63.6129
 20
25.8906
 30
0.0
 11
62.8138
 21
25.8906
 31
0.0
  0
LINE
  8
0
 62
     0
 10
62.8138
 20
25.8906
 30
0.0
 11
62.8138
 21
26.8911
 31
0.0
  0
LINE
  8
0
 62
     0
 10
62.8138
 20
26.8911
 30
0.0
 11
48.8128
 21
26.8911
 31
0.0
  0
LINE
  8
0
 62
     0
 10
72.6267
 20
26.8911
 30
0.0
 11
72.6267
 21
25.8906
 31
0.0
  0
LINE
  8
0
 62
     0
 10
72.6267
 20
25.8906
 30
0.0
 11
71.8263
 21
25.8906
 31
0.0
  0
LINE
  8
0
 62
     0
 10
71.8263
 20
25.8906
 30
0.0
 11
71.8263
 21
22.7914
 31
0.0
  0
LINE
  8
0
 62
     0
 10
71.8263
 20
22.7914
 30
0.0
 11
72.6267
 21
22.7914
 31
0.0
  0
LINE
  8
0
 62
     0
 10
72.6267
 20
22.7914
 30
0.0
 11
72.6267
 21
16.9912
 31
0.0
  0
LINE
  8
0
 62
     0
 10
72.6267
 20
16.9912
 30
0.0
 11
71.8263
 21
16.9912
 31
0.0
  0
LINE
  8
0
 62
     0
 10
71.8263
 20
16.9912
 30
0.0
 11
71.8263
 21
13.8906
 31
0.0
  0
LINE
  8
0
 62
     0
 10
71.8263
 20
13.8906
 30
0.0
 11
72.6267
 21
13.8906
 31
0.0
  0
LINE
  8
0
 62
     0
 10
72.6267
 20
13.8906
 30
0.0
 11
72.6267
 21
12.8902
 31
0.0
  0
LINE
  8
0
 62
     0
 10
72.6267
 20
12.8902
 30
0.0
 11
86.6263
 21
12.8902
 31
0.0
  0
LINE
  8
0
 62
     0
 10
86.6263
 20
12.8902
 30
0.0
 11
86.6263
 21
13.8906
 31
0.0
  0
LINE
  8
0
 62
     0
 10
86.6263
 20
13.8906
 30
0.0
 11
87.4268
 21
13.8906
 31
0.0
  0
LINE
  8
0
 62
     0
 10
87.4268
 20
13.8906
 30
0.0
 11
87.4268
 21
16.9912
 31
0.0
  0
LINE
  8
0
 62
     0
 10
87.4268
 20
16.9912
 30
0.0
 11
86.6263
 21
16.9912
 31
0.0
  0
LINE
  8
0
 62
     0
 10
86.6263
 20
16.9912
 30
0.0
 11
86.6263
 21
22.7914
 31
0.0
  0
LINE
  8
0
 62
     0
 10
86.6263
 20
22.7914
 30
0.0
 11
87.4268
 21
22.7914
 31
0.0
  0
LINE
  8
0
 62
     0
 10
87.4268
 20
22.7914
 30
0.0
 11
87.4268
 21
25.8906
 31
0.0
  0
LINE
  8
0
 62
     0
 10
87.4268
 20
25.8906
 30
0.0
 11
86.6263
 21
25.8906
 31
0.0
  0
LINE
  8
0
 62
     0
 10
86.6263
 20
25.8906
 30
0.0
 11
86.6263
 21
26.8911
 31
0.0
  0
LINE
  8
0
 62
     0
 10
86.6263
 20
26.8911
 30
0.0
 11
72.6267
 21
26.8911
 31
0.0
  0
LINE
  8
0
 62
     0
 10
213.12
 20
26.8911
 30
0.0
 11
213.12
 21
25.8906
 31
0.0
  0
LINE
  8
0
 62
     0
 10
213.12
 20
25.8906
 30
0.0
 11
212.32
 21
25.8906
 31
0.0
  0
LINE
  8
0
 62
     0
 10
212.32
 20
25.8906
 30
0.0
 11
212.32
 21
22.7914
 31
0.0
  0
LINE
  8
0
 62
     0
 10
212.32
 20
22.7914
 30
0.0
 11
213.12
 21
22.7914
 31
0.0
  0
LINE
  8
0
 62
     0
 10
213.12
 20
22.7914
 30
0.0
 11
213.12
 21
16.9912
 31
0.0
  0
LINE
  8
0
 62
     0
 10
213.12
 20
16.9912
 30
0.0
 11
212.32
 21
16.9912
 31
0.0
  0
LINE
  8
0
 62
     0
 10
212.32
 20
16.9912
 30
0.0
 11
212.32
 21
13.8906
 31
0.0
  0
LINE
  8
0
 62
     0
 10
212.32
 20
13.8906
 30
0.0
 11
213.12
 21
13.8906
 31
0.0
  0
LINE
  8
0
 62
     0
 10
213.12
 20
13.8906
 30
0.0
 11
213.12
 21
12.8902
 31
0.0
  0
LINE
  8
0
 62
     0
 10
213.12
 20
12.8902
 30
0.0
 11
227.12
 21
12.8902
 31
0.0
  0
LINE
  8
0
 62
     0
 10
227.12
 20
12.8902
 30
0.0
 11
227.12
 21
13.8906
 31
0.0
  0
LINE
  8
0
 62
     0
 10
227.12
 20
13.8906
 30
0.0
 11
227.921
 21
13.8906
 31
0.0
  0
LINE
  8
0
 62
     0
 10
227.921
 20
13.8906
 30
0.0
 11
227.921
 21
16.9912
 31
0.0
  0
LINE
  8
0
 62
     0
 10
227.921
 20
16.9912
 30
0.0
 11
227.12
 21
16.9912
 31
0.0
  0
LINE
  8
0
 62
     0
 10
227.12
 20
16.9912
 30
0.0
 11
227.12
 21
22.7914
 31
0.0
  0
LINE
  8
0
 62
     0
 10
227.12
 20
22.7914
 30
0.0
 11
227.921
 21
22.7914
 31
0.0
  0
LINE
  8
0
 62
     0
 10
227.921
 20
22.7914
 30
0.0
 11
227.921
 21
25.8906
 31
0.0
  0
LINE
  8
0
 62
     0
 10
227.921
 20
25.8906
 30
0.0
 11
227.12
 21
25.8906
 31
0.0
  0
LINE
  8
0
 62
     0
 10
227.12
 20
25.8906
 30
0.0
 11
227.12
 21
26.8911
 31
0.0
  0
LINE
  8
0
 62
     0
 10
227.12
 20
26.8911
 30
0.0
 11
213.12
 21
26.8911
 31
0.0
  0
LINE
  8
0
 62
     0
 10
232.17
 20
26.8911
 30
0.0
 11
232.17
 21
25.8906
 31
0.0
  0
LINE
  8
0
 62
     0
 10
232.17
 20
25.8906
 30
0.0
 11
231.37
 21
25.8906
 31
0.0
  0
LINE
  8
0
 62
     0
 10
231.37
 20
25.8906
 30
0.0
 11
231.37
 21
22.7914
 31
0.0
  0
LINE
  8
0
 62
     0
 10
231.37
 20
22.7914
 30
0.0
 11
232.17
 21
22.7914
 31
0.0
  0
LINE
  8
0
 62
     0
 10
232.17
 20
22.7914
 30
0.0
 11
232.17
 21
16.9912
 31
0.0
  0
LINE
  8
0
 62
     0
 10
232.17
 20
16.9912
 30
0.0
 11
231.37
 21
16.9912
 31
0.0
  0
LINE
  8
0
 62
     0
 10
231.37
 20
16.9912
 30
0.0
 11
231.37
 21
13.8906
 31
0.0
  0
LINE
  8
0
 62
     0
 10
231.37
 20
13.8906
 30
0.0
 11
232.17
 21
13.8906
 31
0.0
  0
LINE
  8
0
 62
     0
 10
232.17
 20
13.8906
 30
0.0
 11
232.17
 21
12.8902
 31
0.0
  0
LINE
  8
0
 62
     0
 10
232.17
 20
12.8902
 30
0.0
 11
246.17
 21
12.8902
 31
0.0
  0
LINE
  8
0
 62
     0
 10
246.17
 20
12.8902
 30
0.0
 11
246.17
 21
13.8906
 31
0.0
  0
LINE
  8
0
 62
     0
 10
246.17
 20
13.8906
 30
0.0
 11
246.971
 21
13.8906
 31
0.0
  0
LINE
  8
0
 62
     0
 10
246.971
 20
13.8906
 30
0.0
 11
246.971
 21
16.9912
 31
0.0
  0
LINE
  8
0
 62
     0
 10
246.971
 20
16.9912
 30
0.0
 11
246.17
 21
16.9912
 31
0.0
  0
LINE
  8
0
 62
     0
 10
246.17
 20
16.9912
 30
0.0
 11
246.17
 21
22.7914
 31
0.0
  0
LINE
  8
0
 62
     0
 10
246.17
 20
22.7914
 30
0.0
 11
246.971
 21
22.7914
 31
0.0
  0
LINE
  8
0
 62
     0
 10
246.971
 20
22.7914
 30
0.0
 11
246.971
 21
25.8906
 31
0.0
  0
LINE
  8
0
 62
     0
 10
246.971
 20
25.8906
 30
0.0
 11
246.17
 21
25.8906
 31
0.0
  0
LINE
  8
0
 62
     0
 10
246.17
 20
25.8906
 30
0.0
 11
246.17
 21
26.8911
 31
0.0
  0
LINE
  8
0
 62
     0
 10
246.17
 20
26.8911
 30
0.0
 11
232.17
 21
26.8911
 31
0.0
  0
LINE
  8
0
 62
     0
 10
251.22
 20
26.8911
 30
0.0
 11
251.22
 21
25.8906
 31
0.0
  0
LINE
  8
0
 62
     0
 10
251.22
 20
25.8906
 30
0.0
 11
250.42
 21
25.8906
 31
0.0
  0
LINE
  8
0
 62
     0
 10
250.42
 20
25.8906
 30
0.0
 11
250.42
 21
22.7914
 31
0.0
  0
LINE
  8
0
 62
     0
 10
250.42
 20
22.7914
 30
0.0
 11
251.22
 21
22.7914
 31
0.0
  0
LINE
  8
0
 62
     0
 10
251.22
 20
22.7914
 30
0.0
 11
251.22
 21
16.9912
 31
0.0
  0
LINE
  8
0
 62
     0
 10
251.22
 20
16.9912
 30
0.0
 11
250.42
 21
16.9912
 31
0.0
  0
LINE
  8
0
 62
     0
 10
250.42
 20
16.9912
 30
0.0
 11
250.42
 21
13.8906
 31
0.0
  0
LINE
  8
0
 62
     0
 10
250.42
 20
13.8906
 30
0.0
 11
251.22
 21
13.8906
 31
0.0
  0
LINE
  8
0
 62
     0
 10
251.22
 20
13.8906
 30
0.0
 11
251.22
 21
12.8902
 31
0.0
  0
LINE
  8
0
 62
     0
 10
251.22
 20
12.8902
 30
0.0
 11
265.22
 21
12.8902
 31
0.0
  0
LINE
  8
0
 62
     0
 10
265.22
 20
12.8902
 30
0.0
 11
265.22
 21
13.8906
 31
0.0
  0
LINE
  8
0
 62
     0
 10
265.22
 20
13.8906
 30
0.0
 11
266.021
 21
13.8906
 31
0.0
  0
LINE
  8
0
 62
     0
 10
266.021
 20
13.8906
 30
0.0
 11
266.021
 21
16.9912
 31
0.0
  0
LINE
  8
0
 62
     0
 10
266.021
 20
16.9912
 30
0.0
 11
265.22
 21
16.9912
 31
0.0
  0
LINE
  8
0
 62
     0
 10
265.22
 20
16.9912
 30
0.0
 11
265.22
 21
22.7914
 31
0.0
  0
LINE
  8
0
 62
     0
 10
265.22
 20
22.7914
 30
0.0
 11
266.021
 21
22.7914
 31
0.0
  0
LINE
  8
0
 62
     0
 10
266.021
 20
22.7914
 30
0.0
 11
266.021
 21
25.8906
 31
0.0
  0
LINE
  8
0
 62
     0
 10
266.021
 20
25.8906
 30
0.0
 11
265.22
 21
25.8906
 31
0.0
  0
LINE
  8
0
 62
     0
 10
265.22
 20
25.8906
 30
0.0
 11
265.22
 21
26.8911
 31
0.0
  0
LINE
  8
0
 62
     0
 10
265.22
 20
26.8911
 30
0.0
 11
251.22
 21
26.8911
 31
0.0
  0
LINE
  8
0
 62
     0
 10
270.27
 20
26.8911
 30
0.0
 11
270.27
 21
25.8906
 31
0.0
  0
LINE
  8
0
 62
     0
 10
270.27
 20
25.8906
 30
0.0
 11
269.47
 21
25.8906
 31
0.0
  0
LINE
  8
0
 62
     0
 10
269.47
 20
25.8906
 30
0.0
 11
269.47
 21
22.7914
 31
0.0
  0
LINE
  8
0
 62
     0
 10
269.47
 20
22.7914
 30
0.0
 11
270.27
 21
22.7914
 31
0.0
  0
LINE
  8
0
 62
     0
 10
270.27
 20
22.7914
 30
0.0
 11
270.27
 21
16.9912
 31
0.0
  0
LINE
  8
0
 62
     0
 10
270.27
 20
16.9912
 30
0.0
 11
269.47
 21
16.9912
 31
0.0
  0
LINE
  8
0
 62
     0
 10
269.47
 20
16.9912
 30
0.0
 11
269.47
 21
13.8906
 31
0.0
  0
LINE
  8
0
 62
     0
 10
269.47
 20
13.8906
 30
0.0
 11
270.27
 21
13.8906
 31
0.0
  0
LINE
  8
0
 62
     0
 10
270.27
 20
13.8906
 30
0.0
 11
270.27
 21
12.8902
 31
0.0
  0
LINE
  8
0
 62
     0
 10
270.27
 20
12.8902
 30
0.0
 11
284.27
 21
12.8902
 31
0.0
  0
LINE
  8
0
 62
     0
 10
284.27
 20
12.8902
 30
0.0
 11
284.27
 21
13.8906
 31
0.0
  0
LINE
  8
0
 62
     0
 10
284.27
 20
13.8906
 30
0.0
 11
285.071
 21
13.8906
 31
0.0
  0
LINE
  8
0
 62
     0
 10
285.071
 20
13.8906
 30
0.0
 11
285.071
 21
16.9912
 31
0.0
  0
LINE
  8
0
 62
     0
 10
285.071
 20
16.9912
 30
0.0
 11
284.27
 21
16.9912
 31
0.0
  0
LINE
  8
0
 62
     0
 10
284.27
 20
16.9912
 30
0.0
 11
284.27
 21
22.7914
 31
0.0
  0
LINE
  8
0
 62
     0
 10
284.27
 20
22.7914
 30
0.0
 11
285.071
 21
22.7914
 31
0.0
  0
LINE
  8
0
 62
     0
 10
285.071
 20
22.7914
 30
0.0
 11
285.071
 21
25.8906
 31
0.0
  0
LINE
  8
0
 62
     0
 10
285.071
 20
25.8906
 30
0.0
 11
284.27
 21
25.8906
 31
0.0
  0
LINE
  8
0
 62
     0
 10
284.27
 20
25.8906
 30
0.0
 11
284.27
 21
26.8911
 31
0.0
  0
LINE
  8
0
 62
     0
 10
284.27
 20
26.8911
 30
0.0
 11
270.27
 21
26.8911
 31
0.0
  0
LINE
  8
0
 62
     0
 10
289.32
 20
26.8911
 30
0.0
 11
289.32
 21
25.8906
 31
0.0
  0
LINE
  8
0
 62
     0
 10
289.32
 20
25.8906
 30
0.0
 11
288.52
 21
25.8906
 31
0.0
  0
LINE
  8
0
 62
     0
 10
288.52
 20
25.8906
 30
0.0
 11
288.52
 21
22.7914
 31
0.0
  0
LINE
  8
0
 62
     0
 10
288.52
 20
22.7914
 30
0.0
 11
289.32
 21
22.7914
 31
0.0
  0
LINE
  8
0
 62
     0
 10
289.32
 20
22.7914
 30
0.0
 11
289.32
 21
16.9912
 31
0.0
  0
LINE
  8
0
 62
     0
 10
289.32
 20
16.9912
 30
0.0
 11
288.52
 21
16.9912
 31
0.0
  0
LINE
  8
0
 62
     0
 10
288.52
 20
16.9912
 30
0.0
 11
288.52
 21
13.8906
 31
0.0
  0
LINE
  8
0
 62
     0
 10
288.52
 20
13.8906
 30
0.0
 11
289.32
 21
13.8906
 31
0.0
  0
LINE
  8
0
 62
     0
 10
289.32
 20
13.8906
 30
0.0
 11
289.32
 21
12.8902
 31
0.0
  0
LINE
  8
0
 62
     0
 10
289.32
 20
12.8902
 30
0.0
 11
303.32
 21
12.8902
 31
0.0
  0
LINE
  8
0
 62
     0
 10
303.32
 20
12.8902
 30
0.0
 11
303.32
 21
13.8906
 31
0.0
  0
LINE
  8
0
 62
     0
 10
303.32
 20
13.8906
 30
0.0
 11
304.121
 21
13.8906
 31
0.0
  0
LINE
  8
0
 62
     0
 10
304.121
 20
13.8906
 30
0.0
 11
304.121
 21
16.9912
 31
0.0
  0
LINE
  8
0
 62
     0
 10
304.121
 20
16.9912
 30
0.0
 11
303.32
 21
16.9912
 31
0.0
  0
LINE
  8
0
 62
     0
 10
303.32
 20
16.9912
 30
0.0
 11
303.32
 21
22.7914
 31
0.0
  0
LINE
  8
0
 62
     0
 10
303.32
 20
22.7914
 30
0.0
 11
304.121
 21
22.7914
 31
0.0
  0
LINE
  8
0
 62
     0
 10
304.121
 20
22.7914
 30
0.0
 11
304.121
 21
25.8906
 31
0.0
  0
LINE
  8
0
 62
     0
 10
304.121
 20
25.8906
 30
0.0
 11
303.32
 21
25.8906
 31
0.0
  0
LINE
  8
0
 62
     0
 10
303.32
 20
25.8906
 30
0.0
 11
303.32
 21
26.8911
 31
0.0
  0
LINE
  8
0
 62
     0
 10
303.32
 20
26.8911
 30
0.0
 11
289.32
 21
26.8911
 31
0.0
  0
LINE
  8
0
 62
     0
 10
34.5267
 20
45.9412
 30
0.0
 11
34.5267
 21
44.9407
 31
0.0
  0
LINE
  8
0
 62
     0
 10
34.5267
 20
44.9407
 30
0.0
 11
33.7261
 21
44.9407
 31
0.0
  0
LINE
  8
0
 62
     0
 10
33.7261
 20
44.9407
 30
0.0
 11
33.7261
 21
41.8412
 31
0.0
  0
LINE
  8
0
 62
     0
 10
33.7261
 20
41.8412
 30
0.0
 11
34.5267
 21
41.8412
 31
0.0
  0
LINE
  8
0
 62
     0
 10
34.5267
 20
41.8412
 30
0.0
 11
34.5267
 21
41.2404
 31
0.0
  0
LINE
  8
0
 62
     0
 10
34.5267
 20
41.2404
 30
0.0
 11
33.0013
 21
41.2404
 31
0.0
  0
LINE
  8
0
 62
     0
 10
33.0013
 20
41.2404
 30
0.0
 11
33.0013
 21
44.4708
 31
0.0
  0
LINE
  8
0
 62
     0
 10
33.0013
 20
44.4708
 30
0.0
 11
26.2516
 21
44.4708
 31
0.0
  0
LINE
  8
0
 62
     0
 10
26.2516
 20
44.4708
 30
0.0
 11
26.2516
 21
41.2404
 31
0.0
  0
LINE
  8
0
 62
     0
 10
26.2516
 20
41.2404
 30
0.0
 11
25.4262
 21
41.2404
 31
0.0
  0
LINE
  8
0
 62
     0
 10
25.4262
 20
41.2404
 30
0.0
 11
25.4262
 21
38.4404
 31
0.0
  0
LINE
  8
0
 62
     0
 10
25.4262
 20
38.4404
 30
0.0
 11
26.2516
 21
38.4404
 31
0.0
  0
LINE
  8
0
 62
     0
 10
26.2516
 20
38.4404
 30
0.0
 11
26.2516
 21
32.1703
 31
0.0
  0
LINE
  8
0
 62
     0
 10
26.2516
 20
32.1703
 30
0.0
 11
27.9769
 21
32.1703
 31
0.0
  0
LINE
  8
0
 62
     0
 10
27.9769
 20
32.1703
 30
0.0
 11
27.9769
 21
30.97
 31
0.0
  0
LINE
  8
0
 62
     0
 10
27.9769
 20
30.97
 30
0.0
 11
31.276
 21
30.97
 31
0.0
  0
LINE
  8
0
 62
     0
 10
31.276
 20
30.97
 30
0.0
 11
31.276
 21
32.1703
 31
0.0
  0
LINE
  8
0
 62
     0
 10
31.276
 20
32.1703
 30
0.0
 11
33.0013
 21
32.1703
 31
0.0
  0
LINE
  8
0
 62
     0
 10
33.0013
 20
32.1703
 30
0.0
 11
33.0013
 21
36.6406
 31
0.0
  0
LINE
  8
0
 62
     0
 10
33.0013
 20
36.6406
 30
0.0
 11
34.5267
 21
36.6406
 31
0.0
  0
LINE
  8
0
 62
     0
 10
34.5267
 20
36.6406
 30
0.0
 11
34.5267
 21
36.0412
 31
0.0
  0
LINE
  8
0
 62
     0
 10
34.5267
 20
36.0412
 30
0.0
 11
33.7261
 21
36.0412
 31
0.0
  0
LINE
  8
0
 62
     0
 10
33.7261
 20
36.0412
 30
0.0
 11
33.7261
 21
32.9406
 31
0.0
  0
LINE
  8
0
 62
     0
 10
33.7261
 20
32.9406
 30
0.0
 11
34.5267
 21
32.9406
 31
0.0
  0
LINE
  8
0
 62
     0
 10
34.5267
 20
32.9406
 30
0.0
 11
34.5267
 21
31.9402
 31
0.0
  0
LINE
  8
0
 62
     0
 10
34.5267
 20
31.9402
 30
0.0
 11
48.5263
 21
31.9402
 31
0.0
  0
LINE
  8
0
 62
     0
 10
48.5263
 20
31.9402
 30
0.0
 11
48.5263
 21
32.9406
 31
0.0
  0
LINE
  8
0
 62
     0
 10
48.5263
 20
32.9406
 30
0.0
 11
49.3268
 21
32.9406
 31
0.0
  0
LINE
  8
0
 62
     0
 10
49.3268
 20
32.9406
 30
0.0
 11
49.3268
 21
36.0412
 31
0.0
  0
LINE
  8
0
 62
     0
 10
49.3268
 20
36.0412
 30
0.0
 11
48.5263
 21
36.0412
 31
0.0
  0
LINE
  8
0
 62
     0
 10
48.5263
 20
36.0412
 30
0.0
 11
48.5263
 21
36.6406
 31
0.0
  0
LINE
  8
0
 62
     0
 10
48.5263
 20
36.6406
 30
0.0
 11
50.0518
 21
36.6406
 31
0.0
  0
LINE
  8
0
 62
     0
 10
50.0518
 20
36.6406
 30
0.0
 11
50.0518
 21
32.1703
 31
0.0
  0
LINE
  8
0
 62
     0
 10
50.0518
 20
32.1703
 30
0.0
 11
51.7772
 21
32.1703
 31
0.0
  0
LINE
  8
0
 62
     0
 10
51.7772
 20
32.1703
 30
0.0
 11
51.7772
 21
30.97
 31
0.0
  0
LINE
  8
0
 62
     0
 10
51.7772
 20
30.97
 30
0.0
 11
55.076
 21
30.97
 31
0.0
  0
LINE
  8
0
 62
     0
 10
55.076
 20
30.97
 30
0.0
 11
55.076
 21
32.1703
 31
0.0
  0
LINE
  8
0
 62
     0
 10
55.076
 20
32.1703
 30
0.0
 11
56.8015
 21
32.1703
 31
0.0
  0
LINE
  8
0
 62
     0
 10
56.8015
 20
32.1703
 30
0.0
 11
56.8015
 21
38.4404
 31
0.0
  0
LINE
  8
0
 62
     0
 10
56.8015
 20
38.4404
 30
0.0
 11
57.627
 21
38.4404
 31
0.0
  0
LINE
  8
0
 62
     0
 10
57.627
 20
38.4404
 30
0.0
 11
57.627
 21
41.2404
 31
0.0
  0
LINE
  8
0
 62
     0
 10
57.627
 20
41.2404
 30
0.0
 11
56.8015
 21
41.2404
 31
0.0
  0
LINE
  8
0
 62
     0
 10
56.8015
 20
41.2404
 30
0.0
 11
56.8015
 21
44.4708
 31
0.0
  0
LINE
  8
0
 62
     0
 10
56.8015
 20
44.4708
 30
0.0
 11
50.0518
 21
44.4708
 31
0.0
  0
LINE
  8
0
 62
     0
 10
50.0518
 20
44.4708
 30
0.0
 11
50.0518
 21
41.2404
 31
0.0
  0
LINE
  8
0
 62
     0
 10
50.0518
 20
41.2404
 30
0.0
 11
48.5263
 21
41.2404
 31
0.0
  0
LINE
  8
0
 62
     0
 10
48.5263
 20
41.2404
 30
0.0
 11
48.5263
 21
41.8412
 31
0.0
  0
LINE
  8
0
 62
     0
 10
48.5263
 20
41.8412
 30
0.0
 11
49.3268
 21
41.8412
 31
0.0
  0
LINE
  8
0
 62
     0
 10
49.3268
 20
41.8412
 30
0.0
 11
49.3268
 21
44.9407
 31
0.0
  0
LINE
  8
0
 62
     0
 10
49.3268
 20
44.9407
 30
0.0
 11
48.5263
 21
44.9407
 31
0.0
  0
LINE
  8
0
 62
     0
 10
48.5263
 20
44.9407
 30
0.0
 11
48.5263
 21
45.9412
 31
0.0
  0
LINE
  8
0
 62
     0
 10
48.5263
 20
45.9412
 30
0.0
 11
34.5267
 21
45.9412
 31
0.0
  0
LINE
  8
0
 62
     0
 10
65.483
 20
45.9412
 30
0.0
 11
65.483
 21
44.9407
 31
0.0
  0
LINE
  8
0
 62
     0
 10
65.483
 20
44.9407
 30
0.0
 11
64.6825
 21
44.9407
 31
0.0
  0
LINE
  8
0
 62
     0
 10
64.6825
 20
44.9407
 30
0.0
 11
64.6825
 21
41.8412
 31
0.0
  0
LINE
  8
0
 62
     0
 10
64.6825
 20
41.8412
 30
0.0
 11
65.483
 21
41.8412
 31
0.0
  0
LINE
  8
0
 62
     0
 10
65.483
 20
41.8412
 30
0.0
 11
65.483
 21
36.0412
 31
0.0
  0
LINE
  8
0
 62
     0
 10
65.483
 20
36.0412
 30
0.0
 11
64.6825
 21
36.0412
 31
0.0
  0
LINE
  8
0
 62
     0
 10
64.6825
 20
36.0412
 30
0.0
 11
64.6825
 21
32.9406
 31
0.0
  0
LINE
  8
0
 62
     0
 10
64.6825
 20
32.9406
 30
0.0
 11
65.483
 21
32.9406
 31
0.0
  0
LINE
  8
0
 62
     0
 10
65.483
 20
32.9406
 30
0.0
 11
65.483
 21
31.9402
 31
0.0
  0
LINE
  8
0
 62
     0
 10
65.483
 20
31.9402
 30
0.0
 11
79.4826
 21
31.9402
 31
0.0
  0
LINE
  8
0
 62
     0
 10
79.4826
 20
31.9402
 30
0.0
 11
79.4826
 21
32.9406
 31
0.0
  0
LINE
  8
0
 62
     0
 10
79.4826
 20
32.9406
 30
0.0
 11
80.2831
 21
32.9406
 31
0.0
  0
LINE
  8
0
 62
     0
 10
80.2831
 20
32.9406
 30
0.0
 11
80.2831
 21
36.0412
 31
0.0
  0
LINE
  8
0
 62
     0
 10
80.2831
 20
36.0412
 30
0.0
 11
79.4826
 21
36.0412
 31
0.0
  0
LINE
  8
0
 62
     0
 10
79.4826
 20
36.0412
 30
0.0
 11
79.4826
 21
41.8412
 31
0.0
  0
LINE
  8
0
 62
     0
 10
79.4826
 20
41.8412
 30
0.0
 11
80.2831
 21
41.8412
 31
0.0
  0
LINE
  8
0
 62
     0
 10
80.2831
 20
41.8412
 30
0.0
 11
80.2831
 21
44.9407
 31
0.0
  0
LINE
  8
0
 62
     0
 10
80.2831
 20
44.9407
 30
0.0
 11
79.4826
 21
44.9407
 31
0.0
  0
LINE
  8
0
 62
     0
 10
79.4826
 20
44.9407
 30
0.0
 11
79.4826
 21
45.9412
 31
0.0
  0
LINE
  8
0
 62
     0
 10
79.4826
 20
45.9412
 30
0.0
 11
65.483
 21
45.9412
 31
0.0
  0
LINE
  8
0
 62
     0
 10
84.533
 20
45.9412
 30
0.0
 11
84.533
 21
44.9407
 31
0.0
  0
LINE
  8
0
 62
     0
 10
84.533
 20
44.9407
 30
0.0
 11
83.7325
 21
44.9407
 31
0.0
  0
LINE
  8
0
 62
     0
 10
83.7325
 20
44.9407
 30
0.0
 11
83.7325
 21
41.8412
 31
0.0
  0
LINE
  8
0
 62
     0
 10
83.7325
 20
41.8412
 30
0.0
 11
84.533
 21
41.8412
 31
0.0
  0
LINE
  8
0
 62
     0
 10
84.533
 20
41.8412
 30
0.0
 11
84.533
 21
36.0412
 31
0.0
  0
LINE
  8
0
 62
     0
 10
84.533
 20
36.0412
 30
0.0
 11
83.7325
 21
36.0412
 31
0.0
  0
LINE
  8
0
 62
     0
 10
83.7325
 20
36.0412
 30
0.0
 11
83.7325
 21
32.9406
 31
0.0
  0
LINE
  8
0
 62
     0
 10
83.7325
 20
32.9406
 30
0.0
 11
84.533
 21
32.9406
 31
0.0
  0
LINE
  8
0
 62
     0
 10
84.533
 20
32.9406
 30
0.0
 11
84.533
 21
31.9402
 31
0.0
  0
LINE
  8
0
 62
     0
 10
84.533
 20
31.9402
 30
0.0
 11
98.5326
 21
31.9402
 31
0.0
  0
LINE
  8
0
 62
     0
 10
98.5326
 20
31.9402
 30
0.0
 11
98.5326
 21
32.9406
 31
0.0
  0
LINE
  8
0
 62
     0
 10
98.5326
 20
32.9406
 30
0.0
 11
99.3331
 21
32.9406
 31
0.0
  0
LINE
  8
0
 62
     0
 10
99.3331
 20
32.9406
 30
0.0
 11
99.3331
 21
36.0412
 31
0.0
  0
LINE
  8
0
 62
     0
 10
99.3331
 20
36.0412
 30
0.0
 11
98.5326
 21
36.0412
 31
0.0
  0
LINE
  8
0
 62
     0
 10
98.5326
 20
36.0412
 30
0.0
 11
98.5326
 21
41.8412
 31
0.0
  0
LINE
  8
0
 62
     0
 10
98.5326
 20
41.8412
 30
0.0
 11
99.3331
 21
41.8412
 31
0.0
  0
LINE
  8
0
 62
     0
 10
99.3331
 20
41.8412
 30
0.0
 11
99.3331
 21
44.9407
 31
0.0
  0
LINE
  8
0
 62
     0
 10
99.3331
 20
44.9407
 30
0.0
 11
98.5326
 21
44.9407
 31
0.0
  0
LINE
  8
0
 62
     0
 10
98.5326
 20
44.9407
 30
0.0
 11
98.5326
 21
45.9412
 31
0.0
  0
LINE
  8
0
 62
     0
 10
98.5326
 20
45.9412
 30
0.0
 11
84.533
 21
45.9412
 31
0.0
  0
LINE
  8
0
 62
     0
 10
103.583
 20
45.9412
 30
0.0
 11
103.583
 21
44.9407
 31
0.0
  0
LINE
  8
0
 62
     0
 10
103.583
 20
44.9407
 30
0.0
 11
102.783
 21
44.9407
 31
0.0
  0
LINE
  8
0
 62
     0
 10
102.783
 20
44.9407
 30
0.0
 11
102.783
 21
41.8412
 31
0.0
  0
LINE
  8
0
 62
     0
 10
102.783
 20
41.8412
 30
0.0
 11
103.583
 21
41.8412
 31
0.0
  0
LINE
  8
0
 62
     0
 10
103.583
 20
41.8412
 30
0.0
 11
103.583
 21
36.0412
 31
0.0
  0
LINE
  8
0
 62
     0
 10
103.583
 20
36.0412
 30
0.0
 11
102.783
 21
36.0412
 31
0.0
  0
LINE
  8
0
 62
     0
 10
102.783
 20
36.0412
 30
0.0
 11
102.783
 21
32.9406
 31
0.0
  0
LINE
  8
0
 62
     0
 10
102.783
 20
32.9406
 30
0.0
 11
103.583
 21
32.9406
 31
0.0
  0
LINE
  8
0
 62
     0
 10
103.583
 20
32.9406
 30
0.0
 11
103.583
 21
31.9402
 31
0.0
  0
LINE
  8
0
 62
     0
 10
103.583
 20
31.9402
 30
0.0
 11
117.583
 21
31.9402
 31
0.0
  0
LINE
  8
0
 62
     0
 10
117.583
 20
31.9402
 30
0.0
 11
117.583
 21
32.9406
 31
0.0
  0
LINE
  8
0
 62
     0
 10
117.583
 20
32.9406
 30
0.0
 11
118.383
 21
32.9406
 31
0.0
  0
LINE
  8
0
 62
     0
 10
118.383
 20
32.9406
 30
0.0
 11
118.383
 21
36.0412
 31
0.0
  0
LINE
  8
0
 62
     0
 10
118.383
 20
36.0412
 30
0.0
 11
117.583
 21
36.0412
 31
0.0
  0
LINE
  8
0
 62
     0
 10
117.583
 20
36.0412
 30
0.0
 11
117.583
 21
41.8412
 31
0.0
  0
LINE
  8
0
 62
     0
 10
117.583
 20
41.8412
 30
0.0
 11
118.383
 21
41.8412
 31
0.0
  0
LINE
  8
0
 62
     0
 10
118.383
 20
41.8412
 30
0.0
 11
118.383
 21
44.9407
 31
0.0
  0
LINE
  8
0
 62
     0
 10
118.383
 20
44.9407
 30
0.0
 11
117.583
 21
44.9407
 31
0.0
  0
LINE
  8
0
 62
     0
 10
117.583
 20
44.9407
 30
0.0
 11
117.583
 21
45.9412
 31
0.0
  0
LINE
  8
0
 62
     0
 10
117.583
 20
45.9412
 30
0.0
 11
103.583
 21
45.9412
 31
0.0
  0
LINE
  8
0
 62
     0
 10
122.633
 20
45.9412
 30
0.0
 11
122.633
 21
44.9407
 31
0.0
  0
LINE
  8
0
 62
     0
 10
122.633
 20
44.9407
 30
0.0
 11
121.833
 21
44.9407
 31
0.0
  0
LINE
  8
0
 62
     0
 10
121.833
 20
44.9407
 30
0.0
 11
121.833
 21
41.8412
 31
0.0
  0
LINE
  8
0
 62
     0
 10
121.833
 20
41.8412
 30
0.0
 11
122.633
 21
41.8412
 31
0.0
  0
LINE
  8
0
 62
     0
 10
122.633
 20
41.8412
 30
0.0
 11
122.633
 21
36.0412
 31
0.0
  0
LINE
  8
0
 62
     0
 10
122.633
 20
36.0412
 30
0.0
 11
121.833
 21
36.0412
 31
0.0
  0
LINE
  8
0
 62
     0
 10
121.833
 20
36.0412
 30
0.0
 11
121.833
 21
32.9406
 31
0.0
  0
LINE
  8
0
 62
     0
 10
121.833
 20
32.9406
 30
0.0
 11
122.633
 21
32.9406
 31
0.0
  0
LINE
  8
0
 62
     0
 10
122.633
 20
32.9406
 30
0.0
 11
122.633
 21
31.9402
 31
0.0
  0
LINE
  8
0
 62
     0
 10
122.633
 20
31.9402
 30
0.0
 11
136.633
 21
31.9402
 31
0.0
  0
LINE
  8
0
 62
     0
 10
136.633
 20
31.9402
 30
0.0
 11
136.633
 21
32.9406
 31
0.0
  0
LINE
  8
0
 62
     0
 10
136.633
 20
32.9406
 30
0.0
 11
137.433
 21
32.9406
 31
0.0
  0
LINE
  8
0
 62
     0
 10
137.433
 20
32.9406
 30
0.0
 11
137.433
 21
36.0412
 31
0.0
  0
LINE
  8
0
 62
     0
 10
137.433
 20
36.0412
 30
0.0
 11
136.633
 21
36.0412
 31
0.0
  0
LINE
  8
0
 62
     0
 10
136.633
 20
36.0412
 30
0.0
 11
136.633
 21
41.8412
 31
0.0
  0
LINE
  8
0
 62
     0
 10
136.633
 20
41.8412
 30
0.0
 11
137.433
 21
41.8412
 31
0.0
  0
LINE
  8
0
 62
     0
 10
137.433
 20
41.8412
 30
0.0
 11
137.433
 21
44.9407
 31
0.0
  0
LINE
  8
0
 62
     0
 10
137.433
 20
44.9407
 30
0.0
 11
136.633
 21
44.9407
 31
0.0
  0
LINE
  8
0
 62
     0
 10
136.633
 20
44.9407
 30
0.0
 11
136.633
 21
45.9412
 31
0.0
  0
LINE
  8
0
 62
     0
 10
136.633
 20
45.9412
 30
0.0
 11
122.633
 21
45.9412
 31
0.0
  0
LINE
  8
0
 62
     0
 10
141.683
 20
45.9412
 30
0.0
 11
141.683
 21
44.9407
 31
0.0
  0
LINE
  8
0
 62
     0
 10
141.683
 20
44.9407
 30
0.0
 11
140.883
 21
44.9407
 31
0.0
  0
LINE
  8
0
 62
     0
 10
140.883
 20
44.9407
 30
0.0
 11
140.883
 21
41.8412
 31
0.0
  0
LINE
  8
0
 62
     0
 10
140.883
 20
41.8412
 30
0.0
 11
141.683
 21
41.8412
 31
0.0
  0
LINE
  8
0
 62
     0
 10
141.683
 20
41.8412
 30
0.0
 11
141.683
 21
36.0412
 31
0.0
  0
LINE
  8
0
 62
     0
 10
141.683
 20
36.0412
 30
0.0
 11
140.883
 21
36.0412
 31
0.0
  0
LINE
  8
0
 62
     0
 10
140.883
 20
36.0412
 30
0.0
 11
140.883
 21
32.9406
 31
0.0
  0
LINE
  8
0
 62
     0
 10
140.883
 20
32.9406
 30
0.0
 11
141.683
 21
32.9406
 31
0.0
  0
LINE
  8
0
 62
     0
 10
141.683
 20
32.9406
 30
0.0
 11
141.683
 21
31.9402
 31
0.0
  0
LINE
  8
0
 62
     0
 10
141.683
 20
31.9402
 30
0.0
 11
155.683
 21
31.9402
 31
0.0
  0
LINE
  8
0
 62
     0
 10
155.683
 20
31.9402
 30
0.0
 11
155.683
 21
32.9406
 31
0.0
  0
LINE
  8
0
 62
     0
 10
155.683
 20
32.9406
 30
0.0
 11
156.483
 21
32.9406
 31
0.0
  0
LINE
  8
0
 62
     0
 10
156.483
 20
32.9406
 30
0.0
 11
156.483
 21
36.0412
 31
0.0
  0
LINE
  8
0
 62
     0
 10
156.483
 20
36.0412
 30
0.0
 11
155.683
 21
36.0412
 31
0.0
  0
LINE
  8
0
 62
     0
 10
155.683
 20
36.0412
 30
0.0
 11
155.683
 21
41.8412
 31
0.0
  0
LINE
  8
0
 62
     0
 10
155.683
 20
41.8412
 30
0.0
 11
156.483
 21
41.8412
 31
0.0
  0
LINE
  8
0
 62
     0
 10
156.483
 20
41.8412
 30
0.0
 11
156.483
 21
44.9407
 31
0.0
  0
LINE
  8
0
 62
     0
 10
156.483
 20
44.9407
 30
0.0
 11
155.683
 21
44.9407
 31
0.0
  0
LINE
  8
0
 62
     0
 10
155.683
 20
44.9407
 30
0.0
 11
155.683
 21
45.9412
 31
0.0
  0
LINE
  8
0
 62
     0
 10
155.683
 20
45.9412
 30
0.0
 11
141.683
 21
45.9412
 31
0.0
  0
LINE
  8
0
 62
     0
 10
160.733
 20
45.9412
 30
0.0
 11
160.733
 21
44.9407
 31
0.0
  0
LINE
  8
0
 62
     0
 10
160.733
 20
44.9407
 30
0.0
 11
159.933
 21
44.9407
 31
0.0
  0
LINE
  8
0
 62
     0
 10
159.933
 20
44.9407
 30
0.0
 11
159.933
 21
41.8412
 31
0.0
  0
LINE
  8
0
 62
     0
 10
159.933
 20
41.8412
 30
0.0
 11
160.733
 21
41.8412
 31
0.0
  0
LINE
  8
0
 62
     0
 10
160.733
 20
41.8412
 30
0.0
 11
160.733
 21
36.0412
 31
0.0
  0
LINE
  8
0
 62
     0
 10
160.733
 20
36.0412
 30
0.0
 11
159.933
 21
36.0412
 31
0.0
  0
LINE
  8
0
 62
     0
 10
159.933
 20
36.0412
 30
0.0
 11
159.933
 21
32.9406
 31
0.0
  0
LINE
  8
0
 62
     0
 10
159.933
 20
32.9406
 30
0.0
 11
160.733
 21
32.9406
 31
0.0
  0
LINE
  8
0
 62
     0
 10
160.733
 20
32.9406
 30
0.0
 11
160.733
 21
31.9402
 31
0.0
  0
LINE
  8
0
 62
     0
 10
160.733
 20
31.9402
 30
0.0
 11
174.733
 21
31.9402
 31
0.0
  0
LINE
  8
0
 62
     0
 10
174.733
 20
31.9402
 30
0.0
 11
174.733
 21
32.9406
 31
0.0
  0
LINE
  8
0
 62
     0
 10
174.733
 20
32.9406
 30
0.0
 11
175.533
 21
32.9406
 31
0.0
  0
LINE
  8
0
 62
     0
 10
175.533
 20
32.9406
 30
0.0
 11
175.533
 21
36.0412
 31
0.0
  0
LINE
  8
0
 62
     0
 10
175.533
 20
36.0412
 30
0.0
 11
174.733
 21
36.0412
 31
0.0
  0
LINE
  8
0
 62
     0
 10
174.733
 20
36.0412
 30
0.0
 11
174.733
 21
41.8412
 31
0.0
  0
LINE
  8
0
 62
     0
 10
174.733
 20
41.8412
 30
0.0
 11
175.533
 21
41.8412
 31
0.0
  0
LINE
  8
0
 62
     0
 10
175.533
 20
41.8412
 30
0.0
 11
175.533
 21
44.9407
 31
0.0
  0
LINE
  8
0
 62
     0
 10
175.533
 20
44.9407
 30
0.0
 11
174.733
 21
44.9407
 31
0.0
  0
LINE
  8
0
 62
     0
 10
174.733
 20
44.9407
 30
0.0
 11
174.733
 21
45.9412
 31
0.0
  0
LINE
  8
0
 62
     0
 10
174.733
 20
45.9412
 30
0.0
 11
160.733
 21
45.9412
 31
0.0
  0
LINE
  8
0
 62
     0
 10
179.783
 20
45.9412
 30
0.0
 11
179.783
 21
44.9407
 31
0.0
  0
LINE
  8
0
 62
     0
 10
179.783
 20
44.9407
 30
0.0
 11
178.983
 21
44.9407
 31
0.0
  0
LINE
  8
0
 62
     0
 10
178.983
 20
44.9407
 30
0.0
 11
178.983
 21
41.8412
 31
0.0
  0
LINE
  8
0
 62
     0
 10
178.983
 20
41.8412
 30
0.0
 11
179.783
 21
41.8412
 31
0.0
  0
LINE
  8
0
 62
     0
 10
179.783
 20
41.8412
 30
0.0
 11
179.783
 21
36.0412
 31
0.0
  0
LINE
  8
0
 62
     0
 10
179.783
 20
36.0412
 30
0.0
 11
178.983
 21
36.0412
 31
0.0
  0
LINE
  8
0
 62
     0
 10
178.983
 20
36.0412
 30
0.0
 11
178.983
 21
32.9406
 31
0.0
  0
LINE
  8
0
 62
     0
 10
178.983
 20
32.9406
 30
0.0
 11
179.783
 21
32.9406
 31
0.0
  0
LINE
  8
0
 62
     0
 10
179.783
 20
32.9406
 30
0.0
 11
179.783
 21
31.9402
 31
0.0
  0
LINE
  8
0
 62
     0
 10
179.783
 20
31.9402
 30
0.0
 11
193.783
 21
31.9402
 31
0.0
  0
LINE
  8
0
 62
     0
 10
193.783
 20
31.9402
 30
0.0
 11
193.783
 21
32.9406
 31
0.0
  0
LINE
  8
0
 62
     0
 10
193.783
 20
32.9406
 30
0.0
 11
194.583
 21
32.9406
 31
0.0
  0
LINE
  8
0
 62
     0
 10
194.583
 20
32.9406
 30
0.0
 11
194.583
 21
36.0412
 31
0.0
  0
LINE
  8
0
 62
     0
 10
194.583
 20
36.0412
 30
0.0
 11
193.783
 21
36.0412
 31
0.0
  0
LINE
  8
0
 62
     0
 10
193.783
 20
36.0412
 30
0.0
 11
193.783
 21
41.8412
 31
0.0
  0
LINE
  8
0
 62
     0
 10
193.783
 20
41.8412
 30
0.0
 11
194.583
 21
41.8412
 31
0.0
  0
LINE
  8
0
 62
     0
 10
194.583
 20
41.8412
 30
0.0
 11
194.583
 21
44.9407
 31
0.0
  0
LINE
  8
0
 62
     0
 10
194.583
 20
44.9407
 30
0.0
 11
193.783
 21
44.9407
 31
0.0
  0
LINE
  8
0
 62
     0
 10
193.783
 20
44.9407
 30
0.0
 11
193.783
 21
45.9412
 31
0.0
  0
LINE
  8
0
 62
     0
 10
193.783
 20
45.9412
 30
0.0
 11
179.783
 21
45.9412
 31
0.0
  0
LINE
  8
0
 62
     0
 10
198.833
 20
45.9412
 30
0.0
 11
198.833
 21
44.9407
 31
0.0
  0
LINE
  8
0
 62
     0
 10
198.833
 20
44.9407
 30
0.0
 11
198.033
 21
44.9407
 31
0.0
  0
LINE
  8
0
 62
     0
 10
198.033
 20
44.9407
 30
0.0
 11
198.033
 21
41.8412
 31
0.0
  0
LINE
  8
0
 62
     0
 10
198.033
 20
41.8412
 30
0.0
 11
198.833
 21
41.8412
 31
0.0
  0
LINE
  8
0
 62
     0
 10
198.833
 20
41.8412
 30
0.0
 11
198.833
 21
36.0412
 31
0.0
  0
LINE
  8
0
 62
     0
 10
198.833
 20
36.0412
 30
0.0
 11
198.033
 21
36.0412
 31
0.0
  0
LINE
  8
0
 62
     0
 10
198.033
 20
36.0412
 30
0.0
 11
198.033
 21
32.9406
 31
0.0
  0
LINE
  8
0
 62
     0
 10
198.033
 20
32.9406
 30
0.0
 11
198.833
 21
32.9406
 31
0.0
  0
LINE
  8
0
 62
     0
 10
198.833
 20
32.9406
 30
0.0
 11
198.833
 21
31.9402
 31
0.0
  0
LINE
  8
0
 62
     0
 10
198.833
 20
31.9402
 30
0.0
 11
212.833
 21
31.9402
 31
0.0
  0
LINE
  8
0
 62
     0
 10
212.833
 20
31.9402
 30
0.0
 11
212.833
 21
32.9406
 31
0.0
  0
LINE
  8
0
 62
     0
 10
212.833
 20
32.9406
 30
0.0
 11
213.633
 21
32.9406
 31
0.0
  0
LINE
  8
0
 62
     0
 10
213.633
 20
32.9406
 30
0.0
 11
213.633
 21
36.0412
 31
0.0
  0
LINE
  8
0
 62
     0
 10
213.633
 20
36.0412
 30
0.0
 11
212.833
 21
36.0412
 31
0.0
  0
LINE
  8
0
 62
     0
 10
212.833
 20
36.0412
 30
0.0
 11
212.833
 21
41.8412
 31
0.0
  0
LINE
  8
0
 62
     0
 10
212.833
 20
41.8412
 30
0.0
 11
213.633
 21
41.8412
 31
0.0
  0
LINE
  8
0
 62
     0
 10
213.633
 20
41.8412
 30
0.0
 11
213.633
 21
44.9407
 31
0.0
  0
LINE
  8
0
 62
     0
 10
213.633
 20
44.9407
 30
0.0
 11
212.833
 21
44.9407
 31
0.0
  0
LINE
  8
0
 62
     0
 10
212.833
 20
44.9407
 30
0.0
 11
212.833
 21
45.9412
 31
0.0
  0
LINE
  8
0
 62
     0
 10
212.833
 20
45.9412
 30
0.0
 11
198.833
 21
45.9412
 31
0.0
  0
LINE
  8
0
 62
     0
 10
217.883
 20
45.9412
 30
0.0
 11
217.883
 21
44.9407
 31
0.0
  0
LINE
  8
0
 62
     0
 10
217.883
 20
44.9407
 30
0.0
 11
217.083
 21
44.9407
 31
0.0
  0
LINE
  8
0
 62
     0
 10
217.083
 20
44.9407
 30
0.0
 11
217.083
 21
41.8412
 31
0.0
  0
LINE
  8
0
 62
     0
 10
217.083
 20
41.8412
 30
0.0
 11
217.883
 21
41.8412
 31
0.0
  0
LINE
  8
0
 62
     0
 10
217.883
 20
41.8412
 30
0.0
 11
217.883
 21
36.0412
 31
0.0
  0
LINE
  8
0
 62
     0
 10
217.883
 20
36.0412
 30
0.0
 11
217.083
 21
36.0412
 31
0.0
  0
LINE
  8
0
 62
     0
 10
217.083
 20
36.0412
 30
0.0
 11
217.083
 21
32.9406
 31
0.0
  0
LINE
  8
0
 62
     0
 10
217.083
 20
32.9406
 30
0.0
 11
217.883
 21
32.9406
 31
0.0
  0
LINE
  8
0
 62
     0
 10
217.883
 20
32.9406
 30
0.0
 11
217.883
 21
31.9402
 31
0.0
  0
LINE
  8
0
 62
     0
 10
217.883
 20
31.9402
 30
0.0
 11
231.883
 21
31.9402
 31
0.0
  0
LINE
  8
0
 62
     0
 10
231.883
 20
31.9402
 30
0.0
 11
231.883
 21
32.9406
 31
0.0
  0
LINE
  8
0
 62
     0
 10
231.883
 20
32.9406
 30
0.0
 11
232.683
 21
32.9406
 31
0.0
  0
LINE
  8
0
 62
     0
 10
232.683
 20
32.9406
 30
0.0
 11
232.683
 21
36.0412
 31
0.0
  0
LINE
  8
0
 62
     0
 10
232.683
 20
36.0412
 30
0.0
 11
231.883
 21
36.0412
 31
0.0
  0
LINE
  8
0
 62
     0
 10
231.883
 20
36.0412
 30
0.0
 11
231.883
 21
41.8412
 31
0.0
  0
LINE
  8
0
 62
     0
 10
231.883
 20
41.8412
 30
0.0
 11
232.683
 21
41.8412
 31
0.0
  0
LINE
  8
0
 62
     0
 10
232.683
 20
41.8412
 30
0.0
 11
232.683
 21
44.9407
 31
0.0
  0
LINE
  8
0
 62
     0
 10
232.683
 20
44.9407
 30
0.0
 11
231.883
 21
44.9407
 31
0.0
  0
LINE
  8
0
 62
     0
 10
231.883
 20
44.9407
 30
0.0
 11
231.883
 21
45.9412
 31
0.0
  0
LINE
  8
0
 62
     0
 10
231.883
 20
45.9412
 30
0.0
 11
217.883
 21
45.9412
 31
0.0
  0
LINE
  8
0
 62
     0
 10
244.077
 20
45.9412
 30
0.0
 11
244.077
 21
44.9407
 31
0.0
  0
LINE
  8
0
 62
     0
 10
244.077
 20
44.9407
 30
0.0
 11
243.276
 21
44.9407
 31
0.0
  0
LINE
  8
0
 62
     0
 10
243.276
 20
44.9407
 30
0.0
 11
243.276
 21
41.8412
 31
0.0
  0
LINE
  8
0
 62
     0
 10
243.276
 20
41.8412
 30
0.0
 11
244.077
 21
41.8412
 31
0.0
  0
LINE
  8
0
 62
     0
 10
244.077
 20
41.8412
 30
0.0
 11
244.077
 21
36.0412
 31
0.0
  0
LINE
  8
0
 62
     0
 10
244.077
 20
36.0412
 30
0.0
 11
243.276
 21
36.0412
 31
0.0
  0
LINE
  8
0
 62
     0
 10
243.276
 20
36.0412
 30
0.0
 11
243.276
 21
32.9406
 31
0.0
  0
LINE
  8
0
 62
     0
 10
243.276
 20
32.9406
 30
0.0
 11
244.077
 21
32.9406
 31
0.0
  0
LINE
  8
0
 62
     0
 10
244.077
 20
32.9406
 30
0.0
 11
244.077
 21
31.9402
 31
0.0
  0
LINE
  8
0
 62
     0
 10
244.077
 20
31.9402
 30
0.0
 11
258.076
 21
31.9402
 31
0.0
  0
LINE
  8
0
 62
     0
 10
258.076
 20
31.9402
 30
0.0
 11
258.076
 21
32.9406
 31
0.0
  0
LINE
  8
0
 62
     0
 10
258.076
 20
32.9406
 30
0.0
 11
258.877
 21
32.9406
 31
0.0
  0
LINE
  8
0
 62
     0
 10
258.877
 20
32.9406
 30
0.0
 11
258.877
 21
36.0412
 31
0.0
  0
LINE
  8
0
 62
     0
 10
258.877
 20
36.0412
 30
0.0
 11
258.076
 21
36.0412
 31
0.0
  0
LINE
  8
0
 62
     0
 10
258.076
 20
36.0412
 30
0.0
 11
258.076
 21
41.8412
 31
0.0
  0
LINE
  8
0
 62
     0
 10
258.076
 20
41.8412
 30
0.0
 11
258.877
 21
41.8412
 31
0.0
  0
LINE
  8
0
 62
     0
 10
258.877
 20
41.8412
 30
0.0
 11
258.877
 21
44.9407
 31
0.0
  0
LINE
  8
0
 62
     0
 10
258.877
 20
44.9407
 30
0.0
 11
258.076
 21
44.9407
 31
0.0
  0
LINE
  8
0
 62
     0
 10
258.076
 20
44.9407
 30
0.0
 11
258.076
 21
45.9412
 31
0.0
  0
LINE
  8
0
 62
     0
 10
258.076
 20
45.9412
 30
0.0
 11
244.077
 21
45.9412
 31
0.0
  0
LINE
  8
0
 62
     0
 10
270.27
 20
45.9412
 30
0.0
 11
270.27
 21
44.9407
 31
0.0
  0
LINE
  8
0
 62
     0
 10
270.27
 20
44.9407
 30
0.0
 11
269.47
 21
44.9407
 31
0.0
  0
LINE
  8
0
 62
     0
 10
269.47
 20
44.9407
 30
0.0
 11
269.47
 21
41.8412
 31
0.0
  0
LINE
  8
0
 62
     0
 10
269.47
 20
41.8412
 30
0.0
 11
270.27
 21
41.8412
 31
0.0
  0
LINE
  8
0
 62
     0
 10
270.27
 20
41.8412
 30
0.0
 11
270.27
 21
36.0412
 31
0.0
  0
LINE
  8
0
 62
     0
 10
270.27
 20
36.0412
 30
0.0
 11
269.47
 21
36.0412
 31
0.0
  0
LINE
  8
0
 62
     0
 10
269.47
 20
36.0412
 30
0.0
 11
269.47
 21
32.9406
 31
0.0
  0
LINE
  8
0
 62
     0
 10
269.47
 20
32.9406
 30
0.0
 11
270.27
 21
32.9406
 31
0.0
  0
LINE
  8
0
 62
     0
 10
270.27
 20
32.9406
 30
0.0
 11
270.27
 21
31.9402
 31
0.0
  0
LINE
  8
0
 62
     0
 10
270.27
 20
31.9402
 30
0.0
 11
284.27
 21
31.9402
 31
0.0
  0
LINE
  8
0
 62
     0
 10
284.27
 20
31.9402
 30
0.0
 11
284.27
 21
32.9406
 31
0.0
  0
LINE
  8
0
 62
     0
 10
284.27
 20
32.9406
 30
0.0
 11
285.071
 21
32.9406
 31
0.0
  0
LINE
  8
0
 62
     0
 10
285.071
 20
32.9406
 30
0.0
 11
285.071
 21
36.0412
 31
0.0
  0
LINE
  8
0
 62
     0
 10
285.071
 20
36.0412
 30
0.0
 11
284.27
 21
36.0412
 31
0.0
  0
LINE
  8
0
 62
     0
 10
284.27
 20
36.0412
 30
0.0
 11
284.27
 21
41.8412
 31
0.0
  0
LINE
  8
0
 62
     0
 10
284.27
 20
41.8412
 30
0.0
 11
285.071
 21
41.8412
 31
0.0
  0
LINE
  8
0
 62
     0
 10
285.071
 20
41.8412
 30
0.0
 11
285.071
 21
44.9407
 31
0.0
  0
LINE
  8
0
 62
     0
 10
285.071
 20
44.9407
 30
0.0
 11
284.27
 21
44.9407
 31
0.0
  0
LINE
  8
0
 62
     0
 10
284.27
 20
44.9407
 30
0.0
 11
284.27
 21
45.9412
 31
0.0
  0
LINE
  8
0
 62
     0
 10
284.27
 20
45.9412
 30
0.0
 11
270.27
 21
45.9412
 31
0.0
  0
LINE
  8
0
 62
     0
 10
289.32
 20
45.9412
 30
0.0
 11
289.32
 21
44.9407
 31
0.0
  0
LINE
  8
0
 62
     0
 10
289.32
 20
44.9407
 30
0.0
 11
288.52
 21
44.9407
 31
0.0
  0
LINE
  8
0
 62
     0
 10
288.52
 20
44.9407
 30
0.0
 11
288.52
 21
41.8412
 31
0.0
  0
LINE
  8
0
 62
     0
 10
288.52
 20
41.8412
 30
0.0
 11
289.32
 21
41.8412
 31
0.0
  0
LINE
  8
0
 62
     0
 10
289.32
 20
41.8412
 30
0.0
 11
289.32
 21
36.0412
 31
0.0
  0
LINE
  8
0
 62
     0
 10
289.32
 20
36.0412
 30
0.0
 11
288.52
 21
36.0412
 31
0.0
  0
LINE
  8
0
 62
     0
 10
288.52
 20
36.0412
 30
0.0
 11
288.52
 21
32.9406
 31
0.0
  0
LINE
  8
0
 62
     0
 10
288.52
 20
32.9406
 30
0.0
 11
289.32
 21
32.9406
 31
0.0
  0
LINE
  8
0
 62
     0
 10
289.32
 20
32.9406
 30
0.0
 11
289.32
 21
31.9402
 31
0.0
  0
LINE
  8
0
 62
     0
 10
289.32
 20
31.9402
 30
0.0
 11
303.32
 21
31.9402
 31
0.0
  0
LINE
  8
0
 62
     0
 10
303.32
 20
31.9402
 30
0.0
 11
303.32
 21
32.9406
 31
0.0
  0
LINE
  8
0
 62
     0
 10
303.32
 20
32.9406
 30
0.0
 11
304.121
 21
32.9406
 31
0.0
  0
LINE
  8
0
 62
     0
 10
304.121
 20
32.9406
 30
0.0
 11
304.121
 21
36.0412
 31
0.0
  0
LINE
  8
0
 62
     0
 10
304.121
 20
36.0412
 30
0.0
 11
303.32
 21
36.0412
 31
0.0
  0
LINE
  8
0
 62
     0
 10
303.32
 20
36.0412
 30
0.0
 11
303.32
 21
41.8412
 31
0.0
  0
LINE
  8
0
 62
     0
 10
303.32
 20
41.8412
 30
0.0
 11
304.121
 21
41.8412
 31
0.0
  0
LINE
  8
0
 62
     0
 10
304.121
 20
41.8412
 30
0.0
 11
304.121
 21
44.9407
 31
0.0
  0
LINE
  8
0
 62
     0
 10
304.121
 20
44.9407
 30
0.0
 11
303.32
 21
44.9407
 31
0.0
  0
LINE
  8
0
 62
     0
 10
303.32
 20
44.9407
 30
0.0
 11
303.32
 21
45.9412
 31
0.0
  0
LINE
  8
0
 62
     0
 10
303.32
 20
45.9412
 30
0.0
 11
289.32
 21
45.9412
 31
0.0
  0
LINE
  8
0
 62
     0
 10
277.413
 20
64.9912
 30
0.0
 11
277.413
 21
63.9907
 31
0.0
  0
LINE
  8
0
 62
     0
 10
277.413
 20
63.9907
 30
0.0
 11
276.614
 21
63.9907
 31
0.0
  0
LINE
  8
0
 62
     0
 10
276.614
 20
63.9907
 30
0.0
 11
276.614
 21
60.8902
 31
0.0
  0
LINE
  8
0
 62
     0
 10
276.614
 20
60.8902
 30
0.0
 11
277.413
 21
60.8902
 31
0.0
  0
LINE
  8
0
 62
     0
 10
277.413
 20
60.8902
 30
0.0
 11
277.413
 21
60.2904
 31
0.0
  0
LINE
  8
0
 62
     0
 10
277.413
 20
60.2904
 30
0.0
 11
275.889
 21
60.2904
 31
0.0
  0
LINE
  8
0
 62
     0
 10
275.889
 20
60.2904
 30
0.0
 11
275.889
 21
63.5208
 31
0.0
  0
LINE
  8
0
 62
     0
 10
275.889
 20
63.5208
 30
0.0
 11
269.139
 21
63.5208
 31
0.0
  0
LINE
  8
0
 62
     0
 10
269.139
 20
63.5208
 30
0.0
 11
269.139
 21
60.2904
 31
0.0
  0
LINE
  8
0
 62
     0
 10
269.139
 20
60.2904
 30
0.0
 11
268.314
 21
60.2904
 31
0.0
  0
LINE
  8
0
 62
     0
 10
268.314
 20
60.2904
 30
0.0
 11
268.314
 21
57.4904
 31
0.0
  0
LINE
  8
0
 62
     0
 10
268.314
 20
57.4904
 30
0.0
 11
269.139
 21
57.4904
 31
0.0
  0
LINE
  8
0
 62
     0
 10
269.139
 20
57.4904
 30
0.0
 11
269.139
 21
51.2202
 31
0.0
  0
LINE
  8
0
 62
     0
 10
269.139
 20
51.2202
 30
0.0
 11
270.863
 21
51.2202
 31
0.0
  0
LINE
  8
0
 62
     0
 10
270.863
 20
51.2202
 30
0.0
 11
270.863
 21
50.02
 31
0.0
  0
LINE
  8
0
 62
     0
 10
270.863
 20
50.02
 30
0.0
 11
274.163
 21
50.02
 31
0.0
  0
LINE
  8
0
 62
     0
 10
274.163
 20
50.02
 30
0.0
 11
274.163
 21
51.2202
 31
0.0
  0
LINE
  8
0
 62
     0
 10
274.163
 20
51.2202
 30
0.0
 11
275.889
 21
51.2202
 31
0.0
  0
LINE
  8
0
 62
     0
 10
275.889
 20
51.2202
 30
0.0
 11
275.889
 21
55.6906
 31
0.0
  0
LINE
  8
0
 62
     0
 10
275.889
 20
55.6906
 30
0.0
 11
277.413
 21
55.6906
 31
0.0
  0
LINE
  8
0
 62
     0
 10
277.413
 20
55.6906
 30
0.0
 11
277.413
 21
55.0912
 31
0.0
  0
LINE
  8
0
 62
     0
 10
277.413
 20
55.0912
 30
0.0
 11
276.614
 21
55.0912
 31
0.0
  0
LINE
  8
0
 62
     0
 10
276.614
 20
55.0912
 30
0.0
 11
276.614
 21
51.9906
 31
0.0
  0
LINE
  8
0
 62
     0
 10
276.614
 20
51.9906
 30
0.0
 11
277.413
 21
51.9906
 31
0.0
  0
LINE
  8
0
 62
     0
 10
277.413
 20
51.9906
 30
0.0
 11
277.413
 21
50.9901
 31
0.0
  0
LINE
  8
0
 62
     0
 10
277.413
 20
50.9901
 30
0.0
 11
291.414
 21
50.9901
 31
0.0
  0
LINE
  8
0
 62
     0
 10
291.414
 20
50.9901
 30
0.0
 11
291.414
 21
51.9906
 31
0.0
  0
LINE
  8
0
 62
     0
 10
291.414
 20
51.9906
 30
0.0
 11
292.213
 21
51.9906
 31
0.0
  0
LINE
  8
0
 62
     0
 10
292.213
 20
51.9906
 30
0.0
 11
292.213
 21
55.0912
 31
0.0
  0
LINE
  8
0
 62
     0
 10
292.213
 20
55.0912
 30
0.0
 11
291.414
 21
55.0912
 31
0.0
  0
LINE
  8
0
 62
     0
 10
291.414
 20
55.0912
 30
0.0
 11
291.414
 21
55.6906
 31
0.0
  0
LINE
  8
0
 62
     0
 10
291.414
 20
55.6906
 30
0.0
 11
292.938
 21
55.6906
 31
0.0
  0
LINE
  8
0
 62
     0
 10
292.938
 20
55.6906
 30
0.0
 11
292.938
 21
51.2202
 31
0.0
  0
LINE
  8
0
 62
     0
 10
292.938
 20
51.2202
 30
0.0
 11
294.663
 21
51.2202
 31
0.0
  0
LINE
  8
0
 62
     0
 10
294.663
 20
51.2202
 30
0.0
 11
294.663
 21
50.02
 31
0.0
  0
LINE
  8
0
 62
     0
 10
294.663
 20
50.02
 30
0.0
 11
297.964
 21
50.02
 31
0.0
  0
LINE
  8
0
 62
     0
 10
297.964
 20
50.02
 30
0.0
 11
297.964
 21
51.2202
 31
0.0
  0
LINE
  8
0
 62
     0
 10
297.964
 20
51.2202
 30
0.0
 11
299.689
 21
51.2202
 31
0.0
  0
LINE
  8
0
 62
     0
 10
299.689
 20
51.2202
 30
0.0
 11
299.689
 21
57.4904
 31
0.0
  0
LINE
  8
0
 62
     0
 10
299.689
 20
57.4904
 30
0.0
 11
300.513
 21
57.4904
 31
0.0
  0
LINE
  8
0
 62
     0
 10
300.513
 20
57.4904
 30
0.0
 11
300.513
 21
60.2904
 31
0.0
  0
LINE
  8
0
 62
     0
 10
300.513
 20
60.2904
 30
0.0
 11
299.689
 21
60.2904
 31
0.0
  0
LINE
  8
0
 62
     0
 10
299.689
 20
60.2904
 30
0.0
 11
299.689
 21
63.5208
 31
0.0
  0
LINE
  8
0
 62
     0
 10
299.689
 20
63.5208
 30
0.0
 11
292.938
 21
63.5208
 31
0.0
  0
LINE
  8
0
 62
     0
 10
292.938
 20
63.5208
 30
0.0
 11
292.938
 21
60.2904
 31
0.0
  0
LINE
  8
0
 62
     0
 10
292.938
 20
60.2904
 30
0.0
 11
291.414
 21
60.2904
 31
0.0
  0
LINE
  8
0
 62
     0
 10
291.414
 20
60.2904
 30
0.0
 11
291.414
 21
60.8902
 31
0.0
  0
LINE
  8
0
 62
     0
 10
291.414
 20
60.8902
 30
0.0
 11
292.213
 21
60.8902
 31
0.0
  0
LINE
  8
0
 62
     0
 10
292.213
 20
60.8902
 30
0.0
 11
292.213
 21
63.9907
 31
0.0
  0
LINE
  8
0
 62
     0
 10
292.213
 20
63.9907
 30
0.0
 11
291.414
 21
63.9907
 31
0.0
  0
LINE
  8
0
 62
     0
 10
291.414
 20
63.9907
 30
0.0
 11
291.414
 21
64.9912
 31
0.0
  0
LINE
  8
0
 62
     0
 10
291.414
 20
64.9912
 30
0.0
 11
277.413
 21
64.9912
 31
0.0
  0
LINE
  8
0
 62
     0
 10
29.7629
 20
64.9912
 30
0.0
 11
29.7629
 21
63.9907
 31
0.0
  0
LINE
  8
0
 62
     0
 10
29.7629
 20
63.9907
 30
0.0
 11
28.9636
 21
63.9907
 31
0.0
  0
LINE
  8
0
 62
     0
 10
28.9636
 20
63.9907
 30
0.0
 11
28.9636
 21
60.8902
 31
0.0
  0
LINE
  8
0
 62
     0
 10
28.9636
 20
60.8902
 30
0.0
 11
29.7629
 21
60.8902
 31
0.0
  0
LINE
  8
0
 62
     0
 10
29.7629
 20
60.8902
 30
0.0
 11
29.7629
 21
55.0912
 31
0.0
  0
LINE
  8
0
 62
     0
 10
29.7629
 20
55.0912
 30
0.0
 11
28.9636
 21
55.0912
 31
0.0
  0
LINE
  8
0
 62
     0
 10
28.9636
 20
55.0912
 30
0.0
 11
28.9636
 21
51.9906
 31
0.0
  0
LINE
  8
0
 62
     0
 10
28.9636
 20
51.9906
 30
0.0
 11
29.7629
 21
51.9906
 31
0.0
  0
LINE
  8
0
 62
     0
 10
29.7629
 20
51.9906
 30
0.0
 11
29.7629
 21
50.9901
 31
0.0
  0
LINE
  8
0
 62
     0
 10
29.7629
 20
50.9901
 30
0.0
 11
43.7638
 21
50.9901
 31
0.0
  0
LINE
  8
0
 62
     0
 10
43.7638
 20
50.9901
 30
0.0
 11
43.7638
 21
51.9906
 31
0.0
  0
LINE
  8
0
 62
     0
 10
43.7638
 20
51.9906
 30
0.0
 11
44.5629
 21
51.9906
 31
0.0
  0
LINE
  8
0
 62
     0
 10
44.5629
 20
51.9906
 30
0.0
 11
44.5629
 21
55.0912
 31
0.0
  0
LINE
  8
0
 62
     0
 10
44.5629
 20
55.0912
 30
0.0
 11
43.7638
 21
55.0912
 31
0.0
  0
LINE
  8
0
 62
     0
 10
43.7638
 20
55.0912
 30
0.0
 11
43.7638
 21
60.8902
 31
0.0
  0
LINE
  8
0
 62
     0
 10
43.7638
 20
60.8902
 30
0.0
 11
44.5629
 21
60.8902
 31
0.0
  0
LINE
  8
0
 62
     0
 10
44.5629
 20
60.8902
 30
0.0
 11
44.5629
 21
63.9907
 31
0.0
  0
LINE
  8
0
 62
     0
 10
44.5629
 20
63.9907
 30
0.0
 11
43.7638
 21
63.9907
 31
0.0
  0
LINE
  8
0
 62
     0
 10
43.7638
 20
63.9907
 30
0.0
 11
43.7638
 21
64.9912
 31
0.0
  0
LINE
  8
0
 62
     0
 10
43.7638
 20
64.9912
 30
0.0
 11
29.7629
 21
64.9912
 31
0.0
  0
LINE
  8
0
 62
     0
 10
55.958
 20
64.9912
 30
0.0
 11
55.958
 21
63.9907
 31
0.0
  0
LINE
  8
0
 62
     0
 10
55.958
 20
63.9907
 30
0.0
 11
55.1575
 21
63.9907
 31
0.0
  0
LINE
  8
0
 62
     0
 10
55.1575
 20
63.9907
 30
0.0
 11
55.1575
 21
60.8902
 31
0.0
  0
LINE
  8
0
 62
     0
 10
55.1575
 20
60.8902
 30
0.0
 11
55.958
 21
60.8902
 31
0.0
  0
LINE
  8
0
 62
     0
 10
55.958
 20
60.8902
 30
0.0
 11
55.958
 21
55.0912
 31
0.0
  0
LINE
  8
0
 62
     0
 10
55.958
 20
55.0912
 30
0.0
 11
55.1575
 21
55.0912
 31
0.0
  0
LINE
  8
0
 62
     0
 10
55.1575
 20
55.0912
 30
0.0
 11
55.1575
 21
51.9906
 31
0.0
  0
LINE
  8
0
 62
     0
 10
55.1575
 20
51.9906
 30
0.0
 11
55.958
 21
51.9906
 31
0.0
  0
LINE
  8
0
 62
     0
 10
55.958
 20
51.9906
 30
0.0
 11
55.958
 21
50.9901
 31
0.0
  0
LINE
  8
0
 62
     0
 10
55.958
 20
50.9901
 30
0.0
 11
69.9576
 21
50.9901
 31
0.0
  0
LINE
  8
0
 62
     0
 10
69.9576
 20
50.9901
 30
0.0
 11
69.9576
 21
51.9906
 31
0.0
  0
LINE
  8
0
 62
     0
 10
69.9576
 20
51.9906
 30
0.0
 11
70.7581
 21
51.9906
 31
0.0
  0
LINE
  8
0
 62
     0
 10
70.7581
 20
51.9906
 30
0.0
 11
70.7581
 21
55.0912
 31
0.0
  0
LINE
  8
0
 62
     0
 10
70.7581
 20
55.0912
 30
0.0
 11
69.9576
 21
55.0912
 31
0.0
  0
LINE
  8
0
 62
     0
 10
69.9576
 20
55.0912
 30
0.0
 11
69.9576
 21
60.8902
 31
0.0
  0
LINE
  8
0
 62
     0
 10
69.9576
 20
60.8902
 30
0.0
 11
70.7581
 21
60.8902
 31
0.0
  0
LINE
  8
0
 62
     0
 10
70.7581
 20
60.8902
 30
0.0
 11
70.7581
 21
63.9907
 31
0.0
  0
LINE
  8
0
 62
     0
 10
70.7581
 20
63.9907
 30
0.0
 11
69.9576
 21
63.9907
 31
0.0
  0
LINE
  8
0
 62
     0
 10
69.9576
 20
63.9907
 30
0.0
 11
69.9576
 21
64.9912
 31
0.0
  0
LINE
  8
0
 62
     0
 10
69.9576
 20
64.9912
 30
0.0
 11
55.958
 21
64.9912
 31
0.0
  0
LINE
  8
0
 62
     0
 10
75.008
 20
64.9912
 30
0.0
 11
75.008
 21
63.9907
 31
0.0
  0
LINE
  8
0
 62
     0
 10
75.008
 20
63.9907
 30
0.0
 11
74.2075
 21
63.9907
 31
0.0
  0
LINE
  8
0
 62
     0
 10
74.2075
 20
63.9907
 30
0.0
 11
74.2075
 21
60.8902
 31
0.0
  0
LINE
  8
0
 62
     0
 10
74.2075
 20
60.8902
 30
0.0
 11
75.008
 21
60.8902
 31
0.0
  0
LINE
  8
0
 62
     0
 10
75.008
 20
60.8902
 30
0.0
 11
75.008
 21
55.0912
 31
0.0
  0
LINE
  8
0
 62
     0
 10
75.008
 20
55.0912
 30
0.0
 11
74.2075
 21
55.0912
 31
0.0
  0
LINE
  8
0
 62
     0
 10
74.2075
 20
55.0912
 30
0.0
 11
74.2075
 21
51.9906
 31
0.0
  0
LINE
  8
0
 62
     0
 10
74.2075
 20
51.9906
 30
0.0
 11
75.008
 21
51.9906
 31
0.0
  0
LINE
  8
0
 62
     0
 10
75.008
 20
51.9906
 30
0.0
 11
75.008
 21
50.9901
 31
0.0
  0
LINE
  8
0
 62
     0
 10
75.008
 20
50.9901
 30
0.0
 11
89.0076
 21
50.9901
 31
0.0
  0
LINE
  8
0
 62
     0
 10
89.0076
 20
50.9901
 30
0.0
 11
89.0076
 21
51.9906
 31
0.0
  0
LINE
  8
0
 62
     0
 10
89.0076
 20
51.9906
 30
0.0
 11
89.8081
 21
51.9906
 31
0.0
  0
LINE
  8
0
 62
     0
 10
89.8081
 20
51.9906
 30
0.0
 11
89.8081
 21
55.0912
 31
0.0
  0
LINE
  8
0
 62
     0
 10
89.8081
 20
55.0912
 30
0.0
 11
89.0076
 21
55.0912
 31
0.0
  0
LINE
  8
0
 62
     0
 10
89.0076
 20
55.0912
 30
0.0
 11
89.0076
 21
60.8902
 31
0.0
  0
LINE
  8
0
 62
     0
 10
89.0076
 20
60.8902
 30
0.0
 11
89.8081
 21
60.8902
 31
0.0
  0
LINE
  8
0
 62
     0
 10
89.8081
 20
60.8902
 30
0.0
 11
89.8081
 21
63.9907
 31
0.0
  0
LINE
  8
0
 62
     0
 10
89.8081
 20
63.9907
 30
0.0
 11
89.0076
 21
63.9907
 31
0.0
  0
LINE
  8
0
 62
     0
 10
89.0076
 20
63.9907
 30
0.0
 11
89.0076
 21
64.9912
 31
0.0
  0
LINE
  8
0
 62
     0
 10
89.0076
 20
64.9912
 30
0.0
 11
75.008
 21
64.9912
 31
0.0
  0
LINE
  8
0
 62
     0
 10
94.058
 20
64.9912
 30
0.0
 11
94.058
 21
63.9907
 31
0.0
  0
LINE
  8
0
 62
     0
 10
94.058
 20
63.9907
 30
0.0
 11
93.2575
 21
63.9907
 31
0.0
  0
LINE
  8
0
 62
     0
 10
93.2575
 20
63.9907
 30
0.0
 11
93.2575
 21
60.8902
 31
0.0
  0
LINE
  8
0
 62
     0
 10
93.2575
 20
60.8902
 30
0.0
 11
94.058
 21
60.8902
 31
0.0
  0
LINE
  8
0
 62
     0
 10
94.058
 20
60.8902
 30
0.0
 11
94.058
 21
55.0912
 31
0.0
  0
LINE
  8
0
 62
     0
 10
94.058
 20
55.0912
 30
0.0
 11
93.2575
 21
55.0912
 31
0.0
  0
LINE
  8
0
 62
     0
 10
93.2575
 20
55.0912
 30
0.0
 11
93.2575
 21
51.9906
 31
0.0
  0
LINE
  8
0
 62
     0
 10
93.2575
 20
51.9906
 30
0.0
 11
94.058
 21
51.9906
 31
0.0
  0
LINE
  8
0
 62
     0
 10
94.058
 20
51.9906
 30
0.0
 11
94.058
 21
50.9901
 31
0.0
  0
LINE
  8
0
 62
     0
 10
94.058
 20
50.9901
 30
0.0
 11
108.058
 21
50.9901
 31
0.0
  0
LINE
  8
0
 62
     0
 10
108.058
 20
50.9901
 30
0.0
 11
108.058
 21
51.9906
 31
0.0
  0
LINE
  8
0
 62
     0
 10
108.058
 20
51.9906
 30
0.0
 11
108.858
 21
51.9906
 31
0.0
  0
LINE
  8
0
 62
     0
 10
108.858
 20
51.9906
 30
0.0
 11
108.858
 21
55.0912
 31
0.0
  0
LINE
  8
0
 62
     0
 10
108.858
 20
55.0912
 30
0.0
 11
108.058
 21
55.0912
 31
0.0
  0
LINE
  8
0
 62
     0
 10
108.058
 20
55.0912
 30
0.0
 11
108.058
 21
60.8902
 31
0.0
  0
LINE
  8
0
 62
     0
 10
108.058
 20
60.8902
 30
0.0
 11
108.858
 21
60.8902
 31
0.0
  0
LINE
  8
0
 62
     0
 10
108.858
 20
60.8902
 30
0.0
 11
108.858
 21
63.9907
 31
0.0
  0
LINE
  8
0
 62
     0
 10
108.858
 20
63.9907
 30
0.0
 11
108.058
 21
63.9907
 31
0.0
  0
LINE
  8
0
 62
     0
 10
108.058
 20
63.9907
 30
0.0
 11
108.058
 21
64.9912
 31
0.0
  0
LINE
  8
0
 62
     0
 10
108.058
 20
64.9912
 30
0.0
 11
94.058
 21
64.9912
 31
0.0
  0
LINE
  8
0
 62
     0
 10
113.108
 20
64.9912
 30
0.0
 11
113.108
 21
63.9907
 31
0.0
  0
LINE
  8
0
 62
     0
 10
113.108
 20
63.9907
 30
0.0
 11
112.308
 21
63.9907
 31
0.0
  0
LINE
  8
0
 62
     0
 10
112.308
 20
63.9907
 30
0.0
 11
112.308
 21
60.8902
 31
0.0
  0
LINE
  8
0
 62
     0
 10
112.308
 20
60.8902
 30
0.0
 11
113.108
 21
60.8902
 31
0.0
  0
LINE
  8
0
 62
     0
 10
113.108
 20
60.8902
 30
0.0
 11
113.108
 21
55.0912
 31
0.0
  0
LINE
  8
0
 62
     0
 10
113.108
 20
55.0912
 30
0.0
 11
112.308
 21
55.0912
 31
0.0
  0
LINE
  8
0
 62
     0
 10
112.308
 20
55.0912
 30
0.0
 11
112.308
 21
51.9906
 31
0.0
  0
LINE
  8
0
 62
     0
 10
112.308
 20
51.9906
 30
0.0
 11
113.108
 21
51.9906
 31
0.0
  0
LINE
  8
0
 62
     0
 10
113.108
 20
51.9906
 30
0.0
 11
113.108
 21
50.9901
 31
0.0
  0
LINE
  8
0
 62
     0
 10
113.108
 20
50.9901
 30
0.0
 11
127.108
 21
50.9901
 31
0.0
  0
LINE
  8
0
 62
     0
 10
127.108
 20
50.9901
 30
0.0
 11
127.108
 21
51.9906
 31
0.0
  0
LINE
  8
0
 62
     0
 10
127.108
 20
51.9906
 30
0.0
 11
127.908
 21
51.9906
 31
0.0
  0
LINE
  8
0
 62
     0
 10
127.908
 20
51.9906
 30
0.0
 11
127.908
 21
55.0912
 31
0.0
  0
LINE
  8
0
 62
     0
 10
127.908
 20
55.0912
 30
0.0
 11
127.108
 21
55.0912
 31
0.0
  0
LINE
  8
0
 62
     0
 10
127.108
 20
55.0912
 30
0.0
 11
127.108
 21
60.8902
 31
0.0
  0
LINE
  8
0
 62
     0
 10
127.108
 20
60.8902
 30
0.0
 11
127.908
 21
60.8902
 31
0.0
  0
LINE
  8
0
 62
     0
 10
127.908
 20
60.8902
 30
0.0
 11
127.908
 21
63.9907
 31
0.0
  0
LINE
  8
0
 62
     0
 10
127.908
 20
63.9907
 30
0.0
 11
127.108
 21
63.9907
 31
0.0
  0
LINE
  8
0
 62
     0
 10
127.108
 20
63.9907
 30
0.0
 11
127.108
 21
64.9912
 31
0.0
  0
LINE
  8
0
 62
     0
 10
127.108
 20
64.9912
 30
0.0
 11
113.108
 21
64.9912
 31
0.0
  0
LINE
  8
0
 62
     0
 10
132.158
 20
64.9912
 30
0.0
 11
132.158
 21
63.9907
 31
0.0
  0
LINE
  8
0
 62
     0
 10
132.158
 20
63.9907
 30
0.0
 11
131.358
 21
63.9907
 31
0.0
  0
LINE
  8
0
 62
     0
 10
131.358
 20
63.9907
 30
0.0
 11
131.358
 21
60.8902
 31
0.0
  0
LINE
  8
0
 62
     0
 10
131.358
 20
60.8902
 30
0.0
 11
132.158
 21
60.8902
 31
0.0
  0
LINE
  8
0
 62
     0
 10
132.158
 20
60.8902
 30
0.0
 11
132.158
 21
55.0912
 31
0.0
  0
LINE
  8
0
 62
     0
 10
132.158
 20
55.0912
 30
0.0
 11
131.358
 21
55.0912
 31
0.0
  0
LINE
  8
0
 62
     0
 10
131.358
 20
55.0912
 30
0.0
 11
131.358
 21
51.9906
 31
0.0
  0
LINE
  8
0
 62
     0
 10
131.358
 20
51.9906
 30
0.0
 11
132.158
 21
51.9906
 31
0.0
  0
LINE
  8
0
 62
     0
 10
132.158
 20
51.9906
 30
0.0
 11
132.158
 21
50.9901
 31
0.0
  0
LINE
  8
0
 62
     0
 10
132.158
 20
50.9901
 30
0.0
 11
146.158
 21
50.9901
 31
0.0
  0
LINE
  8
0
 62
     0
 10
146.158
 20
50.9901
 30
0.0
 11
146.158
 21
51.9906
 31
0.0
  0
LINE
  8
0
 62
     0
 10
146.158
 20
51.9906
 30
0.0
 11
146.958
 21
51.9906
 31
0.0
  0
LINE
  8
0
 62
     0
 10
146.958
 20
51.9906
 30
0.0
 11
146.958
 21
55.0912
 31
0.0
  0
LINE
  8
0
 62
     0
 10
146.958
 20
55.0912
 30
0.0
 11
146.158
 21
55.0912
 31
0.0
  0
LINE
  8
0
 62
     0
 10
146.158
 20
55.0912
 30
0.0
 11
146.158
 21
60.8902
 31
0.0
  0
LINE
  8
0
 62
     0
 10
146.158
 20
60.8902
 30
0.0
 11
146.958
 21
60.8902
 31
0.0
  0
LINE
  8
0
 62
     0
 10
146.958
 20
60.8902
 30
0.0
 11
146.958
 21
63.9907
 31
0.0
  0
LINE
  8
0
 62
     0
 10
146.958
 20
63.9907
 30
0.0
 11
146.158
 21
63.9907
 31
0.0
  0
LINE
  8
0
 62
     0
 10
146.158
 20
63.9907
 30
0.0
 11
146.158
 21
64.9912
 31
0.0
  0
LINE
  8
0
 62
     0
 10
146.158
 20
64.9912
 30
0.0
 11
132.158
 21
64.9912
 31
0.0
  0
LINE
  8
0
 62
     0
 10
151.208
 20
64.9912
 30
0.0
 11
151.208
 21
63.9907
 31
0.0
  0
LINE
  8
0
 62
     0
 10
151.208
 20
63.9907
 30
0.0
 11
150.408
 21
63.9907
 31
0.0
  0
LINE
  8
0
 62
     0
 10
150.408
 20
63.9907
 30
0.0
 11
150.408
 21
60.8902
 31
0.0
  0
LINE
  8
0
 62
     0
 10
150.408
 20
60.8902
 30
0.0
 11
151.208
 21
60.8902
 31
0.0
  0
LINE
  8
0
 62
     0
 10
151.208
 20
60.8902
 30
0.0
 11
151.208
 21
55.0912
 31
0.0
  0
LINE
  8
0
 62
     0
 10
151.208
 20
55.0912
 30
0.0
 11
150.408
 21
55.0912
 31
0.0
  0
LINE
  8
0
 62
     0
 10
150.408
 20
55.0912
 30
0.0
 11
150.408
 21
51.9906
 31
0.0
  0
LINE
  8
0
 62
     0
 10
150.408
 20
51.9906
 30
0.0
 11
151.208
 21
51.9906
 31
0.0
  0
LINE
  8
0
 62
     0
 10
151.208
 20
51.9906
 30
0.0
 11
151.208
 21
50.9901
 31
0.0
  0
LINE
  8
0
 62
     0
 10
151.208
 20
50.9901
 30
0.0
 11
165.208
 21
50.9901
 31
0.0
  0
LINE
  8
0
 62
     0
 10
165.208
 20
50.9901
 30
0.0
 11
165.208
 21
51.9906
 31
0.0
  0
LINE
  8
0
 62
     0
 10
165.208
 20
51.9906
 30
0.0
 11
166.008
 21
51.9906
 31
0.0
  0
LINE
  8
0
 62
     0
 10
166.008
 20
51.9906
 30
0.0
 11
166.008
 21
55.0912
 31
0.0
  0
LINE
  8
0
 62
     0
 10
166.008
 20
55.0912
 30
0.0
 11
165.208
 21
55.0912
 31
0.0
  0
LINE
  8
0
 62
     0
 10
165.208
 20
55.0912
 30
0.0
 11
165.208
 21
60.8902
 31
0.0
  0
LINE
  8
0
 62
     0
 10
165.208
 20
60.8902
 30
0.0
 11
166.008
 21
60.8902
 31
0.0
  0
LINE
  8
0
 62
     0
 10
166.008
 20
60.8902
 30
0.0
 11
166.008
 21
63.9907
 31
0.0
  0
LINE
  8
0
 62
     0
 10
166.008
 20
63.9907
 30
0.0
 11
165.208
 21
63.9907
 31
0.0
  0
LINE
  8
0
 62
     0
 10
165.208
 20
63.9907
 30
0.0
 11
165.208
 21
64.9912
 31
0.0
  0
LINE
  8
0
 62
     0
 10
165.208
 20
64.9912
 30
0.0
 11
151.208
 21
64.9912
 31
0.0
  0
LINE
  8
0
 62
     0
 10
170.258
 20
64.9912
 30
0.0
 11
170.258
 21
63.9907
 31
0.0
  0
LINE
  8
0
 62
     0
 10
170.258
 20
63.9907
 30
0.0
 11
169.458
 21
63.9907
 31
0.0
  0
LINE
  8
0
 62
     0
 10
169.458
 20
63.9907
 30
0.0
 11
169.458
 21
60.8902
 31
0.0
  0
LINE
  8
0
 62
     0
 10
169.458
 20
60.8902
 30
0.0
 11
170.258
 21
60.8902
 31
0.0
  0
LINE
  8
0
 62
     0
 10
170.258
 20
60.8902
 30
0.0
 11
170.258
 21
55.0912
 31
0.0
  0
LINE
  8
0
 62
     0
 10
170.258
 20
55.0912
 30
0.0
 11
169.458
 21
55.0912
 31
0.0
  0
LINE
  8
0
 62
     0
 10
169.458
 20
55.0912
 30
0.0
 11
169.458
 21
51.9906
 31
0.0
  0
LINE
  8
0
 62
     0
 10
169.458
 20
51.9906
 30
0.0
 11
170.258
 21
51.9906
 31
0.0
  0
LINE
  8
0
 62
     0
 10
170.258
 20
51.9906
 30
0.0
 11
170.258
 21
50.9901
 31
0.0
  0
LINE
  8
0
 62
     0
 10
170.258
 20
50.9901
 30
0.0
 11
184.258
 21
50.9901
 31
0.0
  0
LINE
  8
0
 62
     0
 10
184.258
 20
50.9901
 30
0.0
 11
184.258
 21
51.9906
 31
0.0
  0
LINE
  8
0
 62
     0
 10
184.258
 20
51.9906
 30
0.0
 11
185.058
 21
51.9906
 31
0.0
  0
LINE
  8
0
 62
     0
 10
185.058
 20
51.9906
 30
0.0
 11
185.058
 21
55.0912
 31
0.0
  0
LINE
  8
0
 62
     0
 10
185.058
 20
55.0912
 30
0.0
 11
184.258
 21
55.0912
 31
0.0
  0
LINE
  8
0
 62
     0
 10
184.258
 20
55.0912
 30
0.0
 11
184.258
 21
60.8902
 31
0.0
  0
LINE
  8
0
 62
     0
 10
184.258
 20
60.8902
 30
0.0
 11
185.058
 21
60.8902
 31
0.0
  0
LINE
  8
0
 62
     0
 10
185.058
 20
60.8902
 30
0.0
 11
185.058
 21
63.9907
 31
0.0
  0
LINE
  8
0
 62
     0
 10
185.058
 20
63.9907
 30
0.0
 11
184.258
 21
63.9907
 31
0.0
  0
LINE
  8
0
 62
     0
 10
184.258
 20
63.9907
 30
0.0
 11
184.258
 21
64.9912
 31
0.0
  0
LINE
  8
0
 62
     0
 10
184.258
 20
64.9912
 30
0.0
 11
170.258
 21
64.9912
 31
0.0
  0
LINE
  8
0
 62
     0
 10
189.308
 20
64.9912
 30
0.0
 11
189.308
 21
63.9907
 31
0.0
  0
LINE
  8
0
 62
     0
 10
189.308
 20
63.9907
 30
0.0
 11
188.508
 21
63.9907
 31
0.0
  0
LINE
  8
0
 62
     0
 10
188.508
 20
63.9907
 30
0.0
 11
188.508
 21
60.8902
 31
0.0
  0
LINE
  8
0
 62
     0
 10
188.508
 20
60.8902
 30
0.0
 11
189.308
 21
60.8902
 31
0.0
  0
LINE
  8
0
 62
     0
 10
189.308
 20
60.8902
 30
0.0
 11
189.308
 21
55.0912
 31
0.0
  0
LINE
  8
0
 62
     0
 10
189.308
 20
55.0912
 30
0.0
 11
188.508
 21
55.0912
 31
0.0
  0
LINE
  8
0
 62
     0
 10
188.508
 20
55.0912
 30
0.0
 11
188.508
 21
51.9906
 31
0.0
  0
LINE
  8
0
 62
     0
 10
188.508
 20
51.9906
 30
0.0
 11
189.308
 21
51.9906
 31
0.0
  0
LINE
  8
0
 62
     0
 10
189.308
 20
51.9906
 30
0.0
 11
189.308
 21
50.9901
 31
0.0
  0
LINE
  8
0
 62
     0
 10
189.308
 20
50.9901
 30
0.0
 11
203.308
 21
50.9901
 31
0.0
  0
LINE
  8
0
 62
     0
 10
203.308
 20
50.9901
 30
0.0
 11
203.308
 21
51.9906
 31
0.0
  0
LINE
  8
0
 62
     0
 10
203.308
 20
51.9906
 30
0.0
 11
204.108
 21
51.9906
 31
0.0
  0
LINE
  8
0
 62
     0
 10
204.108
 20
51.9906
 30
0.0
 11
204.108
 21
55.0912
 31
0.0
  0
LINE
  8
0
 62
     0
 10
204.108
 20
55.0912
 30
0.0
 11
203.308
 21
55.0912
 31
0.0
  0
LINE
  8
0
 62
     0
 10
203.308
 20
55.0912
 30
0.0
 11
203.308
 21
60.8902
 31
0.0
  0
LINE
  8
0
 62
     0
 10
203.308
 20
60.8902
 30
0.0
 11
204.108
 21
60.8902
 31
0.0
  0
LINE
  8
0
 62
     0
 10
204.108
 20
60.8902
 30
0.0
 11
204.108
 21
63.9907
 31
0.0
  0
LINE
  8
0
 62
     0
 10
204.108
 20
63.9907
 30
0.0
 11
203.308
 21
63.9907
 31
0.0
  0
LINE
  8
0
 62
     0
 10
203.308
 20
63.9907
 30
0.0
 11
203.308
 21
64.9912
 31
0.0
  0
LINE
  8
0
 62
     0
 10
203.308
 20
64.9912
 30
0.0
 11
189.308
 21
64.9912
 31
0.0
  0
LINE
  8
0
 62
     0
 10
208.358
 20
64.9912
 30
0.0
 11
208.358
 21
63.9907
 31
0.0
  0
LINE
  8
0
 62
     0
 10
208.358
 20
63.9907
 30
0.0
 11
207.558
 21
63.9907
 31
0.0
  0
LINE
  8
0
 62
     0
 10
207.558
 20
63.9907
 30
0.0
 11
207.558
 21
60.8902
 31
0.0
  0
LINE
  8
0
 62
     0
 10
207.558
 20
60.8902
 30
0.0
 11
208.358
 21
60.8902
 31
0.0
  0
LINE
  8
0
 62
     0
 10
208.358
 20
60.8902
 30
0.0
 11
208.358
 21
55.0912
 31
0.0
  0
LINE
  8
0
 62
     0
 10
208.358
 20
55.0912
 30
0.0
 11
207.558
 21
55.0912
 31
0.0
  0
LINE
  8
0
 62
     0
 10
207.558
 20
55.0912
 30
0.0
 11
207.558
 21
51.9906
 31
0.0
  0
LINE
  8
0
 62
     0
 10
207.558
 20
51.9906
 30
0.0
 11
208.358
 21
51.9906
 31
0.0
  0
LINE
  8
0
 62
     0
 10
208.358
 20
51.9906
 30
0.0
 11
208.358
 21
50.9901
 31
0.0
  0
LINE
  8
0
 62
     0
 10
208.358
 20
50.9901
 30
0.0
 11
222.358
 21
50.9901
 31
0.0
  0
LINE
  8
0
 62
     0
 10
222.358
 20
50.9901
 30
0.0
 11
222.358
 21
51.9906
 31
0.0
  0
LINE
  8
0
 62
     0
 10
222.358
 20
51.9906
 30
0.0
 11
223.158
 21
51.9906
 31
0.0
  0
LINE
  8
0
 62
     0
 10
223.158
 20
51.9906
 30
0.0
 11
223.158
 21
55.0912
 31
0.0
  0
LINE
  8
0
 62
     0
 10
223.158
 20
55.0912
 30
0.0
 11
222.358
 21
55.0912
 31
0.0
  0
LINE
  8
0
 62
     0
 10
222.358
 20
55.0912
 30
0.0
 11
222.358
 21
60.8902
 31
0.0
  0
LINE
  8
0
 62
     0
 10
222.358
 20
60.8902
 30
0.0
 11
223.158
 21
60.8902
 31
0.0
  0
LINE
  8
0
 62
     0
 10
223.158
 20
60.8902
 30
0.0
 11
223.158
 21
63.9907
 31
0.0
  0
LINE
  8
0
 62
     0
 10
223.158
 20
63.9907
 30
0.0
 11
222.358
 21
63.9907
 31
0.0
  0
LINE
  8
0
 62
     0
 10
222.358
 20
63.9907
 30
0.0
 11
222.358
 21
64.9912
 31
0.0
  0
LINE
  8
0
 62
     0
 10
222.358
 20
64.9912
 30
0.0
 11
208.358
 21
64.9912
 31
0.0
  0
LINE
  8
0
 62
     0
 10
227.408
 20
64.9912
 30
0.0
 11
227.408
 21
63.9907
 31
0.0
  0
LINE
  8
0
 62
     0
 10
227.408
 20
63.9907
 30
0.0
 11
226.608
 21
63.9907
 31
0.0
  0
LINE
  8
0
 62
     0
 10
226.608
 20
63.9907
 30
0.0
 11
226.608
 21
60.8902
 31
0.0
  0
LINE
  8
0
 62
     0
 10
226.608
 20
60.8902
 30
0.0
 11
227.408
 21
60.8902
 31
0.0
  0
LINE
  8
0
 62
     0
 10
227.408
 20
60.8902
 30
0.0
 11
227.408
 21
55.0912
 31
0.0
  0
LINE
  8
0
 62
     0
 10
227.408
 20
55.0912
 30
0.0
 11
226.608
 21
55.0912
 31
0.0
  0
LINE
  8
0
 62
     0
 10
226.608
 20
55.0912
 30
0.0
 11
226.608
 21
51.9906
 31
0.0
  0
LINE
  8
0
 62
     0
 10
226.608
 20
51.9906
 30
0.0
 11
227.408
 21
51.9906
 31
0.0
  0
LINE
  8
0
 62
     0
 10
227.408
 20
51.9906
 30
0.0
 11
227.408
 21
50.9901
 31
0.0
  0
LINE
  8
0
 62
     0
 10
227.408
 20
50.9901
 30
0.0
 11
241.408
 21
50.9901
 31
0.0
  0
LINE
  8
0
 62
     0
 10
241.408
 20
50.9901
 30
0.0
 11
241.408
 21
51.9906
 31
0.0
  0
LINE
  8
0
 62
     0
 10
241.408
 20
51.9906
 30
0.0
 11
242.208
 21
51.9906
 31
0.0
  0
LINE
  8
0
 62
     0
 10
242.208
 20
51.9906
 30
0.0
 11
242.208
 21
55.0912
 31
0.0
  0
LINE
  8
0
 62
     0
 10
242.208
 20
55.0912
 30
0.0
 11
241.408
 21
55.0912
 31
0.0
  0
LINE
  8
0
 62
     0
 10
241.408
 20
55.0912
 30
0.0
 11
241.408
 21
60.8902
 31
0.0
  0
LINE
  8
0
 62
     0
 10
241.408
 20
60.8902
 30
0.0
 11
242.208
 21
60.8902
 31
0.0
  0
LINE
  8
0
 62
     0
 10
242.208
 20
60.8902
 30
0.0
 11
242.208
 21
63.9907
 31
0.0
  0
LINE
  8
0
 62
     0
 10
242.208
 20
63.9907
 30
0.0
 11
241.408
 21
63.9907
 31
0.0
  0
LINE
  8
0
 62
     0
 10
241.408
 20
63.9907
 30
0.0
 11
241.408
 21
64.9912
 31
0.0
  0
LINE
  8
0
 62
     0
 10
241.408
 20
64.9912
 30
0.0
 11
227.408
 21
64.9912
 31
0.0
  0
LINE
  8
0
 62
     0
 10
246.458
 20
64.9912
 30
0.0
 11
246.458
 21
63.9907
 31
0.0
  0
LINE
  8
0
 62
     0
 10
246.458
 20
63.9907
 30
0.0
 11
245.658
 21
63.9907
 31
0.0
  0
LINE
  8
0
 62
     0
 10
245.658
 20
63.9907
 30
0.0
 11
245.658
 21
60.8902
 31
0.0
  0
LINE
  8
0
 62
     0
 10
245.658
 20
60.8902
 30
0.0
 11
246.458
 21
60.8902
 31
0.0
  0
LINE
  8
0
 62
     0
 10
246.458
 20
60.8902
 30
0.0
 11
246.458
 21
55.0912
 31
0.0
  0
LINE
  8
0
 62
     0
 10
246.458
 20
55.0912
 30
0.0
 11
245.658
 21
55.0912
 31
0.0
  0
LINE
  8
0
 62
     0
 10
245.658
 20
55.0912
 30
0.0
 11
245.658
 21
51.9906
 31
0.0
  0
LINE
  8
0
 62
     0
 10
245.658
 20
51.9906
 30
0.0
 11
246.458
 21
51.9906
 31
0.0
  0
LINE
  8
0
 62
     0
 10
246.458
 20
51.9906
 30
0.0
 11
246.458
 21
50.9901
 31
0.0
  0
LINE
  8
0
 62
     0
 10
246.458
 20
50.9901
 30
0.0
 11
260.458
 21
50.9901
 31
0.0
  0
LINE
  8
0
 62
     0
 10
260.458
 20
50.9901
 30
0.0
 11
260.458
 21
51.9906
 31
0.0
  0
LINE
  8
0
 62
     0
 10
260.458
 20
51.9906
 30
0.0
 11
261.258
 21
51.9906
 31
0.0
  0
LINE
  8
0
 62
     0
 10
261.258
 20
51.9906
 30
0.0
 11
261.258
 21
55.0912
 31
0.0
  0
LINE
  8
0
 62
     0
 10
261.258
 20
55.0912
 30
0.0
 11
260.458
 21
55.0912
 31
0.0
  0
LINE
  8
0
 62
     0
 10
260.458
 20
55.0912
 30
0.0
 11
260.458
 21
60.8902
 31
0.0
  0
LINE
  8
0
 62
     0
 10
260.458
 20
60.8902
 30
0.0
 11
261.258
 21
60.8902
 31
0.0
  0
LINE
  8
0
 62
     0
 10
261.258
 20
60.8902
 30
0.0
 11
261.258
 21
63.9907
 31
0.0
  0
LINE
  8
0
 62
     0
 10
261.258
 20
63.9907
 30
0.0
 11
260.458
 21
63.9907
 31
0.0
  0
LINE
  8
0
 62
     0
 10
260.458
 20
63.9907
 30
0.0
 11
260.458
 21
64.9912
 31
0.0
  0
LINE
  8
0
 62
     0
 10
260.458
 20
64.9912
 30
0.0
 11
246.458
 21
64.9912
 31
0.0
  0
LINE
  8
0
 62
     0
 10
27.383
 20
84.0412
 30
0.0
 11
27.383
 21
83.0407
 31
0.0
  0
LINE
  8
0
 62
     0
 10
27.383
 20
83.0407
 30
0.0
 11
26.5824
 21
83.0407
 31
0.0
  0
LINE
  8
0
 62
     0
 10
26.5824
 20
83.0407
 30
0.0
 11
26.5824
 21
79.9402
 31
0.0
  0
LINE
  8
0
 62
     0
 10
26.5824
 20
79.9402
 30
0.0
 11
27.383
 21
79.9402
 31
0.0
  0
LINE
  8
0
 62
     0
 10
27.383
 20
79.9402
 30
0.0
 11
27.383
 21
74.1412
 31
0.0
  0
LINE
  8
0
 62
     0
 10
27.383
 20
74.1412
 30
0.0
 11
26.5824
 21
74.1412
 31
0.0
  0
LINE
  8
0
 62
     0
 10
26.5824
 20
74.1412
 30
0.0
 11
26.5824
 21
71.0406
 31
0.0
  0
LINE
  8
0
 62
     0
 10
26.5824
 20
71.0406
 30
0.0
 11
27.383
 21
71.0406
 31
0.0
  0
LINE
  8
0
 62
     0
 10
27.383
 20
71.0406
 30
0.0
 11
27.383
 21
70.0401
 31
0.0
  0
LINE
  8
0
 62
     0
 10
27.383
 20
70.0401
 30
0.0
 11
41.3826
 21
70.0401
 31
0.0
  0
LINE
  8
0
 62
     0
 10
41.3826
 20
70.0401
 30
0.0
 11
41.3826
 21
71.0406
 31
0.0
  0
LINE
  8
0
 62
     0
 10
41.3826
 20
71.0406
 30
0.0
 11
42.183
 21
71.0406
 31
0.0
  0
LINE
  8
0
 62
     0
 10
42.183
 20
71.0406
 30
0.0
 11
42.183
 21
74.1412
 31
0.0
  0
LINE
  8
0
 62
     0
 10
42.183
 20
74.1412
 30
0.0
 11
41.3826
 21
74.1412
 31
0.0
  0
LINE
  8
0
 62
     0
 10
41.3826
 20
74.1412
 30
0.0
 11
41.3826
 21
79.9402
 31
0.0
  0
LINE
  8
0
 62
     0
 10
41.3826
 20
79.9402
 30
0.0
 11
42.183
 21
79.9402
 31
0.0
  0
LINE
  8
0
 62
     0
 10
42.183
 20
79.9402
 30
0.0
 11
42.183
 21
83.0407
 31
0.0
  0
LINE
  8
0
 62
     0
 10
42.183
 20
83.0407
 30
0.0
 11
41.3826
 21
83.0407
 31
0.0
  0
LINE
  8
0
 62
     0
 10
41.3826
 20
83.0407
 30
0.0
 11
41.3826
 21
84.0412
 31
0.0
  0
LINE
  8
0
 62
     0
 10
41.3826
 20
84.0412
 30
0.0
 11
27.383
 21
84.0412
 31
0.0
  0
LINE
  8
0
 62
     0
 10
51.1955
 20
84.0412
 30
0.0
 11
51.1955
 21
83.0407
 31
0.0
  0
LINE
  8
0
 62
     0
 10
51.1955
 20
83.0407
 30
0.0
 11
50.395
 21
83.0407
 31
0.0
  0
LINE
  8
0
 62
     0
 10
50.395
 20
83.0407
 30
0.0
 11
50.395
 21
79.9402
 31
0.0
  0
LINE
  8
0
 62
     0
 10
50.395
 20
79.9402
 30
0.0
 11
51.1955
 21
79.9402
 31
0.0
  0
LINE
  8
0
 62
     0
 10
51.1955
 20
79.9402
 30
0.0
 11
51.1955
 21
74.1412
 31
0.0
  0
LINE
  8
0
 62
     0
 10
51.1955
 20
74.1412
 30
0.0
 11
50.395
 21
74.1412
 31
0.0
  0
LINE
  8
0
 62
     0
 10
50.395
 20
74.1412
 30
0.0
 11
50.395
 21
71.0406
 31
0.0
  0
LINE
  8
0
 62
     0
 10
50.395
 20
71.0406
 30
0.0
 11
51.1955
 21
71.0406
 31
0.0
  0
LINE
  8
0
 62
     0
 10
51.1955
 20
71.0406
 30
0.0
 11
51.1955
 21
70.0401
 31
0.0
  0
LINE
  8
0
 62
     0
 10
51.1955
 20
70.0401
 30
0.0
 11
65.1951
 21
70.0401
 31
0.0
  0
LINE
  8
0
 62
     0
 10
65.1951
 20
70.0401
 30
0.0
 11
65.1951
 21
71.0406
 31
0.0
  0
LINE
  8
0
 62
     0
 10
65.1951
 20
71.0406
 30
0.0
 11
65.9956
 21
71.0406
 31
0.0
  0
LINE
  8
0
 62
     0
 10
65.9956
 20
71.0406
 30
0.0
 11
65.9956
 21
74.1412
 31
0.0
  0
LINE
  8
0
 62
     0
 10
65.9956
 20
74.1412
 30
0.0
 11
65.1951
 21
74.1412
 31
0.0
  0
LINE
  8
0
 62
     0
 10
65.1951
 20
74.1412
 30
0.0
 11
65.1951
 21
79.9402
 31
0.0
  0
LINE
  8
0
 62
     0
 10
65.1951
 20
79.9402
 30
0.0
 11
65.9956
 21
79.9402
 31
0.0
  0
LINE
  8
0
 62
     0
 10
65.9956
 20
79.9402
 30
0.0
 11
65.9956
 21
83.0407
 31
0.0
  0
LINE
  8
0
 62
     0
 10
65.9956
 20
83.0407
 30
0.0
 11
65.1951
 21
83.0407
 31
0.0
  0
LINE
  8
0
 62
     0
 10
65.1951
 20
83.0407
 30
0.0
 11
65.1951
 21
84.0412
 31
0.0
  0
LINE
  8
0
 62
     0
 10
65.1951
 20
84.0412
 30
0.0
 11
51.1955
 21
84.0412
 31
0.0
  0
LINE
  8
0
 62
     0
 10
70.2455
 20
84.0412
 30
0.0
 11
70.2455
 21
83.0407
 31
0.0
  0
LINE
  8
0
 62
     0
 10
70.2455
 20
83.0407
 30
0.0
 11
69.445
 21
83.0407
 31
0.0
  0
LINE
  8
0
 62
     0
 10
69.445
 20
83.0407
 30
0.0
 11
69.445
 21
79.9402
 31
0.0
  0
LINE
  8
0
 62
     0
 10
69.445
 20
79.9402
 30
0.0
 11
70.2455
 21
79.9402
 31
0.0
  0
LINE
  8
0
 62
     0
 10
70.2455
 20
79.9402
 30
0.0
 11
70.2455
 21
74.1412
 31
0.0
  0
LINE
  8
0
 62
     0
 10
70.2455
 20
74.1412
 30
0.0
 11
69.445
 21
74.1412
 31
0.0
  0
LINE
  8
0
 62
     0
 10
69.445
 20
74.1412
 30
0.0
 11
69.445
 21
71.0406
 31
0.0
  0
LINE
  8
0
 62
     0
 10
69.445
 20
71.0406
 30
0.0
 11
70.2455
 21
71.0406
 31
0.0
  0
LINE
  8
0
 62
     0
 10
70.2455
 20
71.0406
 30
0.0
 11
70.2455
 21
70.0401
 31
0.0
  0
LINE
  8
0
 62
     0
 10
70.2455
 20
70.0401
 30
0.0
 11
84.2451
 21
70.0401
 31
0.0
  0
LINE
  8
0
 62
     0
 10
84.2451
 20
70.0401
 30
0.0
 11
84.2451
 21
71.0406
 31
0.0
  0
LINE
  8
0
 62
     0
 10
84.2451
 20
71.0406
 30
0.0
 11
85.0456
 21
71.0406
 31
0.0
  0
LINE
  8
0
 62
     0
 10
85.0456
 20
71.0406
 30
0.0
 11
85.0456
 21
74.1412
 31
0.0
  0
LINE
  8
0
 62
     0
 10
85.0456
 20
74.1412
 30
0.0
 11
84.2451
 21
74.1412
 31
0.0
  0
LINE
  8
0
 62
     0
 10
84.2451
 20
74.1412
 30
0.0
 11
84.2451
 21
79.9402
 31
0.0
  0
LINE
  8
0
 62
     0
 10
84.2451
 20
79.9402
 30
0.0
 11
85.0456
 21
79.9402
 31
0.0
  0
LINE
  8
0
 62
     0
 10
85.0456
 20
79.9402
 30
0.0
 11
85.0456
 21
83.0407
 31
0.0
  0
LINE
  8
0
 62
     0
 10
85.0456
 20
83.0407
 30
0.0
 11
84.2451
 21
83.0407
 31
0.0
  0
LINE
  8
0
 62
     0
 10
84.2451
 20
83.0407
 30
0.0
 11
84.2451
 21
84.0412
 31
0.0
  0
LINE
  8
0
 62
     0
 10
84.2451
 20
84.0412
 30
0.0
 11
70.2455
 21
84.0412
 31
0.0
  0
LINE
  8
0
 62
     0
 10
89.2955
 20
84.0412
 30
0.0
 11
89.2955
 21
83.0407
 31
0.0
  0
LINE
  8
0
 62
     0
 10
89.2955
 20
83.0407
 30
0.0
 11
88.495
 21
83.0407
 31
0.0
  0
LINE
  8
0
 62
     0
 10
88.495
 20
83.0407
 30
0.0
 11
88.495
 21
79.9402
 31
0.0
  0
LINE
  8
0
 62
     0
 10
88.495
 20
79.9402
 30
0.0
 11
89.2955
 21
79.9402
 31
0.0
  0
LINE
  8
0
 62
     0
 10
89.2955
 20
79.9402
 30
0.0
 11
89.2955
 21
74.1412
 31
0.0
  0
LINE
  8
0
 62
     0
 10
89.2955
 20
74.1412
 30
0.0
 11
88.495
 21
74.1412
 31
0.0
  0
LINE
  8
0
 62
     0
 10
88.495
 20
74.1412
 30
0.0
 11
88.495
 21
71.0406
 31
0.0
  0
LINE
  8
0
 62
     0
 10
88.495
 20
71.0406
 30
0.0
 11
89.2955
 21
71.0406
 31
0.0
  0
LINE
  8
0
 62
     0
 10
89.2955
 20
71.0406
 30
0.0
 11
89.2955
 21
70.0401
 31
0.0
  0
LINE
  8
0
 62
     0
 10
89.2955
 20
70.0401
 30
0.0
 11
103.295
 21
70.0401
 31
0.0
  0
LINE
  8
0
 62
     0
 10
103.295
 20
70.0401
 30
0.0
 11
103.295
 21
71.0406
 31
0.0
  0
LINE
  8
0
 62
     0
 10
103.295
 20
71.0406
 30
0.0
 11
104.096
 21
71.0406
 31
0.0
  0
LINE
  8
0
 62
     0
 10
104.096
 20
71.0406
 30
0.0
 11
104.096
 21
74.1412
 31
0.0
  0
LINE
  8
0
 62
     0
 10
104.096
 20
74.1412
 30
0.0
 11
103.295
 21
74.1412
 31
0.0
  0
LINE
  8
0
 62
     0
 10
103.295
 20
74.1412
 30
0.0
 11
103.295
 21
79.9402
 31
0.0
  0
LINE
  8
0
 62
     0
 10
103.295
 20
79.9402
 30
0.0
 11
104.096
 21
79.9402
 31
0.0
  0
LINE
  8
0
 62
     0
 10
104.096
 20
79.9402
 30
0.0
 11
104.096
 21
83.0407
 31
0.0
  0
LINE
  8
0
 62
     0
 10
104.096
 20
83.0407
 30
0.0
 11
103.295
 21
83.0407
 31
0.0
  0
LINE
  8
0
 62
     0
 10
103.295
 20
83.0407
 30
0.0
 11
103.295
 21
84.0412
 31
0.0
  0
LINE
  8
0
 62
     0
 10
103.295
 20
84.0412
 30
0.0
 11
89.2955
 21
84.0412
 31
0.0
  0
LINE
  8
0
 62
     0
 10
108.345
 20
84.0412
 30
0.0
 11
108.345
 21
83.0407
 31
0.0
  0
LINE
  8
0
 62
     0
 10
108.345
 20
83.0407
 30
0.0
 11
107.545
 21
83.0407
 31
0.0
  0
LINE
  8
0
 62
     0
 10
107.545
 20
83.0407
 30
0.0
 11
107.545
 21
79.9402
 31
0.0
  0
LINE
  8
0
 62
     0
 10
107.545
 20
79.9402
 30
0.0
 11
108.345
 21
79.9402
 31
0.0
  0
LINE
  8
0
 62
     0
 10
108.345
 20
79.9402
 30
0.0
 11
108.345
 21
74.1412
 31
0.0
  0
LINE
  8
0
 62
     0
 10
108.345
 20
74.1412
 30
0.0
 11
107.545
 21
74.1412
 31
0.0
  0
LINE
  8
0
 62
     0
 10
107.545
 20
74.1412
 30
0.0
 11
107.545
 21
71.0406
 31
0.0
  0
LINE
  8
0
 62
     0
 10
107.545
 20
71.0406
 30
0.0
 11
108.345
 21
71.0406
 31
0.0
  0
LINE
  8
0
 62
     0
 10
108.345
 20
71.0406
 30
0.0
 11
108.345
 21
70.0401
 31
0.0
  0
LINE
  8
0
 62
     0
 10
108.345
 20
70.0401
 30
0.0
 11
122.345
 21
70.0401
 31
0.0
  0
LINE
  8
0
 62
     0
 10
122.345
 20
70.0401
 30
0.0
 11
122.345
 21
71.0406
 31
0.0
  0
LINE
  8
0
 62
     0
 10
122.345
 20
71.0406
 30
0.0
 11
123.146
 21
71.0406
 31
0.0
  0
LINE
  8
0
 62
     0
 10
123.146
 20
71.0406
 30
0.0
 11
123.146
 21
74.1412
 31
0.0
  0
LINE
  8
0
 62
     0
 10
123.146
 20
74.1412
 30
0.0
 11
122.345
 21
74.1412
 31
0.0
  0
LINE
  8
0
 62
     0
 10
122.345
 20
74.1412
 30
0.0
 11
122.345
 21
79.9402
 31
0.0
  0
LINE
  8
0
 62
     0
 10
122.345
 20
79.9402
 30
0.0
 11
123.146
 21
79.9402
 31
0.0
  0
LINE
  8
0
 62
     0
 10
123.146
 20
79.9402
 30
0.0
 11
123.146
 21
83.0407
 31
0.0
  0
LINE
  8
0
 62
     0
 10
123.146
 20
83.0407
 30
0.0
 11
122.345
 21
83.0407
 31
0.0
  0
LINE
  8
0
 62
     0
 10
122.345
 20
83.0407
 30
0.0
 11
122.345
 21
84.0412
 31
0.0
  0
LINE
  8
0
 62
     0
 10
122.345
 20
84.0412
 30
0.0
 11
108.345
 21
84.0412
 31
0.0
  0
LINE
  8
0
 62
     0
 10
127.395
 20
84.0412
 30
0.0
 11
127.395
 21
83.0407
 31
0.0
  0
LINE
  8
0
 62
     0
 10
127.395
 20
83.0407
 30
0.0
 11
126.595
 21
83.0407
 31
0.0
  0
LINE
  8
0
 62
     0
 10
126.595
 20
83.0407
 30
0.0
 11
126.595
 21
79.9402
 31
0.0
  0
LINE
  8
0
 62
     0
 10
126.595
 20
79.9402
 30
0.0
 11
127.395
 21
79.9402
 31
0.0
  0
LINE
  8
0
 62
     0
 10
127.395
 20
79.9402
 30
0.0
 11
127.395
 21
74.1412
 31
0.0
  0
LINE
  8
0
 62
     0
 10
127.395
 20
74.1412
 30
0.0
 11
126.595
 21
74.1412
 31
0.0
  0
LINE
  8
0
 62
     0
 10
126.595
 20
74.1412
 30
0.0
 11
126.595
 21
71.0406
 31
0.0
  0
LINE
  8
0
 62
     0
 10
126.595
 20
71.0406
 30
0.0
 11
127.395
 21
71.0406
 31
0.0
  0
LINE
  8
0
 62
     0
 10
127.395
 20
71.0406
 30
0.0
 11
127.395
 21
70.0401
 31
0.0
  0
LINE
  8
0
 62
     0
 10
127.395
 20
70.0401
 30
0.0
 11
141.395
 21
70.0401
 31
0.0
  0
LINE
  8
0
 62
     0
 10
141.395
 20
70.0401
 30
0.0
 11
141.395
 21
71.0406
 31
0.0
  0
LINE
  8
0
 62
     0
 10
141.395
 20
71.0406
 30
0.0
 11
142.196
 21
71.0406
 31
0.0
  0
LINE
  8
0
 62
     0
 10
142.196
 20
71.0406
 30
0.0
 11
142.196
 21
74.1412
 31
0.0
  0
LINE
  8
0
 62
     0
 10
142.196
 20
74.1412
 30
0.0
 11
141.395
 21
74.1412
 31
0.0
  0
LINE
  8
0
 62
     0
 10
141.395
 20
74.1412
 30
0.0
 11
141.395
 21
79.9402
 31
0.0
  0
LINE
  8
0
 62
     0
 10
141.395
 20
79.9402
 30
0.0
 11
142.196
 21
79.9402
 31
0.0
  0
LINE
  8
0
 62
     0
 10
142.196
 20
79.9402
 30
0.0
 11
142.196
 21
83.0407
 31
0.0
  0
LINE
  8
0
 62
     0
 10
142.196
 20
83.0407
 30
0.0
 11
141.395
 21
83.0407
 31
0.0
  0
LINE
  8
0
 62
     0
 10
141.395
 20
83.0407
 30
0.0
 11
141.395
 21
84.0412
 31
0.0
  0
LINE
  8
0
 62
     0
 10
141.395
 20
84.0412
 30
0.0
 11
127.395
 21
84.0412
 31
0.0
  0
LINE
  8
0
 62
     0
 10
146.445
 20
84.0412
 30
0.0
 11
146.445
 21
83.0407
 31
0.0
  0
LINE
  8
0
 62
     0
 10
146.445
 20
83.0407
 30
0.0
 11
145.645
 21
83.0407
 31
0.0
  0
LINE
  8
0
 62
     0
 10
145.645
 20
83.0407
 30
0.0
 11
145.645
 21
79.9402
 31
0.0
  0
LINE
  8
0
 62
     0
 10
145.645
 20
79.9402
 30
0.0
 11
146.445
 21
79.9402
 31
0.0
  0
LINE
  8
0
 62
     0
 10
146.445
 20
79.9402
 30
0.0
 11
146.445
 21
74.1412
 31
0.0
  0
LINE
  8
0
 62
     0
 10
146.445
 20
74.1412
 30
0.0
 11
145.645
 21
74.1412
 31
0.0
  0
LINE
  8
0
 62
     0
 10
145.645
 20
74.1412
 30
0.0
 11
145.645
 21
71.0406
 31
0.0
  0
LINE
  8
0
 62
     0
 10
145.645
 20
71.0406
 30
0.0
 11
146.445
 21
71.0406
 31
0.0
  0
LINE
  8
0
 62
     0
 10
146.445
 20
71.0406
 30
0.0
 11
146.445
 21
70.0401
 31
0.0
  0
LINE
  8
0
 62
     0
 10
146.445
 20
70.0401
 30
0.0
 11
160.445
 21
70.0401
 31
0.0
  0
LINE
  8
0
 62
     0
 10
160.445
 20
70.0401
 30
0.0
 11
160.445
 21
71.0406
 31
0.0
  0
LINE
  8
0
 62
     0
 10
160.445
 20
71.0406
 30
0.0
 11
161.246
 21
71.0406
 31
0.0
  0
LINE
  8
0
 62
     0
 10
161.246
 20
71.0406
 30
0.0
 11
161.246
 21
74.1412
 31
0.0
  0
LINE
  8
0
 62
     0
 10
161.246
 20
74.1412
 30
0.0
 11
160.445
 21
74.1412
 31
0.0
  0
LINE
  8
0
 62
     0
 10
160.445
 20
74.1412
 30
0.0
 11
160.445
 21
79.9402
 31
0.0
  0
LINE
  8
0
 62
     0
 10
160.445
 20
79.9402
 30
0.0
 11
161.246
 21
79.9402
 31
0.0
  0
LINE
  8
0
 62
     0
 10
161.246
 20
79.9402
 30
0.0
 11
161.246
 21
83.0407
 31
0.0
  0
LINE
  8
0
 62
     0
 10
161.246
 20
83.0407
 30
0.0
 11
160.445
 21
83.0407
 31
0.0
  0
LINE
  8
0
 62
     0
 10
160.445
 20
83.0407
 30
0.0
 11
160.445
 21
84.0412
 31
0.0
  0
LINE
  8
0
 62
     0
 10
160.445
 20
84.0412
 30
0.0
 11
146.445
 21
84.0412
 31
0.0
  0
LINE
  8
0
 62
     0
 10
165.495
 20
84.0412
 30
0.0
 11
165.495
 21
83.0407
 31
0.0
  0
LINE
  8
0
 62
     0
 10
165.495
 20
83.0407
 30
0.0
 11
164.695
 21
83.0407
 31
0.0
  0
LINE
  8
0
 62
     0
 10
164.695
 20
83.0407
 30
0.0
 11
164.695
 21
79.9402
 31
0.0
  0
LINE
  8
0
 62
     0
 10
164.695
 20
79.9402
 30
0.0
 11
165.495
 21
79.9402
 31
0.0
  0
LINE
  8
0
 62
     0
 10
165.495
 20
79.9402
 30
0.0
 11
165.495
 21
74.1412
 31
0.0
  0
LINE
  8
0
 62
     0
 10
165.495
 20
74.1412
 30
0.0
 11
164.695
 21
74.1412
 31
0.0
  0
LINE
  8
0
 62
     0
 10
164.695
 20
74.1412
 30
0.0
 11
164.695
 21
71.0406
 31
0.0
  0
LINE
  8
0
 62
     0
 10
164.695
 20
71.0406
 30
0.0
 11
165.495
 21
71.0406
 31
0.0
  0
LINE
  8
0
 62
     0
 10
165.495
 20
71.0406
 30
0.0
 11
165.495
 21
70.0401
 31
0.0
  0
LINE
  8
0
 62
     0
 10
165.495
 20
70.0401
 30
0.0
 11
179.495
 21
70.0401
 31
0.0
  0
LINE
  8
0
 62
     0
 10
179.495
 20
70.0401
 30
0.0
 11
179.495
 21
71.0406
 31
0.0
  0
LINE
  8
0
 62
     0
 10
179.495
 20
71.0406
 30
0.0
 11
180.296
 21
71.0406
 31
0.0
  0
LINE
  8
0
 62
     0
 10
180.296
 20
71.0406
 30
0.0
 11
180.296
 21
74.1412
 31
0.0
  0
LINE
  8
0
 62
     0
 10
180.296
 20
74.1412
 30
0.0
 11
179.495
 21
74.1412
 31
0.0
  0
LINE
  8
0
 62
     0
 10
179.495
 20
74.1412
 30
0.0
 11
179.495
 21
79.9402
 31
0.0
  0
LINE
  8
0
 62
     0
 10
179.495
 20
79.9402
 30
0.0
 11
180.296
 21
79.9402
 31
0.0
  0
LINE
  8
0
 62
     0
 10
180.296
 20
79.9402
 30
0.0
 11
180.296
 21
83.0407
 31
0.0
  0
LINE
  8
0
 62
     0
 10
180.296
 20
83.0407
 30
0.0
 11
179.495
 21
83.0407
 31
0.0
  0
LINE
  8
0
 62
     0
 10
179.495
 20
83.0407
 30
0.0
 11
179.495
 21
84.0412
 31
0.0
  0
LINE
  8
0
 62
     0
 10
179.495
 20
84.0412
 30
0.0
 11
165.495
 21
84.0412
 31
0.0
  0
LINE
  8
0
 62
     0
 10
184.545
 20
84.0412
 30
0.0
 11
184.545
 21
83.0407
 31
0.0
  0
LINE
  8
0
 62
     0
 10
184.545
 20
83.0407
 30
0.0
 11
183.745
 21
83.0407
 31
0.0
  0
LINE
  8
0
 62
     0
 10
183.745
 20
83.0407
 30
0.0
 11
183.745
 21
79.9402
 31
0.0
  0
LINE
  8
0
 62
     0
 10
183.745
 20
79.9402
 30
0.0
 11
184.545
 21
79.9402
 31
0.0
  0
LINE
  8
0
 62
     0
 10
184.545
 20
79.9402
 30
0.0
 11
184.545
 21
74.1412
 31
0.0
  0
LINE
  8
0
 62
     0
 10
184.545
 20
74.1412
 30
0.0
 11
183.745
 21
74.1412
 31
0.0
  0
LINE
  8
0
 62
     0
 10
183.745
 20
74.1412
 30
0.0
 11
183.745
 21
71.0406
 31
0.0
  0
LINE
  8
0
 62
     0
 10
183.745
 20
71.0406
 30
0.0
 11
184.545
 21
71.0406
 31
0.0
  0
LINE
  8
0
 62
     0
 10
184.545
 20
71.0406
 30
0.0
 11
184.545
 21
70.0401
 31
0.0
  0
LINE
  8
0
 62
     0
 10
184.545
 20
70.0401
 30
0.0
 11
198.545
 21
70.0401
 31
0.0
  0
LINE
  8
0
 62
     0
 10
198.545
 20
70.0401
 30
0.0
 11
198.545
 21
71.0406
 31
0.0
  0
LINE
  8
0
 62
     0
 10
198.545
 20
71.0406
 30
0.0
 11
199.346
 21
71.0406
 31
0.0
  0
LINE
  8
0
 62
     0
 10
199.346
 20
71.0406
 30
0.0
 11
199.346
 21
74.1412
 31
0.0
  0
LINE
  8
0
 62
     0
 10
199.346
 20
74.1412
 30
0.0
 11
198.545
 21
74.1412
 31
0.0
  0
LINE
  8
0
 62
     0
 10
198.545
 20
74.1412
 30
0.0
 11
198.545
 21
79.9402
 31
0.0
  0
LINE
  8
0
 62
     0
 10
198.545
 20
79.9402
 30
0.0
 11
199.346
 21
79.9402
 31
0.0
  0
LINE
  8
0
 62
     0
 10
199.346
 20
79.9402
 30
0.0
 11
199.346
 21
83.0407
 31
0.0
  0
LINE
  8
0
 62
     0
 10
199.346
 20
83.0407
 30
0.0
 11
198.545
 21
83.0407
 31
0.0
  0
LINE
  8
0
 62
     0
 10
198.545
 20
83.0407
 30
0.0
 11
198.545
 21
84.0412
 31
0.0
  0
LINE
  8
0
 62
     0
 10
198.545
 20
84.0412
 30
0.0
 11
184.545
 21
84.0412
 31
0.0
  0
LINE
  8
0
 62
     0
 10
203.595
 20
84.0412
 30
0.0
 11
203.595
 21
83.0407
 31
0.0
  0
LINE
  8
0
 62
     0
 10
203.595
 20
83.0407
 30
0.0
 11
202.795
 21
83.0407
 31
0.0
  0
LINE
  8
0
 62
     0
 10
202.795
 20
83.0407
 30
0.0
 11
202.795
 21
79.9402
 31
0.0
  0
LINE
  8
0
 62
     0
 10
202.795
 20
79.9402
 30
0.0
 11
203.595
 21
79.9402
 31
0.0
  0
LINE
  8
0
 62
     0
 10
203.595
 20
79.9402
 30
0.0
 11
203.595
 21
74.1412
 31
0.0
  0
LINE
  8
0
 62
     0
 10
203.595
 20
74.1412
 30
0.0
 11
202.795
 21
74.1412
 31
0.0
  0
LINE
  8
0
 62
     0
 10
202.795
 20
74.1412
 30
0.0
 11
202.795
 21
71.0406
 31
0.0
  0
LINE
  8
0
 62
     0
 10
202.795
 20
71.0406
 30
0.0
 11
203.595
 21
71.0406
 31
0.0
  0
LINE
  8
0
 62
     0
 10
203.595
 20
71.0406
 30
0.0
 11
203.595
 21
70.0401
 31
0.0
  0
LINE
  8
0
 62
     0
 10
203.595
 20
70.0401
 30
0.0
 11
217.595
 21
70.0401
 31
0.0
  0
LINE
  8
0
 62
     0
 10
217.595
 20
70.0401
 30
0.0
 11
217.595
 21
71.0406
 31
0.0
  0
LINE
  8
0
 62
     0
 10
217.595
 20
71.0406
 30
0.0
 11
218.396
 21
71.0406
 31
0.0
  0
LINE
  8
0
 62
     0
 10
218.396
 20
71.0406
 30
0.0
 11
218.396
 21
74.1412
 31
0.0
  0
LINE
  8
0
 62
     0
 10
218.396
 20
74.1412
 30
0.0
 11
217.595
 21
74.1412
 31
0.0
  0
LINE
  8
0
 62
     0
 10
217.595
 20
74.1412
 30
0.0
 11
217.595
 21
79.9402
 31
0.0
  0
LINE
  8
0
 62
     0
 10
217.595
 20
79.9402
 30
0.0
 11
218.396
 21
79.9402
 31
0.0
  0
LINE
  8
0
 62
     0
 10
218.396
 20
79.9402
 30
0.0
 11
218.396
 21
83.0407
 31
0.0
  0
LINE
  8
0
 62
     0
 10
218.396
 20
83.0407
 30
0.0
 11
217.595
 21
83.0407
 31
0.0
  0
LINE
  8
0
 62
     0
 10
217.595
 20
83.0407
 30
0.0
 11
217.595
 21
84.0412
 31
0.0
  0
LINE
  8
0
 62
     0
 10
217.595
 20
84.0412
 30
0.0
 11
203.595
 21
84.0412
 31
0.0
  0
LINE
  8
0
 62
     0
 10
222.645
 20
84.0412
 30
0.0
 11
222.645
 21
83.0407
 31
0.0
  0
LINE
  8
0
 62
     0
 10
222.645
 20
83.0407
 30
0.0
 11
221.845
 21
83.0407
 31
0.0
  0
LINE
  8
0
 62
     0
 10
221.845
 20
83.0407
 30
0.0
 11
221.845
 21
79.9402
 31
0.0
  0
LINE
  8
0
 62
     0
 10
221.845
 20
79.9402
 30
0.0
 11
222.645
 21
79.9402
 31
0.0
  0
LINE
  8
0
 62
     0
 10
222.645
 20
79.9402
 30
0.0
 11
222.645
 21
74.1412
 31
0.0
  0
LINE
  8
0
 62
     0
 10
222.645
 20
74.1412
 30
0.0
 11
221.845
 21
74.1412
 31
0.0
  0
LINE
  8
0
 62
     0
 10
221.845
 20
74.1412
 30
0.0
 11
221.845
 21
71.0406
 31
0.0
  0
LINE
  8
0
 62
     0
 10
221.845
 20
71.0406
 30
0.0
 11
222.645
 21
71.0406
 31
0.0
  0
LINE
  8
0
 62
     0
 10
222.645
 20
71.0406
 30
0.0
 11
222.645
 21
70.0401
 31
0.0
  0
LINE
  8
0
 62
     0
 10
222.645
 20
70.0401
 30
0.0
 11
236.645
 21
70.0401
 31
0.0
  0
LINE
  8
0
 62
     0
 10
236.645
 20
70.0401
 30
0.0
 11
236.645
 21
71.0406
 31
0.0
  0
LINE
  8
0
 62
     0
 10
236.645
 20
71.0406
 30
0.0
 11
237.446
 21
71.0406
 31
0.0
  0
LINE
  8
0
 62
     0
 10
237.446
 20
71.0406
 30
0.0
 11
237.446
 21
74.1412
 31
0.0
  0
LINE
  8
0
 62
     0
 10
237.446
 20
74.1412
 30
0.0
 11
236.645
 21
74.1412
 31
0.0
  0
LINE
  8
0
 62
     0
 10
236.645
 20
74.1412
 30
0.0
 11
236.645
 21
79.9402
 31
0.0
  0
LINE
  8
0
 62
     0
 10
236.645
 20
79.9402
 30
0.0
 11
237.446
 21
79.9402
 31
0.0
  0
LINE
  8
0
 62
     0
 10
237.446
 20
79.9402
 30
0.0
 11
237.446
 21
83.0407
 31
0.0
  0
LINE
  8
0
 62
     0
 10
237.446
 20
83.0407
 30
0.0
 11
236.645
 21
83.0407
 31
0.0
  0
LINE
  8
0
 62
     0
 10
236.645
 20
83.0407
 30
0.0
 11
236.645
 21
84.0412
 31
0.0
  0
LINE
  8
0
 62
     0
 10
236.645
 20
84.0412
 30
0.0
 11
222.645
 21
84.0412
 31
0.0
  0
LINE
  8
0
 62
     0
 10
241.695
 20
84.0412
 30
0.0
 11
241.695
 21
83.0407
 31
0.0
  0
LINE
  8
0
 62
     0
 10
241.695
 20
83.0407
 30
0.0
 11
240.895
 21
83.0407
 31
0.0
  0
LINE
  8
0
 62
     0
 10
240.895
 20
83.0407
 30
0.0
 11
240.895
 21
79.9402
 31
0.0
  0
LINE
  8
0
 62
     0
 10
240.895
 20
79.9402
 30
0.0
 11
241.695
 21
79.9402
 31
0.0
  0
LINE
  8
0
 62
     0
 10
241.695
 20
79.9402
 30
0.0
 11
241.695
 21
74.1412
 31
0.0
  0
LINE
  8
0
 62
     0
 10
241.695
 20
74.1412
 30
0.0
 11
240.895
 21
74.1412
 31
0.0
  0
LINE
  8
0
 62
     0
 10
240.895
 20
74.1412
 30
0.0
 11
240.895
 21
71.0406
 31
0.0
  0
LINE
  8
0
 62
     0
 10
240.895
 20
71.0406
 30
0.0
 11
241.695
 21
71.0406
 31
0.0
  0
LINE
  8
0
 62
     0
 10
241.695
 20
71.0406
 30
0.0
 11
241.695
 21
70.0401
 31
0.0
  0
LINE
  8
0
 62
     0
 10
241.695
 20
70.0401
 30
0.0
 11
255.695
 21
70.0401
 31
0.0
  0
LINE
  8
0
 62
     0
 10
255.695
 20
70.0401
 30
0.0
 11
255.695
 21
71.0406
 31
0.0
  0
LINE
  8
0
 62
     0
 10
255.695
 20
71.0406
 30
0.0
 11
256.494
 21
71.0406
 31
0.0
  0
LINE
  8
0
 62
     0
 10
256.494
 20
71.0406
 30
0.0
 11
256.494
 21
74.1412
 31
0.0
  0
LINE
  8
0
 62
     0
 10
256.494
 20
74.1412
 30
0.0
 11
255.695
 21
74.1412
 31
0.0
  0
LINE
  8
0
 62
     0
 10
255.695
 20
74.1412
 30
0.0
 11
255.695
 21
79.9402
 31
0.0
  0
LINE
  8
0
 62
     0
 10
255.695
 20
79.9402
 30
0.0
 11
256.494
 21
79.9402
 31
0.0
  0
LINE
  8
0
 62
     0
 10
256.494
 20
79.9402
 30
0.0
 11
256.494
 21
83.0407
 31
0.0
  0
LINE
  8
0
 62
     0
 10
256.494
 20
83.0407
 30
0.0
 11
255.695
 21
83.0407
 31
0.0
  0
LINE
  8
0
 62
     0
 10
255.695
 20
83.0407
 30
0.0
 11
255.695
 21
84.0412
 31
0.0
  0
LINE
  8
0
 62
     0
 10
255.695
 20
84.0412
 30
0.0
 11
241.695
 21
84.0412
 31
0.0
  0
LINE
  8
0
 62
     0
 10
260.745
 20
84.0412
 30
0.0
 11
260.745
 21
83.0407
 31
0.0
  0
LINE
  8
0
 62
     0
 10
260.745
 20
83.0407
 30
0.0
 11
259.945
 21
83.0407
 31
0.0
  0
LINE
  8
0
 62
     0
 10
259.945
 20
83.0407
 30
0.0
 11
259.945
 21
79.9402
 31
0.0
  0
LINE
  8
0
 62
     0
 10
259.945
 20
79.9402
 30
0.0
 11
260.745
 21
79.9402
 31
0.0
  0
LINE
  8
0
 62
     0
 10
260.745
 20
79.9402
 30
0.0
 11
260.745
 21
74.1412
 31
0.0
  0
LINE
  8
0
 62
     0
 10
260.745
 20
74.1412
 30
0.0
 11
259.945
 21
74.1412
 31
0.0
  0
LINE
  8
0
 62
     0
 10
259.945
 20
74.1412
 30
0.0
 11
259.945
 21
71.0406
 31
0.0
  0
LINE
  8
0
 62
     0
 10
259.945
 20
71.0406
 30
0.0
 11
260.745
 21
71.0406
 31
0.0
  0
LINE
  8
0
 62
     0
 10
260.745
 20
71.0406
 30
0.0
 11
260.745
 21
70.0401
 31
0.0
  0
LINE
  8
0
 62
     0
 10
260.745
 20
70.0401
 30
0.0
 11
274.745
 21
70.0401
 31
0.0
  0
LINE
  8
0
 62
     0
 10
274.745
 20
70.0401
 30
0.0
 11
274.745
 21
71.0406
 31
0.0
  0
LINE
  8
0
 62
     0
 10
274.745
 20
71.0406
 30
0.0
 11
275.546
 21
71.0406
 31
0.0
  0
LINE
  8
0
 62
     0
 10
275.546
 20
71.0406
 30
0.0
 11
275.546
 21
74.1412
 31
0.0
  0
LINE
  8
0
 62
     0
 10
275.546
 20
74.1412
 30
0.0
 11
274.745
 21
74.1412
 31
0.0
  0
LINE
  8
0
 62
     0
 10
274.745
 20
74.1412
 30
0.0
 11
274.745
 21
79.9402
 31
0.0
  0
LINE
  8
0
 62
     0
 10
274.745
 20
79.9402
 30
0.0
 11
275.546
 21
79.9402
 31
0.0
  0
LINE
  8
0
 62
     0
 10
275.546
 20
79.9402
 30
0.0
 11
275.546
 21
83.0407
 31
0.0
  0
LINE
  8
0
 62
     0
 10
275.546
 20
83.0407
 30
0.0
 11
274.745
 21
83.0407
 31
0.0
  0
LINE
  8
0
 62
     0
 10
274.745
 20
83.0407
 30
0.0
 11
274.745
 21
84.0412
 31
0.0
  0
LINE
  8
0
 62
     0
 10
274.745
 20
84.0412
 30
0.0
 11
260.745
 21
84.0412
 31
0.0
  0
LINE
  8
0
 62
     0
 10
284.558
 20
84.0412
 30
0.0
 11
284.558
 21
83.0407
 31
0.0
  0
LINE
  8
0
 62
     0
 10
284.558
 20
83.0407
 30
0.0
 11
283.758
 21
83.0407
 31
0.0
  0
LINE
  8
0
 62
     0
 10
283.758
 20
83.0407
 30
0.0
 11
283.758
 21
79.9402
 31
0.0
  0
LINE
  8
0
 62
     0
 10
283.758
 20
79.9402
 30
0.0
 11
284.558
 21
79.9402
 31
0.0
  0
LINE
  8
0
 62
     0
 10
284.558
 20
79.9402
 30
0.0
 11
284.558
 21
74.1412
 31
0.0
  0
LINE
  8
0
 62
     0
 10
284.558
 20
74.1412
 30
0.0
 11
283.758
 21
74.1412
 31
0.0
  0
LINE
  8
0
 62
     0
 10
283.758
 20
74.1412
 30
0.0
 11
283.758
 21
71.0406
 31
0.0
  0
LINE
  8
0
 62
     0
 10
283.758
 20
71.0406
 30
0.0
 11
284.558
 21
71.0406
 31
0.0
  0
LINE
  8
0
 62
     0
 10
284.558
 20
71.0406
 30
0.0
 11
284.558
 21
70.0401
 31
0.0
  0
LINE
  8
0
 62
     0
 10
284.558
 20
70.0401
 30
0.0
 11
298.558
 21
70.0401
 31
0.0
  0
LINE
  8
0
 62
     0
 10
298.558
 20
70.0401
 30
0.0
 11
298.558
 21
71.0406
 31
0.0
  0
LINE
  8
0
 62
     0
 10
298.558
 20
71.0406
 30
0.0
 11
299.358
 21
71.0406
 31
0.0
  0
LINE
  8
0
 62
     0
 10
299.358
 20
71.0406
 30
0.0
 11
299.358
 21
74.1412
 31
0.0
  0
LINE
  8
0
 62
     0
 10
299.358
 20
74.1412
 30
0.0
 11
298.558
 21
74.1412
 31
0.0
  0
LINE
  8
0
 62
     0
 10
298.558
 20
74.1412
 30
0.0
 11
298.558
 21
79.9402
 31
0.0
  0
LINE
  8
0
 62
     0
 10
298.558
 20
79.9402
 30
0.0
 11
299.358
 21
79.9402
 31
0.0
  0
LINE
  8
0
 62
     0
 10
299.358
 20
79.9402
 30
0.0
 11
299.358
 21
83.0407
 31
0.0
  0
LINE
  8
0
 62
     0
 10
299.358
 20
83.0407
 30
0.0
 11
298.558
 21
83.0407
 31
0.0
  0
LINE
  8
0
 62
     0
 10
298.558
 20
83.0407
 30
0.0
 11
298.558
 21
84.0412
 31
0.0
  0
LINE
  8
0
 62
     0
 10
298.558
 20
84.0412
 30
0.0
 11
284.558
 21
84.0412
 31
0.0
  0
LINE
  8
0
 62
     0
 10
22.6205
 20
103.091
 30
0.0
 11
22.6205
 21
102.091
 31
0.0
  0
LINE
  8
0
 62
     0
 10
22.6205
 20
102.091
 30
0.0
 11
21.8199
 21
102.091
 31
0.0
  0
LINE
  8
0
 62
     0
 10
21.8199
 20
102.091
 30
0.0
 11
21.8199
 21
98.9901
 31
0.0
  0
LINE
  8
0
 62
     0
 10
21.8199
 20
98.9901
 30
0.0
 11
22.6205
 21
98.9901
 31
0.0
  0
LINE
  8
0
 62
     0
 10
22.6205
 20
98.9901
 30
0.0
 11
22.6205
 21
93.1912
 31
0.0
  0
LINE
  8
0
 62
     0
 10
22.6205
 20
93.1912
 30
0.0
 11
21.8199
 21
93.1912
 31
0.0
  0
LINE
  8
0
 62
     0
 10
21.8199
 20
93.1912
 30
0.0
 11
21.8199
 21
90.0906
 31
0.0
  0
LINE
  8
0
 62
     0
 10
21.8199
 20
90.0906
 30
0.0
 11
22.6205
 21
90.0906
 31
0.0
  0
LINE
  8
0
 62
     0
 10
22.6205
 20
90.0906
 30
0.0
 11
22.6205
 21
89.0901
 31
0.0
  0
LINE
  8
0
 62
     0
 10
22.6205
 20
89.0901
 30
0.0
 11
36.6201
 21
89.0901
 31
0.0
  0
LINE
  8
0
 62
     0
 10
36.6201
 20
89.0901
 30
0.0
 11
36.6201
 21
90.0906
 31
0.0
  0
LINE
  8
0
 62
     0
 10
36.6201
 20
90.0906
 30
0.0
 11
37.4191
 21
90.0906
 31
0.0
  0
LINE
  8
0
 62
     0
 10
37.4191
 20
90.0906
 30
0.0
 11
37.4191
 21
93.1912
 31
0.0
  0
LINE
  8
0
 62
     0
 10
37.4191
 20
93.1912
 30
0.0
 11
36.6201
 21
93.1912
 31
0.0
  0
LINE
  8
0
 62
     0
 10
36.6201
 20
93.1912
 30
0.0
 11
36.6201
 21
98.9901
 31
0.0
  0
LINE
  8
0
 62
     0
 10
36.6201
 20
98.9901
 30
0.0
 11
37.4191
 21
98.9901
 31
0.0
  0
LINE
  8
0
 62
     0
 10
37.4191
 20
98.9901
 30
0.0
 11
37.4191
 21
102.091
 31
0.0
  0
LINE
  8
0
 62
     0
 10
37.4191
 20
102.091
 30
0.0
 11
36.6201
 21
102.091
 31
0.0
  0
LINE
  8
0
 62
     0
 10
36.6201
 20
102.091
 30
0.0
 11
36.6201
 21
103.091
 31
0.0
  0
LINE
  8
0
 62
     0
 10
36.6201
 20
103.091
 30
0.0
 11
22.6205
 21
103.091
 31
0.0
  0
LINE
  8
0
 62
     0
 10
41.6705
 20
103.091
 30
0.0
 11
41.6705
 21
102.091
 31
0.0
  0
LINE
  8
0
 62
     0
 10
41.6705
 20
102.091
 30
0.0
 11
40.87
 21
102.091
 31
0.0
  0
LINE
  8
0
 62
     0
 10
40.87
 20
102.091
 30
0.0
 11
40.87
 21
98.9901
 31
0.0
  0
LINE
  8
0
 62
     0
 10
40.87
 20
98.9901
 30
0.0
 11
41.6705
 21
98.9901
 31
0.0
  0
LINE
  8
0
 62
     0
 10
41.6705
 20
98.9901
 30
0.0
 11
41.6705
 21
93.1912
 31
0.0
  0
LINE
  8
0
 62
     0
 10
41.6705
 20
93.1912
 30
0.0
 11
40.87
 21
93.1912
 31
0.0
  0
LINE
  8
0
 62
     0
 10
40.87
 20
93.1912
 30
0.0
 11
40.87
 21
90.0906
 31
0.0
  0
LINE
  8
0
 62
     0
 10
40.87
 20
90.0906
 30
0.0
 11
41.6705
 21
90.0906
 31
0.0
  0
LINE
  8
0
 62
     0
 10
41.6705
 20
90.0906
 30
0.0
 11
41.6705
 21
89.0901
 31
0.0
  0
LINE
  8
0
 62
     0
 10
41.6705
 20
89.0901
 30
0.0
 11
55.6701
 21
89.0901
 31
0.0
  0
LINE
  8
0
 62
     0
 10
55.6701
 20
89.0901
 30
0.0
 11
55.6701
 21
90.0906
 31
0.0
  0
LINE
  8
0
 62
     0
 10
55.6701
 20
90.0906
 30
0.0
 11
56.4706
 21
90.0906
 31
0.0
  0
LINE
  8
0
 62
     0
 10
56.4706
 20
90.0906
 30
0.0
 11
56.4706
 21
93.1912
 31
0.0
  0
LINE
  8
0
 62
     0
 10
56.4706
 20
93.1912
 30
0.0
 11
55.6701
 21
93.1912
 31
0.0
  0
LINE
  8
0
 62
     0
 10
55.6701
 20
93.1912
 30
0.0
 11
55.6701
 21
98.9901
 31
0.0
  0
LINE
  8
0
 62
     0
 10
55.6701
 20
98.9901
 30
0.0
 11
56.4706
 21
98.9901
 31
0.0
  0
LINE
  8
0
 62
     0
 10
56.4706
 20
98.9901
 30
0.0
 11
56.4706
 21
102.091
 31
0.0
  0
LINE
  8
0
 62
     0
 10
56.4706
 20
102.091
 30
0.0
 11
55.6701
 21
102.091
 31
0.0
  0
LINE
  8
0
 62
     0
 10
55.6701
 20
102.091
 30
0.0
 11
55.6701
 21
103.091
 31
0.0
  0
LINE
  8
0
 62
     0
 10
55.6701
 20
103.091
 30
0.0
 11
41.6705
 21
103.091
 31
0.0
  0
LINE
  8
0
 62
     0
 10
60.7205
 20
103.091
 30
0.0
 11
60.7205
 21
102.091
 31
0.0
  0
LINE
  8
0
 62
     0
 10
60.7205
 20
102.091
 30
0.0
 11
59.92
 21
102.091
 31
0.0
  0
LINE
  8
0
 62
     0
 10
59.92
 20
102.091
 30
0.0
 11
59.92
 21
98.9901
 31
0.0
  0
LINE
  8
0
 62
     0
 10
59.92
 20
98.9901
 30
0.0
 11
60.7205
 21
98.9901
 31
0.0
  0
LINE
  8
0
 62
     0
 10
60.7205
 20
98.9901
 30
0.0
 11
60.7205
 21
93.1912
 31
0.0
  0
LINE
  8
0
 62
     0
 10
60.7205
 20
93.1912
 30
0.0
 11
59.92
 21
93.1912
 31
0.0
  0
LINE
  8
0
 62
     0
 10
59.92
 20
93.1912
 30
0.0
 11
59.92
 21
90.0906
 31
0.0
  0
LINE
  8
0
 62
     0
 10
59.92
 20
90.0906
 30
0.0
 11
60.7205
 21
90.0906
 31
0.0
  0
LINE
  8
0
 62
     0
 10
60.7205
 20
90.0906
 30
0.0
 11
60.7205
 21
89.0901
 31
0.0
  0
LINE
  8
0
 62
     0
 10
60.7205
 20
89.0901
 30
0.0
 11
74.7201
 21
89.0901
 31
0.0
  0
LINE
  8
0
 62
     0
 10
74.7201
 20
89.0901
 30
0.0
 11
74.7201
 21
90.0906
 31
0.0
  0
LINE
  8
0
 62
     0
 10
74.7201
 20
90.0906
 30
0.0
 11
75.5206
 21
90.0906
 31
0.0
  0
LINE
  8
0
 62
     0
 10
75.5206
 20
90.0906
 30
0.0
 11
75.5206
 21
93.1912
 31
0.0
  0
LINE
  8
0
 62
     0
 10
75.5206
 20
93.1912
 30
0.0
 11
74.7201
 21
93.1912
 31
0.0
  0
LINE
  8
0
 62
     0
 10
74.7201
 20
93.1912
 30
0.0
 11
74.7201
 21
98.9901
 31
0.0
  0
LINE
  8
0
 62
     0
 10
74.7201
 20
98.9901
 30
0.0
 11
75.5206
 21
98.9901
 31
0.0
  0
LINE
  8
0
 62
     0
 10
75.5206
 20
98.9901
 30
0.0
 11
75.5206
 21
102.091
 31
0.0
  0
LINE
  8
0
 62
     0
 10
75.5206
 20
102.091
 30
0.0
 11
74.7201
 21
102.091
 31
0.0
  0
LINE
  8
0
 62
     0
 10
74.7201
 20
102.091
 30
0.0
 11
74.7201
 21
103.091
 31
0.0
  0
LINE
  8
0
 62
     0
 10
74.7201
 20
103.091
 30
0.0
 11
60.7205
 21
103.091
 31
0.0
  0
LINE
  8
0
 62
     0
 10
79.7705
 20
103.091
 30
0.0
 11
79.7705
 21
102.091
 31
0.0
  0
LINE
  8
0
 62
     0
 10
79.7705
 20
102.091
 30
0.0
 11
78.97
 21
102.091
 31
0.0
  0
LINE
  8
0
 62
     0
 10
78.97
 20
102.091
 30
0.0
 11
78.97
 21
98.9901
 31
0.0
  0
LINE
  8
0
 62
     0
 10
78.97
 20
98.9901
 30
0.0
 11
79.7705
 21
98.9901
 31
0.0
  0
LINE
  8
0
 62
     0
 10
79.7705
 20
98.9901
 30
0.0
 11
79.7705
 21
93.1912
 31
0.0
  0
LINE
  8
0
 62
     0
 10
79.7705
 20
93.1912
 30
0.0
 11
78.97
 21
93.1912
 31
0.0
  0
LINE
  8
0
 62
     0
 10
78.97
 20
93.1912
 30
0.0
 11
78.97
 21
90.0906
 31
0.0
  0
LINE
  8
0
 62
     0
 10
78.97
 20
90.0906
 30
0.0
 11
79.7705
 21
90.0906
 31
0.0
  0
LINE
  8
0
 62
     0
 10
79.7705
 20
90.0906
 30
0.0
 11
79.7705
 21
89.0901
 31
0.0
  0
LINE
  8
0
 62
     0
 10
79.7705
 20
89.0901
 30
0.0
 11
93.7701
 21
89.0901
 31
0.0
  0
LINE
  8
0
 62
     0
 10
93.7701
 20
89.0901
 30
0.0
 11
93.7701
 21
90.0906
 31
0.0
  0
LINE
  8
0
 62
     0
 10
93.7701
 20
90.0906
 30
0.0
 11
94.5706
 21
90.0906
 31
0.0
  0
LINE
  8
0
 62
     0
 10
94.5706
 20
90.0906
 30
0.0
 11
94.5706
 21
93.1912
 31
0.0
  0
LINE
  8
0
 62
     0
 10
94.5706
 20
93.1912
 30
0.0
 11
93.7701
 21
93.1912
 31
0.0
  0
LINE
  8
0
 62
     0
 10
93.7701
 20
93.1912
 30
0.0
 11
93.7701
 21
98.9901
 31
0.0
  0
LINE
  8
0
 62
     0
 10
93.7701
 20
98.9901
 30
0.0
 11
94.5706
 21
98.9901
 31
0.0
  0
LINE
  8
0
 62
     0
 10
94.5706
 20
98.9901
 30
0.0
 11
94.5706
 21
102.091
 31
0.0
  0
LINE
  8
0
 62
     0
 10
94.5706
 20
102.091
 30
0.0
 11
93.7701
 21
102.091
 31
0.0
  0
LINE
  8
0
 62
     0
 10
93.7701
 20
102.091
 30
0.0
 11
93.7701
 21
103.091
 31
0.0
  0
LINE
  8
0
 62
     0
 10
93.7701
 20
103.091
 30
0.0
 11
79.7705
 21
103.091
 31
0.0
  0
LINE
  8
0
 62
     0
 10
98.8205
 20
103.091
 30
0.0
 11
98.8205
 21
102.091
 31
0.0
  0
LINE
  8
0
 62
     0
 10
98.8205
 20
102.091
 30
0.0
 11
98.02
 21
102.091
 31
0.0
  0
LINE
  8
0
 62
     0
 10
98.02
 20
102.091
 30
0.0
 11
98.02
 21
98.9901
 31
0.0
  0
LINE
  8
0
 62
     0
 10
98.02
 20
98.9901
 30
0.0
 11
98.8205
 21
98.9901
 31
0.0
  0
LINE
  8
0
 62
     0
 10
98.8205
 20
98.9901
 30
0.0
 11
98.8205
 21
93.1912
 31
0.0
  0
LINE
  8
0
 62
     0
 10
98.8205
 20
93.1912
 30
0.0
 11
98.02
 21
93.1912
 31
0.0
  0
LINE
  8
0
 62
     0
 10
98.02
 20
93.1912
 30
0.0
 11
98.02
 21
90.0906
 31
0.0
  0
LINE
  8
0
 62
     0
 10
98.02
 20
90.0906
 30
0.0
 11
98.8205
 21
90.0906
 31
0.0
  0
LINE
  8
0
 62
     0
 10
98.8205
 20
90.0906
 30
0.0
 11
98.8205
 21
89.0901
 31
0.0
  0
LINE
  8
0
 62
     0
 10
98.8205
 20
89.0901
 30
0.0
 11
112.82
 21
89.0901
 31
0.0
  0
LINE
  8
0
 62
     0
 10
112.82
 20
89.0901
 30
0.0
 11
112.82
 21
90.0906
 31
0.0
  0
LINE
  8
0
 62
     0
 10
112.82
 20
90.0906
 30
0.0
 11
113.619
 21
90.0906
 31
0.0
  0
LINE
  8
0
 62
     0
 10
113.619
 20
90.0906
 30
0.0
 11
113.619
 21
93.1912
 31
0.0
  0
LINE
  8
0
 62
     0
 10
113.619
 20
93.1912
 30
0.0
 11
112.82
 21
93.1912
 31
0.0
  0
LINE
  8
0
 62
     0
 10
112.82
 20
93.1912
 30
0.0
 11
112.82
 21
98.9901
 31
0.0
  0
LINE
  8
0
 62
     0
 10
112.82
 20
98.9901
 30
0.0
 11
113.619
 21
98.9901
 31
0.0
  0
LINE
  8
0
 62
     0
 10
113.619
 20
98.9901
 30
0.0
 11
113.619
 21
102.091
 31
0.0
  0
LINE
  8
0
 62
     0
 10
113.619
 20
102.091
 30
0.0
 11
112.82
 21
102.091
 31
0.0
  0
LINE
  8
0
 62
     0
 10
112.82
 20
102.091
 30
0.0
 11
112.82
 21
103.091
 31
0.0
  0
LINE
  8
0
 62
     0
 10
112.82
 20
103.091
 30
0.0
 11
98.8205
 21
103.091
 31
0.0
  0
LINE
  8
0
 62
     0
 10
117.87
 20
103.091
 30
0.0
 11
117.87
 21
102.091
 31
0.0
  0
LINE
  8
0
 62
     0
 10
117.87
 20
102.091
 30
0.0
 11
117.07
 21
102.091
 31
0.0
  0
LINE
  8
0
 62
     0
 10
117.07
 20
102.091
 30
0.0
 11
117.07
 21
98.9901
 31
0.0
  0
LINE
  8
0
 62
     0
 10
117.07
 20
98.9901
 30
0.0
 11
117.87
 21
98.9901
 31
0.0
  0
LINE
  8
0
 62
     0
 10
117.87
 20
98.9901
 30
0.0
 11
117.87
 21
93.1912
 31
0.0
  0
LINE
  8
0
 62
     0
 10
117.87
 20
93.1912
 30
0.0
 11
117.07
 21
93.1912
 31
0.0
  0
LINE
  8
0
 62
     0
 10
117.07
 20
93.1912
 30
0.0
 11
117.07
 21
90.0906
 31
0.0
  0
LINE
  8
0
 62
     0
 10
117.07
 20
90.0906
 30
0.0
 11
117.87
 21
90.0906
 31
0.0
  0
LINE
  8
0
 62
     0
 10
117.87
 20
90.0906
 30
0.0
 11
117.87
 21
89.0901
 31
0.0
  0
LINE
  8
0
 62
     0
 10
117.87
 20
89.0901
 30
0.0
 11
131.87
 21
89.0901
 31
0.0
  0
LINE
  8
0
 62
     0
 10
131.87
 20
89.0901
 30
0.0
 11
131.87
 21
90.0906
 31
0.0
  0
LINE
  8
0
 62
     0
 10
131.87
 20
90.0906
 30
0.0
 11
132.671
 21
90.0906
 31
0.0
  0
LINE
  8
0
 62
     0
 10
132.671
 20
90.0906
 30
0.0
 11
132.671
 21
93.1912
 31
0.0
  0
LINE
  8
0
 62
     0
 10
132.671
 20
93.1912
 30
0.0
 11
131.87
 21
93.1912
 31
0.0
  0
LINE
  8
0
 62
     0
 10
131.87
 20
93.1912
 30
0.0
 11
131.87
 21
98.9901
 31
0.0
  0
LINE
  8
0
 62
     0
 10
131.87
 20
98.9901
 30
0.0
 11
132.671
 21
98.9901
 31
0.0
  0
LINE
  8
0
 62
     0
 10
132.671
 20
98.9901
 30
0.0
 11
132.671
 21
102.091
 31
0.0
  0
LINE
  8
0
 62
     0
 10
132.671
 20
102.091
 30
0.0
 11
131.87
 21
102.091
 31
0.0
  0
LINE
  8
0
 62
     0
 10
131.87
 20
102.091
 30
0.0
 11
131.87
 21
103.091
 31
0.0
  0
LINE
  8
0
 62
     0
 10
131.87
 20
103.091
 30
0.0
 11
117.87
 21
103.091
 31
0.0
  0
LINE
  8
0
 62
     0
 10
136.92
 20
103.091
 30
0.0
 11
136.92
 21
102.091
 31
0.0
  0
LINE
  8
0
 62
     0
 10
136.92
 20
102.091
 30
0.0
 11
136.12
 21
102.091
 31
0.0
  0
LINE
  8
0
 62
     0
 10
136.12
 20
102.091
 30
0.0
 11
136.12
 21
98.9901
 31
0.0
  0
LINE
  8
0
 62
     0
 10
136.12
 20
98.9901
 30
0.0
 11
136.92
 21
98.9901
 31
0.0
  0
LINE
  8
0
 62
     0
 10
136.92
 20
98.9901
 30
0.0
 11
136.92
 21
93.1912
 31
0.0
  0
LINE
  8
0
 62
     0
 10
136.92
 20
93.1912
 30
0.0
 11
136.12
 21
93.1912
 31
0.0
  0
LINE
  8
0
 62
     0
 10
136.12
 20
93.1912
 30
0.0
 11
136.12
 21
90.0906
 31
0.0
  0
LINE
  8
0
 62
     0
 10
136.12
 20
90.0906
 30
0.0
 11
136.92
 21
90.0906
 31
0.0
  0
LINE
  8
0
 62
     0
 10
136.92
 20
90.0906
 30
0.0
 11
136.92
 21
89.0901
 31
0.0
  0
LINE
  8
0
 62
     0
 10
136.92
 20
89.0901
 30
0.0
 11
150.92
 21
89.0901
 31
0.0
  0
LINE
  8
0
 62
     0
 10
150.92
 20
89.0901
 30
0.0
 11
150.92
 21
90.0906
 31
0.0
  0
LINE
  8
0
 62
     0
 10
150.92
 20
90.0906
 30
0.0
 11
151.721
 21
90.0906
 31
0.0
  0
LINE
  8
0
 62
     0
 10
151.721
 20
90.0906
 30
0.0
 11
151.721
 21
93.1912
 31
0.0
  0
LINE
  8
0
 62
     0
 10
151.721
 20
93.1912
 30
0.0
 11
150.92
 21
93.1912
 31
0.0
  0
LINE
  8
0
 62
     0
 10
150.92
 20
93.1912
 30
0.0
 11
150.92
 21
98.9901
 31
0.0
  0
LINE
  8
0
 62
     0
 10
150.92
 20
98.9901
 30
0.0
 11
151.721
 21
98.9901
 31
0.0
  0
LINE
  8
0
 62
     0
 10
151.721
 20
98.9901
 30
0.0
 11
151.721
 21
102.091
 31
0.0
  0
LINE
  8
0
 62
     0
 10
151.721
 20
102.091
 30
0.0
 11
150.92
 21
102.091
 31
0.0
  0
LINE
  8
0
 62
     0
 10
150.92
 20
102.091
 30
0.0
 11
150.92
 21
103.091
 31
0.0
  0
LINE
  8
0
 62
     0
 10
150.92
 20
103.091
 30
0.0
 11
136.92
 21
103.091
 31
0.0
  0
LINE
  8
0
 62
     0
 10
155.97
 20
103.091
 30
0.0
 11
155.97
 21
102.091
 31
0.0
  0
LINE
  8
0
 62
     0
 10
155.97
 20
102.091
 30
0.0
 11
155.17
 21
102.091
 31
0.0
  0
LINE
  8
0
 62
     0
 10
155.17
 20
102.091
 30
0.0
 11
155.17
 21
98.9901
 31
0.0
  0
LINE
  8
0
 62
     0
 10
155.17
 20
98.9901
 30
0.0
 11
155.97
 21
98.9901
 31
0.0
  0
LINE
  8
0
 62
     0
 10
155.97
 20
98.9901
 30
0.0
 11
155.97
 21
93.1912
 31
0.0
  0
LINE
  8
0
 62
     0
 10
155.97
 20
93.1912
 30
0.0
 11
155.17
 21
93.1912
 31
0.0
  0
LINE
  8
0
 62
     0
 10
155.17
 20
93.1912
 30
0.0
 11
155.17
 21
90.0906
 31
0.0
  0
LINE
  8
0
 62
     0
 10
155.17
 20
90.0906
 30
0.0
 11
155.97
 21
90.0906
 31
0.0
  0
LINE
  8
0
 62
     0
 10
155.97
 20
90.0906
 30
0.0
 11
155.97
 21
89.0901
 31
0.0
  0
LINE
  8
0
 62
     0
 10
155.97
 20
89.0901
 30
0.0
 11
169.97
 21
89.0901
 31
0.0
  0
LINE
  8
0
 62
     0
 10
169.97
 20
89.0901
 30
0.0
 11
169.97
 21
90.0906
 31
0.0
  0
LINE
  8
0
 62
     0
 10
169.97
 20
90.0906
 30
0.0
 11
170.771
 21
90.0906
 31
0.0
  0
LINE
  8
0
 62
     0
 10
170.771
 20
90.0906
 30
0.0
 11
170.771
 21
93.1912
 31
0.0
  0
LINE
  8
0
 62
     0
 10
170.771
 20
93.1912
 30
0.0
 11
169.97
 21
93.1912
 31
0.0
  0
LINE
  8
0
 62
     0
 10
169.97
 20
93.1912
 30
0.0
 11
169.97
 21
98.9901
 31
0.0
  0
LINE
  8
0
 62
     0
 10
169.97
 20
98.9901
 30
0.0
 11
170.771
 21
98.9901
 31
0.0
  0
LINE
  8
0
 62
     0
 10
170.771
 20
98.9901
 30
0.0
 11
170.771
 21
102.091
 31
0.0
  0
LINE
  8
0
 62
     0
 10
170.771
 20
102.091
 30
0.0
 11
169.97
 21
102.091
 31
0.0
  0
LINE
  8
0
 62
     0
 10
169.97
 20
102.091
 30
0.0
 11
169.97
 21
103.091
 31
0.0
  0
LINE
  8
0
 62
     0
 10
169.97
 20
103.091
 30
0.0
 11
155.97
 21
103.091
 31
0.0
  0
LINE
  8
0
 62
     0
 10
175.02
 20
103.091
 30
0.0
 11
175.02
 21
102.091
 31
0.0
  0
LINE
  8
0
 62
     0
 10
175.02
 20
102.091
 30
0.0
 11
174.22
 21
102.091
 31
0.0
  0
LINE
  8
0
 62
     0
 10
174.22
 20
102.091
 30
0.0
 11
174.22
 21
98.9901
 31
0.0
  0
LINE
  8
0
 62
     0
 10
174.22
 20
98.9901
 30
0.0
 11
175.02
 21
98.9901
 31
0.0
  0
LINE
  8
0
 62
     0
 10
175.02
 20
98.9901
 30
0.0
 11
175.02
 21
93.1912
 31
0.0
  0
LINE
  8
0
 62
     0
 10
175.02
 20
93.1912
 30
0.0
 11
174.22
 21
93.1912
 31
0.0
  0
LINE
  8
0
 62
     0
 10
174.22
 20
93.1912
 30
0.0
 11
174.22
 21
90.0906
 31
0.0
  0
LINE
  8
0
 62
     0
 10
174.22
 20
90.0906
 30
0.0
 11
175.02
 21
90.0906
 31
0.0
  0
LINE
  8
0
 62
     0
 10
175.02
 20
90.0906
 30
0.0
 11
175.02
 21
89.0901
 31
0.0
  0
LINE
  8
0
 62
     0
 10
175.02
 20
89.0901
 30
0.0
 11
189.02
 21
89.0901
 31
0.0
  0
LINE
  8
0
 62
     0
 10
189.02
 20
89.0901
 30
0.0
 11
189.02
 21
90.0906
 31
0.0
  0
LINE
  8
0
 62
     0
 10
189.02
 20
90.0906
 30
0.0
 11
189.821
 21
90.0906
 31
0.0
  0
LINE
  8
0
 62
     0
 10
189.821
 20
90.0906
 30
0.0
 11
189.821
 21
93.1912
 31
0.0
  0
LINE
  8
0
 62
     0
 10
189.821
 20
93.1912
 30
0.0
 11
189.02
 21
93.1912
 31
0.0
  0
LINE
  8
0
 62
     0
 10
189.02
 20
93.1912
 30
0.0
 11
189.02
 21
98.9901
 31
0.0
  0
LINE
  8
0
 62
     0
 10
189.02
 20
98.9901
 30
0.0
 11
189.821
 21
98.9901
 31
0.0
  0
LINE
  8
0
 62
     0
 10
189.821
 20
98.9901
 30
0.0
 11
189.821
 21
102.091
 31
0.0
  0
LINE
  8
0
 62
     0
 10
189.821
 20
102.091
 30
0.0
 11
189.02
 21
102.091
 31
0.0
  0
LINE
  8
0
 62
     0
 10
189.02
 20
102.091
 30
0.0
 11
189.02
 21
103.091
 31
0.0
  0
LINE
  8
0
 62
     0
 10
189.02
 20
103.091
 30
0.0
 11
175.02
 21
103.091
 31
0.0
  0
LINE
  8
0
 62
     0
 10
194.07
 20
103.091
 30
0.0
 11
194.07
 21
102.091
 31
0.0
  0
LINE
  8
0
 62
     0
 10
194.07
 20
102.091
 30
0.0
 11
193.27
 21
102.091
 31
0.0
  0
LINE
  8
0
 62
     0
 10
193.27
 20
102.091
 30
0.0
 11
193.27
 21
98.9901
 31
0.0
  0
LINE
  8
0
 62
     0
 10
193.27
 20
98.9901
 30
0.0
 11
194.07
 21
98.9901
 31
0.0
  0
LINE
  8
0
 62
     0
 10
194.07
 20
98.9901
 30
0.0
 11
194.07
 21
93.1912
 31
0.0
  0
LINE
  8
0
 62
     0
 10
194.07
 20
93.1912
 30
0.0
 11
193.27
 21
93.1912
 31
0.0
  0
LINE
  8
0
 62
     0
 10
193.27
 20
93.1912
 30
0.0
 11
193.27
 21
90.0906
 31
0.0
  0
LINE
  8
0
 62
     0
 10
193.27
 20
90.0906
 30
0.0
 11
194.07
 21
90.0906
 31
0.0
  0
LINE
  8
0
 62
     0
 10
194.07
 20
90.0906
 30
0.0
 11
194.07
 21
89.0901
 31
0.0
  0
LINE
  8
0
 62
     0
 10
194.07
 20
89.0901
 30
0.0
 11
208.07
 21
89.0901
 31
0.0
  0
LINE
  8
0
 62
     0
 10
208.07
 20
89.0901
 30
0.0
 11
208.07
 21
90.0906
 31
0.0
  0
LINE
  8
0
 62
     0
 10
208.07
 20
90.0906
 30
0.0
 11
208.871
 21
90.0906
 31
0.0
  0
LINE
  8
0
 62
     0
 10
208.871
 20
90.0906
 30
0.0
 11
208.871
 21
93.1912
 31
0.0
  0
LINE
  8
0
 62
     0
 10
208.871
 20
93.1912
 30
0.0
 11
208.07
 21
93.1912
 31
0.0
  0
LINE
  8
0
 62
     0
 10
208.07
 20
93.1912
 30
0.0
 11
208.07
 21
98.9901
 31
0.0
  0
LINE
  8
0
 62
     0
 10
208.07
 20
98.9901
 30
0.0
 11
208.871
 21
98.9901
 31
0.0
  0
LINE
  8
0
 62
     0
 10
208.871
 20
98.9901
 30
0.0
 11
208.871
 21
102.091
 31
0.0
  0
LINE
  8
0
 62
     0
 10
208.871
 20
102.091
 30
0.0
 11
208.07
 21
102.091
 31
0.0
  0
LINE
  8
0
 62
     0
 10
208.07
 20
102.091
 30
0.0
 11
208.07
 21
103.091
 31
0.0
  0
LINE
  8
0
 62
     0
 10
208.07
 20
103.091
 30
0.0
 11
194.07
 21
103.091
 31
0.0
  0
LINE
  8
0
 62
     0
 10
213.12
 20
103.091
 30
0.0
 11
213.12
 21
102.091
 31
0.0
  0
LINE
  8
0
 62
     0
 10
213.12
 20
102.091
 30
0.0
 11
212.32
 21
102.091
 31
0.0
  0
LINE
  8
0
 62
     0
 10
212.32
 20
102.091
 30
0.0
 11
212.32
 21
98.9901
 31
0.0
  0
LINE
  8
0
 62
     0
 10
212.32
 20
98.9901
 30
0.0
 11
213.12
 21
98.9901
 31
0.0
  0
LINE
  8
0
 62
     0
 10
213.12
 20
98.9901
 30
0.0
 11
213.12
 21
93.1912
 31
0.0
  0
LINE
  8
0
 62
     0
 10
213.12
 20
93.1912
 30
0.0
 11
212.32
 21
93.1912
 31
0.0
  0
LINE
  8
0
 62
     0
 10
212.32
 20
93.1912
 30
0.0
 11
212.32
 21
90.0906
 31
0.0
  0
LINE
  8
0
 62
     0
 10
212.32
 20
90.0906
 30
0.0
 11
213.12
 21
90.0906
 31
0.0
  0
LINE
  8
0
 62
     0
 10
213.12
 20
90.0906
 30
0.0
 11
213.12
 21
89.0901
 31
0.0
  0
LINE
  8
0
 62
     0
 10
213.12
 20
89.0901
 30
0.0
 11
227.12
 21
89.0901
 31
0.0
  0
LINE
  8
0
 62
     0
 10
227.12
 20
89.0901
 30
0.0
 11
227.12
 21
90.0906
 31
0.0
  0
LINE
  8
0
 62
     0
 10
227.12
 20
90.0906
 30
0.0
 11
227.921
 21
90.0906
 31
0.0
  0
LINE
  8
0
 62
     0
 10
227.921
 20
90.0906
 30
0.0
 11
227.921
 21
93.1912
 31
0.0
  0
LINE
  8
0
 62
     0
 10
227.921
 20
93.1912
 30
0.0
 11
227.12
 21
93.1912
 31
0.0
  0
LINE
  8
0
 62
     0
 10
227.12
 20
93.1912
 30
0.0
 11
227.12
 21
98.9901
 31
0.0
  0
LINE
  8
0
 62
     0
 10
227.12
 20
98.9901
 30
0.0
 11
227.921
 21
98.9901
 31
0.0
  0
LINE
  8
0
 62
     0
 10
227.921
 20
98.9901
 30
0.0
 11
227.921
 21
102.091
 31
0.0
  0
LINE
  8
0
 62
     0
 10
227.921
 20
102.091
 30
0.0
 11
227.12
 21
102.091
 31
0.0
  0
LINE
  8
0
 62
     0
 10
227.12
 20
102.091
 30
0.0
 11
227.12
 21
103.091
 31
0.0
  0
LINE
  8
0
 62
     0
 10
227.12
 20
103.091
 30
0.0
 11
213.12
 21
103.091
 31
0.0
  0
LINE
  8
0
 62
     0
 10
232.17
 20
103.091
 30
0.0
 11
232.17
 21
102.091
 31
0.0
  0
LINE
  8
0
 62
     0
 10
232.17
 20
102.091
 30
0.0
 11
231.37
 21
102.091
 31
0.0
  0
LINE
  8
0
 62
     0
 10
231.37
 20
102.091
 30
0.0
 11
231.37
 21
98.9901
 31
0.0
  0
LINE
  8
0
 62
     0
 10
231.37
 20
98.9901
 30
0.0
 11
232.17
 21
98.9901
 31
0.0
  0
LINE
  8
0
 62
     0
 10
232.17
 20
98.9901
 30
0.0
 11
232.17
 21
93.1912
 31
0.0
  0
LINE
  8
0
 62
     0
 10
232.17
 20
93.1912
 30
0.0
 11
231.37
 21
93.1912
 31
0.0
  0
LINE
  8
0
 62
     0
 10
231.37
 20
93.1912
 30
0.0
 11
231.37
 21
90.0906
 31
0.0
  0
LINE
  8
0
 62
     0
 10
231.37
 20
90.0906
 30
0.0
 11
232.17
 21
90.0906
 31
0.0
  0
LINE
  8
0
 62
     0
 10
232.17
 20
90.0906
 30
0.0
 11
232.17
 21
89.0901
 31
0.0
  0
LINE
  8
0
 62
     0
 10
232.17
 20
89.0901
 30
0.0
 11
246.17
 21
89.0901
 31
0.0
  0
LINE
  8
0
 62
     0
 10
246.17
 20
89.0901
 30
0.0
 11
246.17
 21
90.0906
 31
0.0
  0
LINE
  8
0
 62
     0
 10
246.17
 20
90.0906
 30
0.0
 11
246.971
 21
90.0906
 31
0.0
  0
LINE
  8
0
 62
     0
 10
246.971
 20
90.0906
 30
0.0
 11
246.971
 21
93.1912
 31
0.0
  0
LINE
  8
0
 62
     0
 10
246.971
 20
93.1912
 30
0.0
 11
246.17
 21
93.1912
 31
0.0
  0
LINE
  8
0
 62
     0
 10
246.17
 20
93.1912
 30
0.0
 11
246.17
 21
98.9901
 31
0.0
  0
LINE
  8
0
 62
     0
 10
246.17
 20
98.9901
 30
0.0
 11
246.971
 21
98.9901
 31
0.0
  0
LINE
  8
0
 62
     0
 10
246.971
 20
98.9901
 30
0.0
 11
246.971
 21
102.091
 31
0.0
  0
LINE
  8
0
 62
     0
 10
246.971
 20
102.091
 30
0.0
 11
246.17
 21
102.091
 31
0.0
  0
LINE
  8
0
 62
     0
 10
246.17
 20
102.091
 30
0.0
 11
246.17
 21
103.091
 31
0.0
  0
LINE
  8
0
 62
     0
 10
246.17
 20
103.091
 30
0.0
 11
232.17
 21
103.091
 31
0.0
  0
LINE
  8
0
 62
     0
 10
251.22
 20
103.091
 30
0.0
 11
251.22
 21
102.091
 31
0.0
  0
LINE
  8
0
 62
     0
 10
251.22
 20
102.091
 30
0.0
 11
250.42
 21
102.091
 31
0.0
  0
LINE
  8
0
 62
     0
 10
250.42
 20
102.091
 30
0.0
 11
250.42
 21
98.9901
 31
0.0
  0
LINE
  8
0
 62
     0
 10
250.42
 20
98.9901
 30
0.0
 11
251.22
 21
98.9901
 31
0.0
  0
LINE
  8
0
 62
     0
 10
251.22
 20
98.9901
 30
0.0
 11
251.22
 21
93.1912
 31
0.0
  0
LINE
  8
0
 62
     0
 10
251.22
 20
93.1912
 30
0.0
 11
250.42
 21
93.1912
 31
0.0
  0
LINE
  8
0
 62
     0
 10
250.42
 20
93.1912
 30
0.0
 11
250.42
 21
90.0906
 31
0.0
  0
LINE
  8
0
 62
     0
 10
250.42
 20
90.0906
 30
0.0
 11
251.22
 21
90.0906
 31
0.0
  0
LINE
  8
0
 62
     0
 10
251.22
 20
90.0906
 30
0.0
 11
251.22
 21
89.0901
 31
0.0
  0
LINE
  8
0
 62
     0
 10
251.22
 20
89.0901
 30
0.0
 11
265.22
 21
89.0901
 31
0.0
  0
LINE
  8
0
 62
     0
 10
265.22
 20
89.0901
 30
0.0
 11
265.22
 21
90.0906
 31
0.0
  0
LINE
  8
0
 62
     0
 10
265.22
 20
90.0906
 30
0.0
 11
266.021
 21
90.0906
 31
0.0
  0
LINE
  8
0
 62
     0
 10
266.021
 20
90.0906
 30
0.0
 11
266.021
 21
93.1912
 31
0.0
  0
LINE
  8
0
 62
     0
 10
266.021
 20
93.1912
 30
0.0
 11
265.22
 21
93.1912
 31
0.0
  0
LINE
  8
0
 62
     0
 10
265.22
 20
93.1912
 30
0.0
 11
265.22
 21
98.9901
 31
0.0
  0
LINE
  8
0
 62
     0
 10
265.22
 20
98.9901
 30
0.0
 11
266.021
 21
98.9901
 31
0.0
  0
LINE
  8
0
 62
     0
 10
266.021
 20
98.9901
 30
0.0
 11
266.021
 21
102.091
 31
0.0
  0
LINE
  8
0
 62
     0
 10
266.021
 20
102.091
 30
0.0
 11
265.22
 21
102.091
 31
0.0
  0
LINE
  8
0
 62
     0
 10
265.22
 20
102.091
 30
0.0
 11
265.22
 21
103.091
 31
0.0
  0
LINE
  8
0
 62
     0
 10
265.22
 20
103.091
 30
0.0
 11
251.22
 21
103.091
 31
0.0
  0
LINE
  8
0
 62
     0
 10
270.27
 20
103.091
 30
0.0
 11
270.27
 21
102.091
 31
0.0
  0
LINE
  8
0
 62
     0
 10
270.27
 20
102.091
 30
0.0
 11
269.47
 21
102.091
 31
0.0
  0
LINE
  8
0
 62
     0
 10
269.47
 20
102.091
 30
0.0
 11
269.47
 21
98.9901
 31
0.0
  0
LINE
  8
0
 62
     0
 10
269.47
 20
98.9901
 30
0.0
 11
270.27
 21
98.9901
 31
0.0
  0
LINE
  8
0
 62
     0
 10
270.27
 20
98.9901
 30
0.0
 11
270.27
 21
93.1912
 31
0.0
  0
LINE
  8
0
 62
     0
 10
270.27
 20
93.1912
 30
0.0
 11
269.47
 21
93.1912
 31
0.0
  0
LINE
  8
0
 62
     0
 10
269.47
 20
93.1912
 30
0.0
 11
269.47
 21
90.0906
 31
0.0
  0
LINE
  8
0
 62
     0
 10
269.47
 20
90.0906
 30
0.0
 11
270.27
 21
90.0906
 31
0.0
  0
LINE
  8
0
 62
     0
 10
270.27
 20
90.0906
 30
0.0
 11
270.27
 21
89.0901
 31
0.0
  0
LINE
  8
0
 62
     0
 10
270.27
 20
89.0901
 30
0.0
 11
284.27
 21
89.0901
 31
0.0
  0
LINE
  8
0
 62
     0
 10
284.27
 20
89.0901
 30
0.0
 11
284.27
 21
90.0906
 31
0.0
  0
LINE
  8
0
 62
     0
 10
284.27
 20
90.0906
 30
0.0
 11
285.071
 21
90.0906
 31
0.0
  0
LINE
  8
0
 62
     0
 10
285.071
 20
90.0906
 30
0.0
 11
285.071
 21
93.1912
 31
0.0
  0
LINE
  8
0
 62
     0
 10
285.071
 20
93.1912
 30
0.0
 11
284.27
 21
93.1912
 31
0.0
  0
LINE
  8
0
 62
     0
 10
284.27
 20
93.1912
 30
0.0
 11
284.27
 21
98.9901
 31
0.0
  0
LINE
  8
0
 62
     0
 10
284.27
 20
98.9901
 30
0.0
 11
285.071
 21
98.9901
 31
0.0
  0
LINE
  8
0
 62
     0
 10
285.071
 20
98.9901
 30
0.0
 11
285.071
 21
102.091
 31
0.0
  0
LINE
  8
0
 62
     0
 10
285.071
 20
102.091
 30
0.0
 11
284.27
 21
102.091
 31
0.0
  0
LINE
  8
0
 62
     0
 10
284.27
 20
102.091
 30
0.0
 11
284.27
 21
103.091
 31
0.0
  0
LINE
  8
0
 62
     0
 10
284.27
 20
103.091
 30
0.0
 11
270.27
 21
103.091
 31
0.0
  0
LINE
  8
0
 62
     0
 10
289.32
 20
103.091
 30
0.0
 11
289.32
 21
102.091
 31
0.0
  0
LINE
  8
0
 62
     0
 10
289.32
 20
102.091
 30
0.0
 11
288.52
 21
102.091
 31
0.0
  0
LINE
  8
0
 62
     0
 10
288.52
 20
102.091
 30
0.0
 11
288.52
 21
98.9901
 31
0.0
  0
LINE
  8
0
 62
     0
 10
288.52
 20
98.9901
 30
0.0
 11
289.32
 21
98.9901
 31
0.0
  0
LINE
  8
0
 62
     0
 10
289.32
 20
98.9901
 30
0.0
 11
289.32
 21
93.1912
 31
0.0
  0
LINE
  8
0
 62
     0
 10
289.32
 20
93.1912
 30
0.0
 11
288.52
 21
93.1912
 31
0.0
  0
LINE
  8
0
 62
     0
 10
288.52
 20
93.1912
 30
0.0
 11
288.52
 21
90.0906
 31
0.0
  0
LINE
  8
0
 62
     0
 10
288.52
 20
90.0906
 30
0.0
 11
289.32
 21
90.0906
 31
0.0
  0
LINE
  8
0
 62
     0
 10
289.32
 20
90.0906
 30
0.0
 11
289.32
 21
89.0901
 31
0.0
  0
LINE
  8
0
 62
     0
 10
289.32
 20
89.0901
 30
0.0
 11
303.32
 21
89.0901
 31
0.0
  0
LINE
  8
0
 62
     0
 10
303.32
 20
89.0901
 30
0.0
 11
303.32
 21
90.0906
 31
0.0
  0
LINE
  8
0
 62
     0
 10
303.32
 20
90.0906
 30
0.0
 11
304.121
 21
90.0906
 31
0.0
  0
LINE
  8
0
 62
     0
 10
304.121
 20
90.0906
 30
0.0
 11
304.121
 21
93.1912
 31
0.0
  0
LINE
  8
0
 62
     0
 10
304.121
 20
93.1912
 30
0.0
 11
303.32
 21
93.1912
 31
0.0
  0
LINE
  8
0
 62
     0
 10
303.32
 20
93.1912
 30
0.0
 11
303.32
 21
98.9901
 31
0.0
  0
LINE
  8
0
 62
     0
 10
303.32
 20
98.9901
 30
0.0
 11
304.121
 21
98.9901
 31
0.0
  0
LINE
  8
0
 62
     0
 10
304.121
 20
98.9901
 30
0.0
 11
304.121
 21
102.091
 31
0.0
  0
LINE
  8
0
 62
     0
 10
304.121
 20
102.091
 30
0.0
 11
303.32
 21
102.091
 31
0.0
  0
LINE
  8
0
 62
     0
 10
303.32
 20
102.091
 30
0.0
 11
303.32
 21
103.091
 31
0.0
  0
LINE
  8
0
 62
     0
 10
303.32
 20
103.091
 30
0.0
 11
289.32
 21
103.091
 31
0.0
  0
ENDSEC
  0
EOF
